JustfontHuninn-Regular.ufo
<glyph name="exclam" format="2">
	<advance width="274"/>
	<unicode hex="0021"/>
	<note>
		exclam
	</note>
	<outline>
		<contour>
			<point x="138" y="217" type="curve" smooth="yes"/>
			<point x="156" y="217"/>
			<point x="170" y="227"/>
			<point x="171" y="246" type="curve" smooth="yes"/>
			<point x="188" y="568" type="line"/>
			<point x="188" y="665" type="line" smooth="yes"/>
			<point x="188" y="693"/>
			<point x="167" y="717"/>
			<point x="138" y="717" type="curve" smooth="yes"/>
			<point x="109" y="717"/>
			<point x="86" y="693"/>
			<point x="86" y="665" type="curve" smooth="yes"/>
			<point x="86" y="568" type="line"/>
			<point x="104" y="246" type="line" smooth="yes"/>
			<point x="104" y="227"/>
			<point x="119" y="217"/>
		</contour>
		<contour>
			<point x="138" y="24" type="curve" smooth="yes"/>
			<point x="170" y="24"/>
			<point x="197" y="51"/>
			<point x="197" y="84" type="curve" smooth="yes"/>
			<point x="197" y="115"/>
			<point x="170" y="142"/>
			<point x="138" y="142" type="curve" smooth="yes"/>
			<point x="106" y="142"/>
			<point x="79" y="115"/>
			<point x="79" y="84" type="curve" smooth="yes"/>
			<point x="79" y="51"/>
			<point x="106" y="24"/>
		</contour>
	</outline>
</glyph>
<glyph name="quotedbl" format="2">
	<advance width="403"/>
	<unicode hex="0022"/>
	<note>
		quotedbl
	</note>
	<outline>
		<contour>
			<point x="292" y="557" type="curve" smooth="yes"/>
			<point x="311" y="557"/>
			<point x="321" y="569"/>
			<point x="324" y="590" type="curve" smooth="yes"/>
			<point x="345" y="732" type="line"/>
			<point x="346" y="740" type="line"/>
			<point x="346" y="775"/>
			<point x="327" y="793"/>
			<point x="292" y="793" type="curve" smooth="yes"/>
			<point x="257" y="793"/>
			<point x="238" y="776"/>
			<point x="238" y="742" type="curve" smooth="yes"/>
			<point x="239" y="732" type="line"/>
			<point x="261" y="590" type="line" smooth="yes"/>
			<point x="264" y="569"/>
			<point x="274" y="557"/>
		</contour>
		<contour>
			<point x="111" y="557" type="curve" smooth="yes"/>
			<point x="129" y="557"/>
			<point x="140" y="569"/>
			<point x="143" y="590" type="curve" smooth="yes"/>
			<point x="163" y="732" type="line"/>
			<point x="165" y="742" type="line" smooth="yes"/>
			<point x="166" y="753"/>
			<point x="161" y="764"/>
			<point x="151" y="775" type="curve" smooth="yes"/>
			<point x="141" y="786"/>
			<point x="128" y="793"/>
			<point x="111" y="793" type="curve" smooth="yes"/>
			<point x="76" y="793"/>
			<point x="58" y="776"/>
			<point x="58" y="741" type="curve"/>
			<point x="59" y="732" type="line"/>
			<point x="79" y="590" type="line" smooth="yes"/>
			<point x="82" y="569"/>
			<point x="93" y="557"/>
		</contour>
	</outline>
</glyph>
<glyph name="numbersign" format="2">
	<advance width="598"/>
	<unicode hex="0023"/>
	<note>
		numbersign
	</note>
	<outline>
		<contour>
			<point x="155" y="23" type="curve" smooth="yes"/>
			<point x="173" y="23"/>
			<point x="188" y="37"/>
			<point x="190" y="52" type="curve" smooth="yes"/>
			<point x="215" y="206" type="line"/>
			<point x="337" y="206" type="line"/>
			<point x="319" y="95"/>
			<point x="313" y="61"/>
			<point x="313" y="58" type="curve" smooth="yes"/>
			<point x="313" y="38"/>
			<point x="330" y="23"/>
			<point x="349" y="23" type="curve" smooth="yes"/>
			<point x="366" y="23"/>
			<point x="381" y="37"/>
			<point x="384" y="52" type="curve" smooth="yes"/>
			<point x="408" y="206" type="line"/>
			<point x="493" y="206" type="line" smooth="yes"/>
			<point x="512" y="206"/>
			<point x="528" y="222"/>
			<point x="528" y="241" type="curve" smooth="yes"/>
			<point x="528" y="259"/>
			<point x="512" y="276"/>
			<point x="493" y="276" type="curve" smooth="yes"/>
			<point x="419" y="276" type="line"/>
			<point x="442" y="423" type="line"/>
			<point x="527" y="423" type="line" smooth="yes"/>
			<point x="546" y="423"/>
			<point x="563" y="439"/>
			<point x="563" y="458" type="curve" smooth="yes"/>
			<point x="563" y="476"/>
			<point x="546" y="493"/>
			<point x="527" y="493" type="curve" smooth="yes"/>
			<point x="453" y="493" type="line"/>
			<point x="470" y="591"/>
			<point x="477" y="634"/>
			<point x="477" y="639" type="curve" smooth="yes"/>
			<point x="477" y="659"/>
			<point x="463" y="675"/>
			<point x="441" y="675" type="curve" smooth="yes"/>
			<point x="423" y="675"/>
			<point x="409" y="663"/>
			<point x="406" y="646" type="curve" smooth="yes"/>
			<point x="382" y="493" type="line"/>
			<point x="260" y="493" type="line"/>
			<point x="276" y="591"/>
			<point x="283" y="634"/>
			<point x="283" y="639" type="curve" smooth="yes"/>
			<point x="283" y="659"/>
			<point x="270" y="675"/>
			<point x="248" y="675" type="curve" smooth="yes"/>
			<point x="229" y="675"/>
			<point x="216" y="663"/>
			<point x="213" y="646" type="curve" smooth="yes"/>
			<point x="188" y="493" type="line"/>
			<point x="104" y="493" type="line" smooth="yes"/>
			<point x="85" y="493"/>
			<point x="68" y="476"/>
			<point x="68" y="458" type="curve" smooth="yes"/>
			<point x="68" y="439"/>
			<point x="85" y="423"/>
			<point x="104" y="423" type="curve" smooth="yes"/>
			<point x="178" y="423" type="line"/>
			<point x="154" y="276" type="line"/>
			<point x="69" y="276" type="line" smooth="yes"/>
			<point x="51" y="276"/>
			<point x="34" y="259"/>
			<point x="34" y="241" type="curve" smooth="yes"/>
			<point x="34" y="222"/>
			<point x="51" y="206"/>
			<point x="69" y="206" type="curve" smooth="yes"/>
			<point x="144" y="206" type="line"/>
			<point x="126" y="95"/>
			<point x="120" y="61"/>
			<point x="120" y="58" type="curve" smooth="yes"/>
			<point x="120" y="38"/>
			<point x="137" y="23"/>
		</contour>
		<contour>
			<point x="226" y="276" type="line"/>
			<point x="249" y="423" type="line"/>
			<point x="371" y="423" type="line"/>
			<point x="348" y="276" type="line"/>
		</contour>
	</outline>
</glyph>
<glyph name="dollar" format="2">
	<advance width="602"/>
	<unicode hex="0024"/>
	<note>
		dollar
	</note>
	<outline>
		<contour>
			<point x="304" y="-79" type="curve" smooth="yes"/>
			<point x="322" y="-79"/>
			<point x="335" y="-66"/>
			<point x="335" y="-49" type="curve" smooth="yes"/>
			<point x="335" y="19" type="line"/>
			<point x="423" y="24"/>
			<point x="495" y="58"/>
			<point x="533" y="115" type="curve" smooth="yes"/>
			<point x="552" y="144"/>
			<point x="561" y="175"/>
			<point x="561" y="210" type="curve" smooth="yes"/>
			<point x="561" y="295"/>
			<point x="514" y="344"/>
			<point x="451" y="371" type="curve" smooth="yes"/>
			<point x="421" y="383"/>
			<point x="382" y="396"/>
			<point x="335" y="407" type="curve"/>
			<point x="335" y="637" type="line"/>
			<point x="386" y="635"/>
			<point x="434" y="627"/>
			<point x="477" y="611" type="curve" smooth="yes"/>
			<point x="483" y="608"/>
			<point x="488" y="607"/>
			<point x="492" y="607" type="curve" smooth="yes"/>
			<point x="516" y="607"/>
			<point x="532" y="629"/>
			<point x="532" y="649" type="curve" smooth="yes"/>
			<point x="532" y="670"/>
			<point x="522" y="682"/>
			<point x="504" y="689" type="curve" smooth="yes"/>
			<point x="455" y="708"/>
			<point x="398" y="718"/>
			<point x="335" y="721" type="curve"/>
			<point x="335" y="788" type="line" smooth="yes"/>
			<point x="335" y="804"/>
			<point x="320" y="819"/>
			<point x="304" y="819" type="curve" smooth="yes"/>
			<point x="286" y="819"/>
			<point x="273" y="804"/>
			<point x="273" y="788" type="curve" smooth="yes"/>
			<point x="273" y="720" type="line"/>
			<point x="186" y="713"/>
			<point x="116" y="675"/>
			<point x="81" y="615" type="curve" smooth="yes"/>
			<point x="63" y="585"/>
			<point x="56" y="553"/>
			<point x="56" y="520" type="curve" smooth="yes"/>
			<point x="56" y="451"/>
			<point x="93" y="397"/>
			<point x="163" y="366" type="curve" smooth="yes"/>
			<point x="192" y="352"/>
			<point x="229" y="340"/>
			<point x="273" y="328" type="curve"/>
			<point x="273" y="105" type="line"/>
			<point x="215" y="108"/>
			<point x="159" y="122"/>
			<point x="108" y="144" type="curve"/>
			<point x="103" y="147"/>
			<point x="97" y="148"/>
			<point x="90" y="148" type="curve" smooth="yes"/>
			<point x="66" y="148"/>
			<point x="49" y="130"/>
			<point x="49" y="106" type="curve" smooth="yes"/>
			<point x="49" y="89"/>
			<point x="62" y="72"/>
			<point x="77" y="65" type="curve" smooth="yes"/>
			<point x="138" y="40"/>
			<point x="202" y="24"/>
			<point x="273" y="19" type="curve"/>
			<point x="273" y="-49" type="line" smooth="yes"/>
			<point x="273" y="-68"/>
			<point x="287" y="-79"/>
		</contour>
		<contour>
			<point x="335" y="105" type="curve"/>
			<point x="335" y="313" type="line"/>
			<point x="425" y="289"/>
			<point x="471" y="265"/>
			<point x="471" y="216" type="curve" smooth="yes"/>
			<point x="471" y="149"/>
			<point x="427" y="112"/>
		</contour>
		<contour>
			<point x="273" y="422" type="line"/>
			<point x="189" y="444"/>
			<point x="146" y="470"/>
			<point x="146" y="527" type="curve" smooth="yes"/>
			<point x="146" y="583"/>
			<point x="192" y="623"/>
			<point x="273" y="634" type="curve"/>
		</contour>
	</outline>
</glyph>
<glyph name="percent" format="2">
	<advance width="795"/>
	<unicode hex="0025"/>
	<note>
		percent
	</note>
	<outline>
		<contour>
			<point x="199" y="18" type="curve" smooth="yes"/>
			<point x="212" y="18"/>
			<point x="223" y="25"/>
			<point x="229" y="36" type="curve" smooth="yes"/>
			<point x="624" y="668" type="line" smooth="yes"/>
			<point x="629" y="675"/>
			<point x="631" y="683"/>
			<point x="631" y="690" type="curve" smooth="yes"/>
			<point x="631" y="709"/>
			<point x="617" y="720"/>
			<point x="597" y="720" type="curve" smooth="yes"/>
			<point x="584" y="720"/>
			<point x="575" y="715"/>
			<point x="568" y="705" type="curve" smooth="yes"/>
			<point x="171" y="69" type="line" smooth="yes"/>
			<point x="168" y="64"/>
			<point x="166" y="57"/>
			<point x="166" y="51" type="curve" smooth="yes"/>
			<point x="166" y="33"/>
			<point x="183" y="18"/>
		</contour>
		<contour>
			<point x="199" y="377" type="curve" smooth="yes"/>
			<point x="300" y="377"/>
			<point x="357" y="451"/>
			<point x="357" y="552" type="curve" smooth="yes"/>
			<point x="357" y="654"/>
			<point x="300" y="728"/>
			<point x="199" y="728" type="curve" smooth="yes"/>
			<point x="99" y="728"/>
			<point x="41" y="654"/>
			<point x="41" y="552" type="curve" smooth="yes"/>
			<point x="41" y="451"/>
			<point x="99" y="377"/>
		</contour>
		<contour>
			<point x="199" y="442" type="curve" smooth="yes"/>
			<point x="146" y="442"/>
			<point x="111" y="485"/>
			<point x="111" y="552" type="curve" smooth="yes"/>
			<point x="111" y="620"/>
			<point x="146" y="663"/>
			<point x="199" y="663" type="curve" smooth="yes"/>
			<point x="252" y="663"/>
			<point x="287" y="620"/>
			<point x="287" y="552" type="curve" smooth="yes"/>
			<point x="287" y="485"/>
			<point x="252" y="442"/>
		</contour>
		<contour>
			<point x="596" y="10" type="curve" smooth="yes"/>
			<point x="696" y="10"/>
			<point x="754" y="85"/>
			<point x="754" y="186" type="curve" smooth="yes"/>
			<point x="754" y="288"/>
			<point x="696" y="362"/>
			<point x="596" y="362" type="curve" smooth="yes"/>
			<point x="495" y="362"/>
			<point x="438" y="288"/>
			<point x="438" y="186" type="curve" smooth="yes"/>
			<point x="438" y="85"/>
			<point x="495" y="10"/>
		</contour>
		<contour>
			<point x="596" y="76" type="curve" smooth="yes"/>
			<point x="543" y="76"/>
			<point x="508" y="119"/>
			<point x="508" y="186" type="curve" smooth="yes"/>
			<point x="508" y="254"/>
			<point x="543" y="297"/>
			<point x="596" y="297" type="curve" smooth="yes"/>
			<point x="648" y="297"/>
			<point x="684" y="254"/>
			<point x="684" y="186" type="curve" smooth="yes"/>
			<point x="684" y="119"/>
			<point x="648" y="76"/>
		</contour>
	</outline>
</glyph>
<glyph name="ampersand" format="2">
	<advance width="715"/>
	<unicode hex="0026"/>
	<note>
		ampersand
	</note>
	<outline>
		<contour>
			<point x="309" y="18" type="curve" smooth="yes"/>
			<point x="384" y="18"/>
			<point x="453" y="48"/>
			<point x="509" y="94" type="curve"/>
			<point x="573" y="32" type="line" smooth="yes"/>
			<point x="582" y="24"/>
			<point x="592" y="20"/>
			<point x="604" y="20" type="curve" smooth="yes"/>
			<point x="629" y="20"/>
			<point x="646" y="39"/>
			<point x="646" y="61" type="curve" smooth="yes"/>
			<point x="646" y="76"/>
			<point x="641" y="84"/>
			<point x="630" y="93" type="curve" smooth="yes"/>
			<point x="564" y="155" type="line"/>
			<point x="583" y="180"/>
			<point x="599" y="207"/>
			<point x="611" y="235" type="curve" smooth="yes"/>
			<point x="614" y="242"/>
			<point x="616" y="248"/>
			<point x="616" y="255" type="curve" smooth="yes"/>
			<point x="616" y="279"/>
			<point x="598" y="296"/>
			<point x="574" y="296" type="curve" smooth="yes"/>
			<point x="557" y="296"/>
			<point x="542" y="285"/>
			<point x="535" y="270" type="curve" smooth="yes"/>
			<point x="522" y="245"/>
			<point x="513" y="225"/>
			<point x="504" y="213" type="curve"/>
			<point x="301" y="404" type="line" smooth="yes"/>
			<point x="245" y="456"/>
			<point x="225" y="477"/>
			<point x="213" y="505" type="curve" smooth="yes"/>
			<point x="206" y="519"/>
			<point x="203" y="536"/>
			<point x="203" y="554" type="curve" smooth="yes"/>
			<point x="203" y="602"/>
			<point x="241" y="643"/>
			<point x="307" y="643" type="curve" smooth="yes"/>
			<point x="335" y="643"/>
			<point x="365" y="635"/>
			<point x="398" y="618" type="curve" smooth="yes"/>
			<point x="405" y="615"/>
			<point x="411" y="613"/>
			<point x="416" y="613" type="curve" smooth="yes"/>
			<point x="437" y="613"/>
			<point x="451" y="630"/>
			<point x="451" y="648" type="curve" smooth="yes"/>
			<point x="451" y="660"/>
			<point x="442" y="674"/>
			<point x="434" y="678" type="curve"/>
			<point x="390" y="707"/>
			<point x="347" y="721"/>
			<point x="303" y="721" type="curve" smooth="yes"/>
			<point x="229" y="721"/>
			<point x="171" y="688"/>
			<point x="142" y="635" type="curve" smooth="yes"/>
			<point x="127" y="609"/>
			<point x="119" y="581"/>
			<point x="119" y="550" type="curve" smooth="yes"/>
			<point x="119" y="494"/>
			<point x="140" y="455"/>
			<point x="179" y="408" type="curve"/>
			<point x="124" y="373"/>
			<point x="68" y="309"/>
			<point x="68" y="220" type="curve" smooth="yes"/>
			<point x="68" y="151"/>
			<point x="101" y="86"/>
			<point x="173" y="48" type="curve" smooth="yes"/>
			<point x="209" y="28"/>
			<point x="254" y="18"/>
		</contour>
		<contour>
			<point x="301" y="95" type="curve" smooth="yes"/>
			<point x="217" y="95"/>
			<point x="154" y="148"/>
			<point x="154" y="217" type="curve" smooth="yes"/>
			<point x="154" y="278"/>
			<point x="189" y="324"/>
			<point x="233" y="352" type="curve"/>
			<point x="449" y="149" type="line"/>
			<point x="404" y="113"/>
			<point x="354" y="95"/>
		</contour>
	</outline>
</glyph>
<glyph name="quotesingle" format="2">
	<advance width="217"/>
	<unicode hex="0027"/>
	<note>
		quotesingle
	</note>
	<outline>
		<contour>
			<point x="108" y="508" type="curve" smooth="yes"/>
			<point x="124" y="508"/>
			<point x="135" y="519"/>
			<point x="138" y="534" type="curve" smooth="yes"/>
			<point x="148" y="588"/>
			<point x="159" y="660"/>
			<point x="159" y="710" type="curve" smooth="yes"/>
			<point x="159" y="738"/>
			<point x="136" y="759"/>
			<point x="108" y="759" type="curve" smooth="yes"/>
			<point x="81" y="759"/>
			<point x="58" y="738"/>
			<point x="58" y="710" type="curve" smooth="yes"/>
			<point x="58" y="660"/>
			<point x="68" y="588"/>
			<point x="79" y="534" type="curve" smooth="yes"/>
			<point x="82" y="519"/>
			<point x="93" y="508"/>
		</contour>
	</outline>
</glyph>
<glyph name="parenleft" format="2">
	<advance width="305"/>
	<unicode hex="0028"/>
	<note>
		parenleft
	</note>
	<outline>
		<contour>
			<point x="220" y="-122" type="curve" smooth="yes"/>
			<point x="240" y="-122"/>
			<point x="260" y="-106"/>
			<point x="260" y="-83" type="curve" smooth="yes"/>
			<point x="260" y="-75"/>
			<point x="257" y="-68"/>
			<point x="254" y="-61" type="curve"/>
			<point x="183" y="56"/>
			<point x="140" y="191"/>
			<point x="140" y="329" type="curve" smooth="yes"/>
			<point x="140" y="467"/>
			<point x="183" y="601"/>
			<point x="254" y="718" type="curve"/>
			<point x="257" y="725"/>
			<point x="260" y="733"/>
			<point x="260" y="741" type="curve" smooth="yes"/>
			<point x="260" y="763"/>
			<point x="240" y="780"/>
			<point x="220" y="780" type="curve" smooth="yes"/>
			<point x="204" y="780"/>
			<point x="197" y="775"/>
			<point x="187" y="762" type="curve" smooth="yes"/>
			<point x="98" y="656"/>
			<point x="49" y="501"/>
			<point x="49" y="329" type="curve" smooth="yes"/>
			<point x="49" y="157"/>
			<point x="98" y="2"/>
			<point x="187" y="-105" type="curve" smooth="yes"/>
			<point x="197" y="-117"/>
			<point x="204" y="-122"/>
		</contour>
	</outline>
</glyph>
<glyph name="parenright" format="2">
	<advance width="305"/>
	<unicode hex="0029"/>
	<note>
		parenright
	</note>
	<outline>
		<contour>
			<point x="86" y="-122" type="curve" smooth="yes"/>
			<point x="102" y="-122"/>
			<point x="108" y="-117"/>
			<point x="119" y="-105" type="curve" smooth="yes"/>
			<point x="208" y="2"/>
			<point x="257" y="157"/>
			<point x="257" y="329" type="curve" smooth="yes"/>
			<point x="257" y="501"/>
			<point x="208" y="656"/>
			<point x="119" y="762" type="curve" smooth="yes"/>
			<point x="108" y="775"/>
			<point x="102" y="780"/>
			<point x="86" y="780" type="curve" smooth="yes"/>
			<point x="65" y="780"/>
			<point x="46" y="763"/>
			<point x="46" y="741" type="curve" smooth="yes"/>
			<point x="46" y="733"/>
			<point x="49" y="725"/>
			<point x="52" y="718" type="curve"/>
			<point x="123" y="601"/>
			<point x="166" y="467"/>
			<point x="166" y="329" type="curve" smooth="yes"/>
			<point x="166" y="191"/>
			<point x="123" y="56"/>
			<point x="52" y="-61" type="curve"/>
			<point x="49" y="-68"/>
			<point x="46" y="-75"/>
			<point x="46" y="-83" type="curve" smooth="yes"/>
			<point x="46" y="-106"/>
			<point x="65" y="-122"/>
		</contour>
	</outline>
</glyph>
<glyph name="asterisk" format="2">
	<advance width="407"/>
	<unicode hex="002A"/>
	<note>
		asterisk
	</note>
	<outline>
		<contour>
			<point x="203" y="403" type="curve" smooth="yes"/>
			<point x="219" y="403"/>
			<point x="233" y="416"/>
			<point x="233" y="432" type="curve" smooth="yes"/>
			<point x="233" y="435"/>
			<point x="229" y="468"/>
			<point x="218" y="534" type="curve"/>
			<point x="226" y="528"/>
			<point x="232" y="522"/>
			<point x="238" y="517" type="curve" smooth="yes"/>
			<point x="286" y="478"/>
			<point x="296" y="470"/>
			<point x="299" y="469" type="curve" smooth="yes"/>
			<point x="303" y="467"/>
			<point x="308" y="467"/>
			<point x="312" y="467" type="curve" smooth="yes"/>
			<point x="323" y="467"/>
			<point x="332" y="472"/>
			<point x="339" y="481" type="curve"/>
			<point x="342" y="487"/>
			<point x="343" y="492"/>
			<point x="343" y="497" type="curve" smooth="yes"/>
			<point x="343" y="508"/>
			<point x="338" y="516"/>
			<point x="328" y="522" type="curve"/>
			<point x="233" y="559" type="line"/>
			<point x="328" y="596" type="line"/>
			<point x="337" y="602"/>
			<point x="343" y="611"/>
			<point x="343" y="623" type="curve" smooth="yes"/>
			<point x="343" y="628"/>
			<point x="342" y="633"/>
			<point x="339" y="638" type="curve" smooth="yes"/>
			<point x="332" y="648"/>
			<point x="324" y="653"/>
			<point x="313" y="653" type="curve" smooth="yes"/>
			<point x="307" y="653"/>
			<point x="302" y="652"/>
			<point x="298" y="649" type="curve" smooth="yes"/>
			<point x="296" y="648"/>
			<point x="286" y="640"/>
			<point x="238" y="601" type="curve" smooth="yes"/>
			<point x="232" y="596"/>
			<point x="226" y="591"/>
			<point x="218" y="585" type="curve"/>
			<point x="229" y="650"/>
			<point x="233" y="683"/>
			<point x="233" y="686" type="curve" smooth="yes"/>
			<point x="233" y="703"/>
			<point x="219" y="716"/>
			<point x="203" y="716" type="curve" smooth="yes"/>
			<point x="188" y="716"/>
			<point x="173" y="703"/>
			<point x="173" y="686" type="curve" smooth="yes"/>
			<point x="173" y="683"/>
			<point x="178" y="650"/>
			<point x="188" y="585" type="curve"/>
			<point x="181" y="591"/>
			<point x="174" y="596"/>
			<point x="168" y="601" type="curve" smooth="yes"/>
			<point x="120" y="640"/>
			<point x="110" y="648"/>
			<point x="107" y="649" type="curve"/>
			<point x="104" y="651"/>
			<point x="100" y="653"/>
			<point x="94" y="653" type="curve" smooth="yes"/>
			<point x="82" y="653"/>
			<point x="74" y="648"/>
			<point x="67" y="638" type="curve" smooth="yes"/>
			<point x="64" y="633"/>
			<point x="63" y="628"/>
			<point x="63" y="622" type="curve" smooth="yes"/>
			<point x="63" y="611"/>
			<point x="68" y="602"/>
			<point x="78" y="596" type="curve"/>
			<point x="173" y="559" type="line"/>
			<point x="78" y="522" type="line"/>
			<point x="67" y="516"/>
			<point x="63" y="508"/>
			<point x="63" y="498" type="curve" smooth="yes"/>
			<point x="63" y="492"/>
			<point x="64" y="487"/>
			<point x="67" y="481" type="curve"/>
			<point x="74" y="472"/>
			<point x="83" y="467"/>
			<point x="95" y="467" type="curve" smooth="yes"/>
			<point x="99" y="467"/>
			<point x="104" y="467"/>
			<point x="107" y="469" type="curve"/>
			<point x="110" y="470"/>
			<point x="120" y="478"/>
			<point x="168" y="517" type="curve" smooth="yes"/>
			<point x="188" y="534" type="line"/>
			<point x="178" y="468"/>
			<point x="173" y="435"/>
			<point x="173" y="432" type="curve" smooth="yes"/>
			<point x="173" y="416"/>
			<point x="188" y="403"/>
		</contour>
	</outline>
</glyph>
<glyph name="plus" format="2">
  <advance width="549"/>
  <unicode hex="002B"/>
  <note>
plus
</note>
  <outline>
    <contour>
      <point x="274" y="101" type="curve" smooth="yes"/>
      <point x="297" y="101"/>
      <point x="313" y="119"/>
      <point x="313" y="140" type="curve" smooth="yes"/>
      <point x="313" y="299" type="line"/>
      <point x="472" y="299" type="line" smooth="yes"/>
      <point x="494" y="299"/>
      <point x="511" y="316"/>
      <point x="511" y="337" type="curve" smooth="yes"/>
      <point x="511" y="359"/>
      <point x="494" y="376"/>
      <point x="472" y="376" type="curve" smooth="yes"/>
      <point x="313" y="376" type="line"/>
      <point x="313" y="535" type="line" smooth="yes"/>
      <point x="313" y="558"/>
      <point x="297" y="574"/>
      <point x="274" y="574" type="curve" smooth="yes"/>
      <point x="254" y="574"/>
      <point x="235" y="558"/>
      <point x="235" y="535" type="curve" smooth="yes"/>
      <point x="235" y="376" type="line"/>
      <point x="76" y="376" type="line" smooth="yes"/>
      <point x="56" y="376"/>
      <point x="38" y="359"/>
      <point x="38" y="337" type="curve" smooth="yes"/>
      <point x="38" y="316"/>
      <point x="56" y="299"/>
      <point x="76" y="299" type="curve" smooth="yes"/>
      <point x="235" y="299" type="line"/>
      <point x="235" y="140" type="line" smooth="yes"/>
      <point x="235" y="119"/>
      <point x="254" y="101"/>
    </contour>
  </outline>
</glyph>
<glyph name="period" format="2">
	<advance width="254"/>
	<unicode hex="002E"/>
	<note>
		period
	</note>
	<outline>
		<contour>
			<point x="122" y="25" type="curve" smooth="yes"/>
			<point x="132" y="25" type="line" smooth="yes"/>
			<point x="162" y="25"/>
			<point x="188" y="50"/>
			<point x="188" y="81" type="curve" smooth="yes"/>
			<point x="188" y="87" type="line" smooth="yes"/>
			<point x="188" y="117"/>
			<point x="162" y="142"/>
			<point x="132" y="142" type="curve" smooth="yes"/>
			<point x="122" y="142" type="line" smooth="yes"/>
			<point x="92" y="142"/>
			<point x="66" y="117"/>
			<point x="66" y="87" type="curve" smooth="yes"/>
			<point x="66" y="81" type="line" smooth="yes"/>
			<point x="66" y="50"/>
			<point x="92" y="25"/>
		</contour>
	</outline>
</glyph>
<glyph name="slash" format="2">
	<advance width="433"/>
	<unicode hex="002F"/>
	<note>
		slash
	</note>
	<outline>
		<contour>
			<point x="87" y="-65" type="curve" smooth="yes"/>
			<point x="106" y="-65"/>
			<point x="121" y="-53"/>
			<point x="126" y="-36" type="curve" smooth="yes"/>
			<point x="385" y="720" type="line" smooth="yes"/>
			<point x="387" y="726"/>
			<point x="388" y="731"/>
			<point x="388" y="735" type="curve" smooth="yes"/>
			<point x="388" y="758"/>
			<point x="371" y="776"/>
			<point x="347" y="776" type="curve" smooth="yes"/>
			<point x="327" y="776"/>
			<point x="313" y="764"/>
			<point x="308" y="748" type="curve" smooth="yes"/>
			<point x="49" y="-9" type="line" smooth="yes"/>
			<point x="47" y="-15"/>
			<point x="46" y="-20"/>
			<point x="46" y="-24" type="curve" smooth="yes"/>
			<point x="46" y="-46"/>
			<point x="63" y="-65"/>
		</contour>
	</outline>
</glyph>
<glyph name="zero" format="2">
	<advance width="613"/>
	<unicode hex="0030"/>
	<note>
		zero
	</note>
	<outline>
		<contour>
			<point x="307" y="18" type="curve" smooth="yes"/>
			<point x="475" y="18"/>
			<point x="572" y="149"/>
			<point x="572" y="370" type="curve" smooth="yes"/>
			<point x="572" y="591"/>
			<point x="475" y="721"/>
			<point x="307" y="721" type="curve" smooth="yes"/>
			<point x="134" y="721"/>
			<point x="41" y="585"/>
			<point x="41" y="370" type="curve" smooth="yes"/>
			<point x="41" y="155"/>
			<point x="134" y="18"/>
		</contour>
		<contour>
			<point x="307" y="102" type="curve" smooth="yes"/>
			<point x="196" y="102"/>
			<point x="132" y="199"/>
			<point x="132" y="370" type="curve" smooth="yes"/>
			<point x="132" y="540"/>
			<point x="196" y="636"/>
			<point x="307" y="636" type="curve" smooth="yes"/>
			<point x="417" y="636"/>
			<point x="481" y="540"/>
			<point x="481" y="370" type="curve" smooth="yes"/>
			<point x="481" y="199"/>
			<point x="417" y="102"/>
		</contour>
	</outline>
</glyph>
<glyph name="one" format="2">
	<advance width="613"/>
	<unicode hex="0031"/>
	<note>
		one
	</note>
	<outline>
		<contour>
			<point x="173" y="28" type="curve" smooth="yes"/>
			<point x="475" y="28" type="line" smooth="yes"/>
			<point x="498" y="28"/>
			<point x="518" y="46"/>
			<point x="518" y="70" type="curve" smooth="yes"/>
			<point x="518" y="93"/>
			<point x="498" y="113"/>
			<point x="475" y="113" type="curve" smooth="yes"/>
			<point x="379" y="113" type="line"/>
			<point x="379" y="664" type="line" smooth="yes"/>
			<point x="379" y="690"/>
			<point x="357" y="712"/>
			<point x="331" y="712" type="curve" smooth="yes"/>
			<point x="311" y="712" type="line" smooth="yes"/>
			<point x="302" y="712"/>
			<point x="291" y="710"/>
			<point x="283" y="705" type="curve" smooth="yes"/>
			<point x="150" y="635" type="line" smooth="yes"/>
			<point x="133" y="627"/>
			<point x="124" y="613"/>
			<point x="124" y="594" type="curve" smooth="yes"/>
			<point x="124" y="570"/>
			<point x="143" y="551"/>
			<point x="167" y="551" type="curve" smooth="yes"/>
			<point x="173" y="551"/>
			<point x="181" y="553"/>
			<point x="189" y="557" type="curve" smooth="yes"/>
			<point x="274" y="598" type="line" smooth="yes"/>
			<point x="283" y="603"/>
			<point x="288" y="599"/>
			<point x="288" y="591" type="curve" smooth="yes"/>
			<point x="288" y="113" type="line"/>
			<point x="173" y="113" type="line" smooth="yes"/>
			<point x="148" y="113"/>
			<point x="131" y="93"/>
			<point x="131" y="70" type="curve" smooth="yes"/>
			<point x="131" y="47"/>
			<point x="149" y="28"/>
		</contour>
	</outline>
</glyph>
<glyph name="two" format="2">
  <advance height="1000" width="613"/>
  <unicode hex="0032"/>
  <note>
two
</note>
  <outline>
    <contour>
      <point x="115" y="-1" type="curve" smooth="yes"/>
      <point x="492" y="-1" type="line" smooth="yes"/>
      <point x="516" y="-1"/>
      <point x="535" y="17"/>
      <point x="535" y="41" type="curve" smooth="yes"/>
      <point x="535" y="64"/>
      <point x="516" y="84"/>
      <point x="492" y="84" type="curve" smooth="yes"/>
      <point x="154" y="84" type="line"/>
      <point x="173" y="122"/>
      <point x="215" y="152"/>
      <point x="305" y="213" type="curve" smooth="yes"/>
      <point x="405" y="278"/>
      <point x="463" y="319"/>
      <point x="508" y="386" type="curve" smooth="yes"/>
      <point x="530" y="418"/>
      <point x="541" y="455"/>
      <point x="541" y="493" type="curve" smooth="yes"/>
      <point x="541" y="571"/>
      <point x="499" y="635"/>
      <point x="430" y="668" type="curve" smooth="yes"/>
      <point x="396" y="685"/>
      <point x="357" y="692"/>
      <point x="315" y="692" type="curve" smooth="yes"/>
      <point x="238" y="692"/>
      <point x="165" y="676"/>
      <point x="99" y="643" type="curve" smooth="yes"/>
      <point x="83" y="634"/>
      <point x="76" y="622"/>
      <point x="76" y="605" type="curve" smooth="yes"/>
      <point x="76" y="583"/>
      <point x="94" y="566"/>
      <point x="114" y="566" type="curve" smooth="yes"/>
      <point x="120" y="566"/>
      <point x="126" y="568"/>
      <point x="133" y="571" type="curve" smooth="yes"/>
      <point x="186" y="595"/>
      <point x="240" y="606"/>
      <point x="300" y="606" type="curve" smooth="yes"/>
      <point x="401" y="606"/>
      <point x="453" y="564"/>
      <point x="453" y="486" type="curve" smooth="yes"/>
      <point x="453" y="444"/>
      <point x="425" y="403"/>
      <point x="371" y="363" type="curve" smooth="yes"/>
      <point x="348" y="346"/>
      <point x="316" y="324"/>
      <point x="276" y="299" type="curve" smooth="yes"/>
      <point x="184" y="239"/>
      <point x="132" y="203"/>
      <point x="93" y="146" type="curve" smooth="yes"/>
      <point x="72" y="116"/>
      <point x="63" y="85"/>
      <point x="63" y="51" type="curve" smooth="yes"/>
      <point x="63" y="20"/>
      <point x="85" y="-1"/>
    </contour>
  </outline>
</glyph>
<glyph name="three" format="2">
  <advance width="613"/>
  <unicode hex="0033"/>
  <note>
three
</note>
  <outline>
    <contour>
      <point x="287" y="-11" type="curve" smooth="yes"/>
      <point x="436" y="-11"/>
      <point x="541" y="58"/>
      <point x="541" y="179" type="curve" smooth="yes"/>
      <point x="541" y="284"/>
      <point x="474" y="335"/>
      <point x="400" y="353" type="curve"/>
      <point x="468" y="378"/>
      <point x="517" y="427"/>
      <point x="517" y="516" type="curve" smooth="yes"/>
      <point x="517" y="629"/>
      <point x="430" y="692"/>
      <point x="280" y="692" type="curve" smooth="yes"/>
      <point x="213" y="692"/>
      <point x="148" y="676"/>
      <point x="87" y="643" type="curve" smooth="yes"/>
      <point x="73" y="635"/>
      <point x="66" y="623"/>
      <point x="66" y="608" type="curve" smooth="yes"/>
      <point x="66" y="587"/>
      <point x="84" y="571"/>
      <point x="104" y="571" type="curve" smooth="yes"/>
      <point x="110" y="571"/>
      <point x="116" y="573"/>
      <point x="121" y="575" type="curve" smooth="yes"/>
      <point x="167" y="597"/>
      <point x="217" y="607"/>
      <point x="272" y="607" type="curve" smooth="yes"/>
      <point x="371" y="607"/>
      <point x="426" y="570"/>
      <point x="426" y="507" type="curve" smooth="yes"/>
      <point x="426" y="431"/>
      <point x="357" y="390"/>
      <point x="226" y="390" type="curve" smooth="yes"/>
      <point x="220" y="390" type="line" smooth="yes"/>
      <point x="197" y="390"/>
      <point x="178" y="370"/>
      <point x="178" y="348" type="curve" smooth="yes"/>
      <point x="178" y="325"/>
      <point x="197" y="306"/>
      <point x="220" y="306" type="curve" smooth="yes"/>
      <point x="235" y="306" type="line" smooth="yes"/>
      <point x="379" y="306"/>
      <point x="450" y="265"/>
      <point x="450" y="184" type="curve" smooth="yes"/>
      <point x="450" y="106"/>
      <point x="372" y="76"/>
      <point x="271" y="76" type="curve" smooth="yes"/>
      <point x="214" y="76"/>
      <point x="162" y="86"/>
      <point x="115" y="104" type="curve" smooth="yes"/>
      <point x="110" y="106"/>
      <point x="104" y="108"/>
      <point x="97" y="108" type="curve" smooth="yes"/>
      <point x="73" y="108"/>
      <point x="57" y="89"/>
      <point x="57" y="66" type="curve" smooth="yes"/>
      <point x="57" y="48"/>
      <point x="66" y="35"/>
      <point x="83" y="28" type="curve" smooth="yes"/>
      <point x="146" y="2"/>
      <point x="215" y="-11"/>
    </contour>
  </outline>
</glyph>
<glyph name="four" format="2">
	<advance width="613"/>
	<unicode hex="0034"/>
	<note>
		four
	</note>
	<outline>
		<contour>
			<point x="423" y="23" type="curve" smooth="yes"/>
			<point x="447" y="23"/>
			<point x="469" y="43"/>
			<point x="469" y="68" type="curve" smooth="yes"/>
			<point x="469" y="200" type="line"/>
			<point x="542" y="200" type="line" smooth="yes"/>
			<point x="564" y="200"/>
			<point x="583" y="217"/>
			<point x="583" y="240" type="curve" smooth="yes"/>
			<point x="583" y="262"/>
			<point x="564" y="281"/>
			<point x="542" y="281" type="curve" smooth="yes"/>
			<point x="469" y="281" type="line"/>
			<point x="469" y="659" type="line" smooth="yes"/>
			<point x="469" y="691"/>
			<point x="445" y="717"/>
			<point x="411" y="717" type="curve" smooth="yes"/>
			<point x="392" y="717" type="line" smooth="yes"/>
			<point x="372" y="717"/>
			<point x="354" y="708"/>
			<point x="342" y="693" type="curve" smooth="yes"/>
			<point x="35" y="301" type="line" smooth="yes"/>
			<point x="27" y="291"/>
			<point x="23" y="279"/>
			<point x="23" y="265" type="curve" smooth="yes"/>
			<point x="23" y="257" type="line" smooth="yes"/>
			<point x="23" y="224"/>
			<point x="50" y="200"/>
			<point x="81" y="200" type="curve" smooth="yes"/>
			<point x="378" y="200" type="line"/>
			<point x="378" y="68" type="line" smooth="yes"/>
			<point x="378" y="44"/>
			<point x="398" y="23"/>
		</contour>
		<contour>
			<point x="139" y="281" type="line" smooth="yes"/>
			<point x="129" y="281"/>
			<point x="125" y="288"/>
			<point x="132" y="295" type="curve"/>
			<point x="364" y="593" type="line" smooth="yes"/>
			<point x="370" y="602"/>
			<point x="378" y="600"/>
			<point x="378" y="590" type="curve" smooth="yes"/>
			<point x="378" y="281" type="line"/>
		</contour>
	</outline>
</glyph>
<glyph name="five" format="2">
	<advance width="613"/>
	<unicode hex="0035"/>
	<note>
		five
	</note>
	<outline>
		<contour>
			<point x="290" y="18" type="curve" smooth="yes"/>
			<point x="467" y="18"/>
			<point x="559" y="108"/>
			<point x="559" y="240" type="curve" smooth="yes"/>
			<point x="559" y="327"/>
			<point x="522" y="395"/>
			<point x="454" y="433" type="curve" smooth="yes"/>
			<point x="419" y="452"/>
			<point x="377" y="462"/>
			<point x="330" y="462" type="curve" smooth="yes"/>
			<point x="271" y="462"/>
			<point x="217" y="449"/>
			<point x="166" y="423" type="curve"/>
			<point x="194" y="609" type="line" smooth="yes"/>
			<point x="196" y="622"/>
			<point x="204" y="627"/>
			<point x="216" y="627" type="curve" smooth="yes"/>
			<point x="479" y="627" type="line" smooth="yes"/>
			<point x="503" y="627"/>
			<point x="522" y="644"/>
			<point x="522" y="669" type="curve" smooth="yes"/>
			<point x="522" y="692"/>
			<point x="503" y="712"/>
			<point x="479" y="712" type="curve" smooth="yes"/>
			<point x="166" y="712" type="line" smooth="yes"/>
			<point x="138" y="712"/>
			<point x="117" y="691"/>
			<point x="113" y="662" type="curve" smooth="yes"/>
			<point x="69" y="402" type="line" smooth="yes"/>
			<point x="68" y="394"/>
			<point x="67" y="386"/>
			<point x="67" y="379" type="curve" smooth="yes"/>
			<point x="67" y="344"/>
			<point x="96" y="321"/>
			<point x="133" y="321" type="curve" smooth="yes"/>
			<point x="141" y="321"/>
			<point x="149" y="323"/>
			<point x="156" y="327" type="curve" smooth="yes"/>
			<point x="162" y="330"/>
			<point x="167" y="332"/>
			<point x="168" y="333" type="curve"/>
			<point x="212" y="360"/>
			<point x="263" y="375"/>
			<point x="317" y="375" type="curve" smooth="yes"/>
			<point x="411" y="375"/>
			<point x="468" y="325"/>
			<point x="468" y="245" type="curve" smooth="yes"/>
			<point x="468" y="145"/>
			<point x="402" y="108"/>
			<point x="278" y="108" type="curve" smooth="yes"/>
			<point x="227" y="108"/>
			<point x="175" y="122"/>
			<point x="122" y="149" type="curve" smooth="yes"/>
			<point x="115" y="152"/>
			<point x="108" y="154"/>
			<point x="102" y="154" type="curve" smooth="yes"/>
			<point x="78" y="154"/>
			<point x="62" y="135"/>
			<point x="62" y="111" type="curve" smooth="yes"/>
			<point x="62" y="92"/>
			<point x="68" y="84"/>
			<point x="81" y="75" type="curve" smooth="yes"/>
			<point x="142" y="37"/>
			<point x="211" y="18"/>
		</contour>
	</outline>
</glyph>
<glyph name="six" format="2">
	<advance width="613"/>
	<unicode hex="0036"/>
	<note>
		six
	</note>
	<outline>
		<contour>
			<point x="325" y="18" type="curve" smooth="yes"/>
			<point x="419" y="18"/>
			<point x="497" y="57"/>
			<point x="538" y="129" type="curve" smooth="yes"/>
			<point x="558" y="163"/>
			<point x="567" y="201"/>
			<point x="567" y="241" type="curve" smooth="yes"/>
			<point x="567" y="331"/>
			<point x="529" y="403"/>
			<point x="460" y="443" type="curve" smooth="yes"/>
			<point x="425" y="463"/>
			<point x="386" y="471"/>
			<point x="343" y="471" type="curve" smooth="yes"/>
			<point x="256" y="471"/>
			<point x="189" y="443"/>
			<point x="144" y="388" type="curve"/>
			<point x="151" y="514"/>
			<point x="202" y="633"/>
			<point x="348" y="633" type="curve" smooth="yes"/>
			<point x="394" y="633"/>
			<point x="438" y="624"/>
			<point x="478" y="605" type="curve" smooth="yes"/>
			<point x="482" y="603"/>
			<point x="488" y="602"/>
			<point x="494" y="602" type="curve" smooth="yes"/>
			<point x="518" y="602"/>
			<point x="535" y="623"/>
			<point x="535" y="643" type="curve" smooth="yes"/>
			<point x="535" y="658"/>
			<point x="526" y="673"/>
			<point x="514" y="679" type="curve" smooth="yes"/>
			<point x="466" y="704"/>
			<point x="414" y="721"/>
			<point x="341" y="721" type="curve" smooth="yes"/>
			<point x="207" y="721"/>
			<point x="122" y="641"/>
			<point x="85" y="534" type="curve" smooth="yes"/>
			<point x="66" y="480"/>
			<point x="57" y="425"/>
			<point x="57" y="369" type="curve" smooth="yes"/>
			<point x="57" y="135"/>
			<point x="146" y="18"/>
		</contour>
		<contour>
			<point x="326" y="103" type="curve" smooth="yes"/>
			<point x="226" y="103"/>
			<point x="166" y="162"/>
			<point x="148" y="282" type="curve"/>
			<point x="187" y="352"/>
			<point x="247" y="388"/>
			<point x="332" y="388" type="curve" smooth="yes"/>
			<point x="424" y="388"/>
			<point x="477" y="334"/>
			<point x="477" y="243" type="curve" smooth="yes"/>
			<point x="477" y="192"/>
			<point x="451" y="148"/>
			<point x="406" y="123" type="curve" smooth="yes"/>
			<point x="383" y="110"/>
			<point x="356" y="103"/>
		</contour>
	</outline>
</glyph>
<glyph name="seven" format="2">
	<advance width="613"/>
	<unicode hex="0037"/>
	<note>
		seven
	</note>
	<outline>
		<contour>
			<point x="225" y="23" type="curve" smooth="yes"/>
			<point x="241" y="23"/>
			<point x="260" y="33"/>
			<point x="268" y="49" type="curve" smooth="yes"/>
			<point x="545" y="616" type="line" smooth="yes"/>
			<point x="551" y="630"/>
			<point x="555" y="643"/>
			<point x="555" y="659" type="curve" smooth="yes"/>
			<point x="555" y="690"/>
			<point x="530" y="712"/>
			<point x="499" y="712" type="curve" smooth="yes"/>
			<point x="101" y="712" type="line" smooth="yes"/>
			<point x="76" y="712"/>
			<point x="58" y="691"/>
			<point x="58" y="668" type="curve" smooth="yes"/>
			<point x="58" y="644"/>
			<point x="77" y="625"/>
			<point x="101" y="625" type="curve" smooth="yes"/>
			<point x="438" y="625" type="line" smooth="yes"/>
			<point x="447" y="625"/>
			<point x="450" y="620"/>
			<point x="446" y="611" type="curve" smooth="yes"/>
			<point x="186" y="92" type="line" smooth="yes"/>
			<point x="182" y="85"/>
			<point x="180" y="77"/>
			<point x="180" y="68" type="curve" smooth="yes"/>
			<point x="180" y="44"/>
			<point x="200" y="23"/>
		</contour>
	</outline>
</glyph>
<glyph name="eight" format="2">
	<advance width="613"/>
	<unicode hex="0038"/>
	<note>
		eight
	</note>
	<outline>
		<contour>
			<point x="307" y="18" type="curve" smooth="yes"/>
			<point x="429" y="18"/>
			<point x="507" y="60"/>
			<point x="542" y="118" type="curve" smooth="yes"/>
			<point x="560" y="146"/>
			<point x="568" y="176"/>
			<point x="568" y="210" type="curve" smooth="yes"/>
			<point x="568" y="300"/>
			<point x="520" y="362"/>
			<point x="425" y="394" type="curve"/>
			<point x="490" y="418"/>
			<point x="536" y="468"/>
			<point x="536" y="543" type="curve" smooth="yes"/>
			<point x="536" y="598"/>
			<point x="508" y="659"/>
			<point x="438" y="695" type="curve" smooth="yes"/>
			<point x="404" y="713"/>
			<point x="360" y="721"/>
			<point x="307" y="721" type="curve" smooth="yes"/>
			<point x="200" y="721"/>
			<point x="131" y="681"/>
			<point x="101" y="626" type="curve" smooth="yes"/>
			<point x="85" y="599"/>
			<point x="77" y="572"/>
			<point x="77" y="543" type="curve" smooth="yes"/>
			<point x="77" y="468"/>
			<point x="123" y="418"/>
			<point x="188" y="394" type="curve"/>
			<point x="94" y="362"/>
			<point x="45" y="300"/>
			<point x="45" y="210" type="curve" smooth="yes"/>
			<point x="45" y="146"/>
			<point x="78" y="85"/>
			<point x="157" y="47" type="curve" smooth="yes"/>
			<point x="195" y="28"/>
			<point x="245" y="18"/>
		</contour>
		<contour>
			<point x="307" y="98" type="curve" smooth="yes"/>
			<point x="226" y="98"/>
			<point x="176" y="129"/>
			<point x="153" y="167" type="curve" smooth="yes"/>
			<point x="142" y="185"/>
			<point x="136" y="203"/>
			<point x="136" y="219" type="curve" smooth="yes"/>
			<point x="136" y="301"/>
			<point x="210" y="350"/>
			<point x="307" y="350" type="curve" smooth="yes"/>
			<point x="403" y="350"/>
			<point x="478" y="301"/>
			<point x="478" y="219" type="curve" smooth="yes"/>
			<point x="478" y="185"/>
			<point x="456" y="145"/>
			<point x="406" y="119" type="curve" smooth="yes"/>
			<point x="380" y="105"/>
			<point x="347" y="98"/>
		</contour>
		<contour>
			<point x="307" y="432" type="curve" smooth="yes"/>
			<point x="210" y="432"/>
			<point x="168" y="482"/>
			<point x="168" y="537" type="curve" smooth="yes"/>
			<point x="168" y="601"/>
			<point x="221" y="641"/>
			<point x="307" y="641" type="curve" smooth="yes"/>
			<point x="393" y="641"/>
			<point x="445" y="601"/>
			<point x="445" y="537" type="curve" smooth="yes"/>
			<point x="445" y="482"/>
			<point x="403" y="432"/>
		</contour>
	</outline>
</glyph>
<glyph name="less" format="2">
	<advance width="566"/>
	<unicode hex="003C"/>
	<note>
		less
	</note>
	<outline>
		<contour>
			<point x="475" y="85" type="curve" smooth="yes"/>
			<point x="497" y="85"/>
			<point x="515" y="102"/>
			<point x="515" y="125" type="curve" smooth="yes"/>
			<point x="515" y="141"/>
			<point x="503" y="156"/>
			<point x="487" y="163" type="curve" smooth="yes"/>
			<point x="138" y="318" type="line"/>
			<point x="487" y="473" type="line" smooth="yes"/>
			<point x="503" y="480"/>
			<point x="515" y="495"/>
			<point x="515" y="511" type="curve" smooth="yes"/>
			<point x="515" y="534"/>
			<point x="497" y="551"/>
			<point x="475" y="551" type="curve" smooth="yes"/>
			<point x="470" y="551"/>
			<point x="464" y="550"/>
			<point x="459" y="549" type="curve"/>
			<point x="69" y="374" type="line" smooth="yes"/>
			<point x="47" y="363"/>
			<point x="33" y="345"/>
			<point x="33" y="322" type="curve" smooth="yes"/>
			<point x="33" y="314" type="line" smooth="yes"/>
			<point x="33" y="291"/>
			<point x="47" y="273"/>
			<point x="69" y="262" type="curve" smooth="yes"/>
			<point x="459" y="88" type="line" smooth="yes"/>
			<point x="464" y="86"/>
			<point x="470" y="85"/>
		</contour>
	</outline>
</glyph>
<glyph name="equal" format="2">
	<advance width="695"/>
	<unicode hex="003D"/>
	<note>
		equal
	</note>
	<outline>
		<contour>
			<point x="109" y="423" type="curve" smooth="yes"/>
			<point x="586" y="423" type="line" smooth="yes"/>
			<point x="608" y="423"/>
			<point x="625" y="441"/>
			<point x="625" y="462" type="curve" smooth="yes"/>
			<point x="625" y="484"/>
			<point x="608" y="501"/>
			<point x="586" y="501" type="curve" smooth="yes"/>
			<point x="109" y="501" type="line" smooth="yes"/>
			<point x="89" y="501"/>
			<point x="70" y="484"/>
			<point x="70" y="462" type="curve" smooth="yes"/>
			<point x="70" y="441"/>
			<point x="89" y="423"/>
		</contour>
		<contour>
			<point x="109" y="204" type="curve" smooth="yes"/>
			<point x="586" y="204" type="line" smooth="yes"/>
			<point x="608" y="204"/>
			<point x="625" y="222"/>
			<point x="625" y="243" type="curve" smooth="yes"/>
			<point x="625" y="265"/>
			<point x="608" y="282"/>
			<point x="586" y="282" type="curve" smooth="yes"/>
			<point x="109" y="282" type="line" smooth="yes"/>
			<point x="89" y="282"/>
			<point x="70" y="265"/>
			<point x="70" y="243" type="curve" smooth="yes"/>
			<point x="70" y="222"/>
			<point x="89" y="204"/>
		</contour>
	</outline>
</glyph>
<glyph name="greater" format="2">
	<advance width="566"/>
	<unicode hex="003E"/>
	<note>
		greater
	</note>
	<outline>
		<contour>
			<point x="92" y="85" type="curve" smooth="yes"/>
			<point x="97" y="85"/>
			<point x="103" y="86"/>
			<point x="107" y="88" type="curve" smooth="yes"/>
			<point x="497" y="262" type="line" smooth="yes"/>
			<point x="520" y="273"/>
			<point x="533" y="291"/>
			<point x="533" y="314" type="curve" smooth="yes"/>
			<point x="533" y="322" type="line" smooth="yes"/>
			<point x="533" y="345"/>
			<point x="520" y="363"/>
			<point x="497" y="374" type="curve" smooth="yes"/>
			<point x="107" y="549" type="line"/>
			<point x="103" y="550"/>
			<point x="97" y="551"/>
			<point x="92" y="551" type="curve" smooth="yes"/>
			<point x="69" y="551"/>
			<point x="52" y="534"/>
			<point x="52" y="511" type="curve" smooth="yes"/>
			<point x="52" y="495"/>
			<point x="63" y="480"/>
			<point x="79" y="473" type="curve" smooth="yes"/>
			<point x="428" y="318" type="line"/>
			<point x="79" y="163" type="line" smooth="yes"/>
			<point x="63" y="156"/>
			<point x="52" y="141"/>
			<point x="52" y="125" type="curve" smooth="yes"/>
			<point x="52" y="102"/>
			<point x="69" y="85"/>
		</contour>
	</outline>
</glyph>
<glyph name="question" format="2">
	<advance width="485"/>
	<unicode hex="003F"/>
	<note>
		question
	</note>
	<outline>
		<contour>
			<point x="216" y="210" type="curve" smooth="yes"/>
			<point x="239" y="210"/>
			<point x="260" y="227"/>
			<point x="260" y="249" type="curve" smooth="yes"/>
			<point x="260" y="300"/>
			<point x="288" y="330"/>
			<point x="344" y="374" type="curve" smooth="yes"/>
			<point x="387" y="408"/>
			<point x="410" y="429"/>
			<point x="429" y="469" type="curve" smooth="yes"/>
			<point x="438" y="489"/>
			<point x="442" y="511"/>
			<point x="442" y="536" type="curve" smooth="yes"/>
			<point x="442" y="649"/>
			<point x="355" y="721"/>
			<point x="222" y="721" type="curve" smooth="yes"/>
			<point x="155" y="721"/>
			<point x="104" y="709"/>
			<point x="49" y="675" type="curve" smooth="yes"/>
			<point x="33" y="665"/>
			<point x="24" y="652"/>
			<point x="24" y="636" type="curve" smooth="yes"/>
			<point x="24" y="616"/>
			<point x="44" y="596"/>
			<point x="64" y="596" type="curve" smooth="yes"/>
			<point x="73" y="596"/>
			<point x="81" y="599"/>
			<point x="90" y="604" type="curve" smooth="yes"/>
			<point x="123" y="625"/>
			<point x="168" y="636"/>
			<point x="214" y="636" type="curve" smooth="yes"/>
			<point x="308" y="636"/>
			<point x="353" y="601"/>
			<point x="353" y="531" type="curve" smooth="yes"/>
			<point x="353" y="495"/>
			<point x="330" y="471"/>
			<point x="280" y="432" type="curve" smooth="yes"/>
			<point x="233" y="394"/>
			<point x="208" y="371"/>
			<point x="188" y="326" type="curve" smooth="yes"/>
			<point x="177" y="303"/>
			<point x="172" y="278"/>
			<point x="172" y="249" type="curve" smooth="yes"/>
			<point x="172" y="226"/>
			<point x="192" y="210"/>
		</contour>
		<contour>
			<point x="214" y="24" type="curve" smooth="yes"/>
			<point x="246" y="24"/>
			<point x="273" y="51"/>
			<point x="273" y="84" type="curve" smooth="yes"/>
			<point x="273" y="115"/>
			<point x="246" y="142"/>
			<point x="214" y="142" type="curve" smooth="yes"/>
			<point x="183" y="142"/>
			<point x="155" y="115"/>
			<point x="155" y="84" type="curve" smooth="yes"/>
			<point x="155" y="51"/>
			<point x="183" y="24"/>
		</contour>
	</outline>
</glyph>
<glyph name="at" format="2">
	<advance width="877"/>
	<unicode hex="0040"/>
	<note>
		at
	</note>
	<outline>
		<contour>
			<point x="391" y="-53" type="curve" smooth="yes"/>
			<point x="471" y="-53"/>
			<point x="546" y="-36"/>
			<point x="616" y="-1" type="curve" smooth="yes"/>
			<point x="625" y="3"/>
			<point x="631" y="13"/>
			<point x="631" y="22" type="curve" smooth="yes"/>
			<point x="631" y="35"/>
			<point x="620" y="47"/>
			<point x="605" y="47" type="curve" smooth="yes"/>
			<point x="603" y="47"/>
			<point x="599" y="46"/>
			<point x="595" y="45" type="curve"/>
			<point x="520" y="14"/>
			<point x="470" y="0"/>
			<point x="391" y="0" type="curve" smooth="yes"/>
			<point x="270" y="0"/>
			<point x="181" y="60"/>
			<point x="135" y="147" type="curve" smooth="yes"/>
			<point x="111" y="192"/>
			<point x="100" y="238"/>
			<point x="100" y="285" type="curve" smooth="yes"/>
			<point x="100" y="414"/>
			<point x="172" y="532"/>
			<point x="283" y="598" type="curve" smooth="yes"/>
			<point x="339" y="632"/>
			<point x="398" y="648"/>
			<point x="462" y="648" type="curve" smooth="yes"/>
			<point x="568" y="648"/>
			<point x="673" y="603"/>
			<point x="734" y="517" type="curve" smooth="yes"/>
			<point x="765" y="474"/>
			<point x="780" y="423"/>
			<point x="780" y="363" type="curve" smooth="yes"/>
			<point x="780" y="240"/>
			<point x="733" y="169"/>
			<point x="655" y="169" type="curve" smooth="yes"/>
			<point x="626" y="169"/>
			<point x="607" y="192"/>
			<point x="607" y="231" type="curve" smooth="yes"/>
			<point x="607" y="250"/>
			<point x="609" y="270"/>
			<point x="614" y="295" type="curve" smooth="yes"/>
			<point x="646" y="480" type="line"/>
			<point x="647" y="491" type="line" smooth="yes"/>
			<point x="647" y="511"/>
			<point x="632" y="528"/>
			<point x="611" y="528" type="curve" smooth="yes"/>
			<point x="593" y="528"/>
			<point x="577" y="514"/>
			<point x="574" y="497" type="curve" smooth="yes"/>
			<point x="571" y="482" type="line"/>
			<point x="537" y="515"/>
			<point x="495" y="531"/>
			<point x="447" y="531" type="curve" smooth="yes"/>
			<point x="368" y="531"/>
			<point x="291" y="492"/>
			<point x="248" y="421" type="curve" smooth="yes"/>
			<point x="226" y="383"/>
			<point x="215" y="342"/>
			<point x="215" y="293" type="curve" smooth="yes"/>
			<point x="215" y="191"/>
			<point x="277" y="120"/>
			<point x="382" y="120" type="curve" smooth="yes"/>
			<point x="444" y="120"/>
			<point x="502" y="143"/>
			<point x="542" y="192" type="curve"/>
			<point x="551" y="153"/>
			<point x="588" y="121"/>
			<point x="652" y="121" type="curve" smooth="yes"/>
			<point x="735" y="121"/>
			<point x="791" y="173"/>
			<point x="816" y="247" type="curve" smooth="yes"/>
			<point x="829" y="282"/>
			<point x="835" y="321"/>
			<point x="835" y="363" type="curve" smooth="yes"/>
			<point x="835" y="493"/>
			<point x="763" y="600"/>
			<point x="648" y="659" type="curve" smooth="yes"/>
			<point x="590" y="688"/>
			<point x="527" y="702"/>
			<point x="462" y="702" type="curve" smooth="yes"/>
			<point x="314" y="702"/>
			<point x="179" y="620"/>
			<point x="104" y="492" type="curve" smooth="yes"/>
			<point x="65" y="428"/>
			<point x="47" y="358"/>
			<point x="47" y="285" type="curve" smooth="yes"/>
			<point x="47" y="167"/>
			<point x="105" y="55"/>
			<point x="210" y="-7" type="curve" smooth="yes"/>
			<point x="263" y="-37"/>
			<point x="324" y="-53"/>
		</contour>
		<contour>
			<point x="403" y="189" type="curve" smooth="yes"/>
			<point x="334" y="189"/>
			<point x="292" y="231"/>
			<point x="292" y="302" type="curve" smooth="yes"/>
			<point x="292" y="365"/>
			<point x="322" y="416"/>
			<point x="373" y="441" type="curve" smooth="yes"/>
			<point x="396" y="454"/>
			<point x="422" y="460"/>
			<point x="451" y="460" type="curve" smooth="yes"/>
			<point x="497" y="460"/>
			<point x="533" y="444"/>
			<point x="561" y="416" type="curve"/>
			<point x="545" y="325" type="line" smooth="yes"/>
			<point x="529" y="234"/>
			<point x="481" y="189"/>
		</contour>
	</outline>
</glyph>
<glyph name="B" format="2">
  <advance width="677"/>
  <unicode hex="0042"/>
  <note>
B
</note>
  <outline>
    <contour>
      <point x="139" y="-1" type="curve" smooth="yes"/>
      <point x="375" y="-1" type="line" smooth="yes"/>
      <point x="541" y="-1"/>
      <point x="627" y="65"/>
      <point x="627" y="191" type="curve" smooth="yes"/>
      <point x="627" y="274"/>
      <point x="572" y="330"/>
      <point x="495" y="354" type="curve"/>
      <point x="550" y="380"/>
      <point x="589" y="431"/>
      <point x="589" y="505" type="curve" smooth="yes"/>
      <point x="589" y="616"/>
      <point x="506" y="683"/>
      <point x="369" y="683" type="curve" smooth="yes"/>
      <point x="139" y="683" type="line" smooth="yes"/>
      <point x="113" y="683"/>
      <point x="94" y="661"/>
      <point x="94" y="637" type="curve" smooth="yes"/>
      <point x="94" y="44" type="line" smooth="yes"/>
      <point x="94" y="20"/>
      <point x="114" y="-1"/>
    </contour>
    <contour>
      <point x="196" y="84" type="line" smooth="yes"/>
      <point x="188" y="84"/>
      <point x="185" y="88"/>
      <point x="185" y="96" type="curve" smooth="yes"/>
      <point x="185" y="306" type="line"/>
      <point x="367" y="306" type="line" smooth="yes"/>
      <point x="482" y="306"/>
      <point x="539" y="269"/>
      <point x="539" y="195" type="curve" smooth="yes"/>
      <point x="539" y="124"/>
      <point x="492" y="84"/>
      <point x="366" y="84" type="curve" smooth="yes"/>
    </contour>
    <contour>
      <point x="185" y="388" type="line"/>
      <point x="185" y="586" type="line" smooth="yes"/>
      <point x="185" y="594"/>
      <point x="188" y="598"/>
      <point x="196" y="598" type="curve" smooth="yes"/>
      <point x="362" y="598" type="line" smooth="yes"/>
      <point x="449" y="598"/>
      <point x="502" y="559"/>
      <point x="502" y="498" type="curve" smooth="yes"/>
      <point x="502" y="428"/>
      <point x="462" y="388"/>
      <point x="346" y="388" type="curve" smooth="yes"/>
    </contour>
  </outline>
</glyph>
<glyph name="F" format="2">
	<advance width="594"/>
	<unicode hex="0046"/>
	<note>
		F
	</note>
	<outline>
		<contour>
			<point x="139" y="23" type="curve" smooth="yes"/>
			<point x="163" y="23"/>
			<point x="185" y="43"/>
			<point x="185" y="68" type="curve" smooth="yes"/>
			<point x="185" y="328" type="line"/>
			<point x="484" y="328" type="line" smooth="yes"/>
			<point x="508" y="328"/>
			<point x="527" y="345"/>
			<point x="527" y="370" type="curve" smooth="yes"/>
			<point x="527" y="393"/>
			<point x="508" y="413"/>
			<point x="484" y="413" type="curve" smooth="yes"/>
			<point x="185" y="413" type="line"/>
			<point x="185" y="615" type="line" smooth="yes"/>
			<point x="185" y="623"/>
			<point x="188" y="627"/>
			<point x="196" y="627" type="curve" smooth="yes"/>
			<point x="519" y="627" type="line" smooth="yes"/>
			<point x="542" y="627"/>
			<point x="562" y="644"/>
			<point x="562" y="669" type="curve" smooth="yes"/>
			<point x="562" y="692"/>
			<point x="542" y="712"/>
			<point x="519" y="712" type="curve" smooth="yes"/>
			<point x="139" y="712" type="line" smooth="yes"/>
			<point x="113" y="712"/>
			<point x="94" y="690"/>
			<point x="94" y="666" type="curve" smooth="yes"/>
			<point x="94" y="68" type="line" smooth="yes"/>
			<point x="94" y="44"/>
			<point x="114" y="23"/>
		</contour>
	</outline>
</glyph>
<glyph name="G" format="2">
	<advance width="739"/>
	<unicode hex="0047"/>
	<anchor x="394" y="721" name="top"/>
	<note>
		G
	</note>
	<outline>
		<contour>
			<point x="396" y="18" type="curve" smooth="yes"/>
			<point x="473" y="18"/>
			<point x="547" y="37"/>
			<point x="620" y="73" type="curve" smooth="yes"/>
			<point x="645" y="85"/>
			<point x="658" y="108"/>
			<point x="658" y="134" type="curve" smooth="yes"/>
			<point x="658" y="356" type="line" smooth="yes"/>
			<point x="658" y="383"/>
			<point x="637" y="404"/>
			<point x="610" y="404" type="curve" smooth="yes"/>
			<point x="418" y="404" type="line" smooth="yes"/>
			<point x="396" y="404"/>
			<point x="377" y="385"/>
			<point x="377" y="363" type="curve" smooth="yes"/>
			<point x="377" y="341"/>
			<point x="396" y="322"/>
			<point x="418" y="322" type="curve" smooth="yes"/>
			<point x="566" y="322" type="line" smooth="yes"/>
			<point x="574" y="322"/>
			<point x="578" y="318"/>
			<point x="578" y="310" type="curve" smooth="yes"/>
			<point x="578" y="147" type="line"/>
			<point x="525" y="119"/>
			<point x="470" y="104"/>
			<point x="408" y="104" type="curve" smooth="yes"/>
			<point x="302" y="104"/>
			<point x="219" y="151"/>
			<point x="176" y="233" type="curve" smooth="yes"/>
			<point x="154" y="273"/>
			<point x="144" y="318"/>
			<point x="144" y="369" type="curve" smooth="yes"/>
			<point x="144" y="476"/>
			<point x="189" y="559"/>
			<point x="270" y="602" type="curve" smooth="yes"/>
			<point x="311" y="623"/>
			<point x="354" y="633"/>
			<point x="403" y="633" type="curve" smooth="yes"/>
			<point x="475" y="633"/>
			<point x="533" y="615"/>
			<point x="595" y="579" type="curve"/>
			<point x="602" y="576"/>
			<point x="608" y="574"/>
			<point x="615" y="574" type="curve" smooth="yes"/>
			<point x="640" y="574"/>
			<point x="657" y="592"/>
			<point x="657" y="615" type="curve" smooth="yes"/>
			<point x="657" y="630"/>
			<point x="649" y="645"/>
			<point x="637" y="651" type="curve"/>
			<point x="566" y="695"/>
			<point x="495" y="721"/>
			<point x="394" y="721" type="curve" smooth="yes"/>
			<point x="268" y="721"/>
			<point x="157" y="660"/>
			<point x="98" y="552" type="curve" smooth="yes"/>
			<point x="67" y="499"/>
			<point x="53" y="438"/>
			<point x="53" y="369" type="curve" smooth="yes"/>
			<point x="53" y="234"/>
			<point x="112" y="123"/>
			<point x="218" y="63" type="curve" smooth="yes"/>
			<point x="270" y="33"/>
			<point x="329" y="18"/>
		</contour>
	</outline>
</glyph>
<glyph name="H" format="2">
  <advance height="1000" width="737"/>
  <unicode hex="0048"/>
  <note>
H
</note>
  <anchor x="368" y="674" name="top"/>
  <outline>
    <contour>
      <point x="139" y="-6" type="curve" smooth="yes"/>
      <point x="163" y="-6"/>
      <point x="185" y="14"/>
      <point x="185" y="39" type="curve" smooth="yes"/>
      <point x="185" y="298" type="line"/>
      <point x="553" y="298" type="line"/>
      <point x="553" y="39" type="line" smooth="yes"/>
      <point x="553" y="15"/>
      <point x="573" y="-6"/>
      <point x="598" y="-6" type="curve" smooth="yes"/>
      <point x="622" y="-6"/>
      <point x="644" y="14"/>
      <point x="644" y="39" type="curve" smooth="yes"/>
      <point x="644" y="642" type="line" smooth="yes"/>
      <point x="644" y="666"/>
      <point x="622" y="688"/>
      <point x="598" y="688" type="curve" smooth="yes"/>
      <point x="572" y="688"/>
      <point x="553" y="666"/>
      <point x="553" y="642" type="curve" smooth="yes"/>
      <point x="553" y="383" type="line"/>
      <point x="185" y="383" type="line"/>
      <point x="185" y="642" type="line" smooth="yes"/>
      <point x="185" y="666"/>
      <point x="163" y="688"/>
      <point x="139" y="688" type="curve" smooth="yes"/>
      <point x="113" y="688"/>
      <point x="94" y="666"/>
      <point x="94" y="642" type="curve" smooth="yes"/>
      <point x="94" y="39" type="line" smooth="yes"/>
      <point x="94" y="15"/>
      <point x="114" y="-6"/>
    </contour>
  </outline>
</glyph>
<glyph name="I" format="2">
  <advance width="278"/>
  <unicode hex="0049"/>
  <note>
I
</note>
  <anchor x="275" y="692" name="odot"/>
  <anchor x="140" y="688" name="top"/>
  <outline>
    <contour>
      <point x="139" y="-6" type="curve" smooth="yes"/>
      <point x="163" y="-6"/>
      <point x="185" y="14"/>
      <point x="185" y="39" type="curve" smooth="yes"/>
      <point x="185" y="642" type="line" smooth="yes"/>
      <point x="185" y="666"/>
      <point x="163" y="688"/>
      <point x="139" y="688" type="curve" smooth="yes"/>
      <point x="113" y="688"/>
      <point x="94" y="666"/>
      <point x="94" y="642" type="curve" smooth="yes"/>
      <point x="94" y="39" type="line" smooth="yes"/>
      <point x="94" y="15"/>
      <point x="114" y="-6"/>
    </contour>
  </outline>
</glyph>
<glyph name="K" format="2">
	<advance width="654"/>
	<unicode hex="004B"/>
	<anchor x="324" y="706" name="top"/>
	<note>
		K
	</note>
	<outline>
		<contour>
			<point x="139" y="23" type="curve" smooth="yes"/>
			<point x="163" y="23"/>
			<point x="185" y="43"/>
			<point x="185" y="68" type="curve" smooth="yes"/>
			<point x="185" y="251" type="line"/>
			<point x="295" y="361" type="line"/>
			<point x="546" y="41" type="line" smooth="yes"/>
			<point x="556" y="29"/>
			<point x="567" y="23"/>
			<point x="582" y="23" type="curve" smooth="yes"/>
			<point x="606" y="23"/>
			<point x="627" y="43"/>
			<point x="626" y="67" type="curve" smooth="yes"/>
			<point x="626" y="78"/>
			<point x="622" y="88"/>
			<point x="615" y="96" type="curve" smooth="yes"/>
			<point x="356" y="422" type="line"/>
			<point x="582" y="645" type="line" smooth="yes"/>
			<point x="589" y="653"/>
			<point x="593" y="665"/>
			<point x="593" y="676" type="curve" smooth="yes"/>
			<point x="593" y="700"/>
			<point x="573" y="717"/>
			<point x="551" y="717" type="curve" smooth="yes"/>
			<point x="538" y="717"/>
			<point x="525" y="712"/>
			<point x="517" y="701" type="curve"/>
			<point x="185" y="362" type="line"/>
			<point x="185" y="671" type="line" smooth="yes"/>
			<point x="185" y="695"/>
			<point x="163" y="717"/>
			<point x="139" y="717" type="curve" smooth="yes"/>
			<point x="113" y="717"/>
			<point x="94" y="695"/>
			<point x="94" y="671" type="curve" smooth="yes"/>
			<point x="94" y="68" type="line" smooth="yes"/>
			<point x="94" y="44"/>
			<point x="114" y="23"/>
		</contour>
	</outline>
</glyph>
<glyph name="M" format="2">
	<advance width="943"/>
	<unicode hex="004D"/>
	<anchor x="472" y="665" name="top"/>
	<note>
		M
	</note>
	<outline>
		<contour>
			<point x="139" y="23" type="curve" smooth="yes"/>
			<point x="163" y="23"/>
			<point x="185" y="43"/>
			<point x="185" y="68" type="curve" smooth="yes"/>
			<point x="185" y="584" type="line" smooth="yes"/>
			<point x="185" y="594"/>
			<point x="193" y="596"/>
			<point x="197" y="587" type="curve" smooth="yes"/>
			<point x="408" y="65" type="line" smooth="yes"/>
			<point x="419" y="41"/>
			<point x="443" y="23"/>
			<point x="472" y="23" type="curve" smooth="yes"/>
			<point x="500" y="23"/>
			<point x="524" y="41"/>
			<point x="535" y="65" type="curve" smooth="yes"/>
			<point x="746" y="587" type="line" smooth="yes"/>
			<point x="750" y="596"/>
			<point x="759" y="594"/>
			<point x="759" y="584" type="curve" smooth="yes"/>
			<point x="759" y="68" type="line" smooth="yes"/>
			<point x="759" y="43"/>
			<point x="780" y="23"/>
			<point x="805" y="23" type="curve" smooth="yes"/>
			<point x="829" y="23"/>
			<point x="850" y="44"/>
			<point x="850" y="68" type="curve" smooth="yes"/>
			<point x="850" y="651" type="line" smooth="yes"/>
			<point x="850" y="686"/>
			<point x="821" y="717"/>
			<point x="785" y="717" type="curve" smooth="yes"/>
			<point x="753" y="717" type="line" smooth="yes"/>
			<point x="728" y="717"/>
			<point x="704" y="700"/>
			<point x="692" y="675" type="curve"/>
			<point x="479" y="143" type="line"/>
			<point x="477" y="134"/>
			<point x="468" y="133"/>
			<point x="464" y="143" type="curve" smooth="yes"/>
			<point x="251" y="675" type="line"/>
			<point x="239" y="700"/>
			<point x="216" y="717"/>
			<point x="190" y="717" type="curve" smooth="yes"/>
			<point x="158" y="717" type="line" smooth="yes"/>
			<point x="122" y="717"/>
			<point x="94" y="686"/>
			<point x="94" y="651" type="curve" smooth="yes"/>
			<point x="94" y="68" type="line" smooth="yes"/>
			<point x="94" y="44"/>
			<point x="114" y="23"/>
		</contour>
	</outline>
</glyph>
<glyph name="P" format="2">
	<advance width="656"/>
	<unicode hex="0050"/>
	<note>
		P
	</note>
	<outline>
		<contour>
			<point x="139" y="23" type="curve" smooth="yes"/>
			<point x="163" y="23"/>
			<point x="185" y="43"/>
			<point x="185" y="68" type="curve" smooth="yes"/>
			<point x="185" y="276" type="line"/>
			<point x="361" y="276" type="line" smooth="yes"/>
			<point x="485" y="276"/>
			<point x="563" y="322"/>
			<point x="598" y="388" type="curve" smooth="yes"/>
			<point x="615" y="422"/>
			<point x="623" y="457"/>
			<point x="623" y="494" type="curve" smooth="yes"/>
			<point x="623" y="578"/>
			<point x="585" y="641"/>
			<point x="513" y="680" type="curve" smooth="yes"/>
			<point x="474" y="701"/>
			<point x="423" y="712"/>
			<point x="361" y="712" type="curve" smooth="yes"/>
			<point x="139" y="712" type="line" smooth="yes"/>
			<point x="113" y="712"/>
			<point x="94" y="690"/>
			<point x="94" y="666" type="curve" smooth="yes"/>
			<point x="94" y="68" type="line" smooth="yes"/>
			<point x="94" y="44"/>
			<point x="114" y="23"/>
		</contour>
		<contour>
			<point x="185" y="362" type="line"/>
			<point x="185" y="614" type="line" smooth="yes"/>
			<point x="185" y="622"/>
			<point x="188" y="626"/>
			<point x="196" y="626" type="curve" smooth="yes"/>
			<point x="353" y="626" type="line" smooth="yes"/>
			<point x="471" y="626"/>
			<point x="532" y="580"/>
			<point x="532" y="494" type="curve" smooth="yes"/>
			<point x="532" y="408"/>
			<point x="471" y="362"/>
			<point x="353" y="362" type="curve" smooth="yes"/>
		</contour>
	</outline>
</glyph>
<glyph name="Q" format="2">
	<advance width="793"/>
	<unicode hex="0051"/>
	<anchor x="688" y="713" name="odot"/>
	<anchor x="398" y="723" name="top"/>
	<note>
		Q
	</note>
	<outline>
		<contour>
			<point x="593" y="-120" type="curve" smooth="yes"/>
			<point x="616" y="-120"/>
			<point x="637" y="-101"/>
			<point x="636" y="-77" type="curve" smooth="yes"/>
			<point x="636" y="-67"/>
			<point x="632" y="-57"/>
			<point x="624" y="-48" type="curve" smooth="yes"/>
			<point x="539" y="46" type="line"/>
			<point x="663" y="97"/>
			<point x="737" y="217"/>
			<point x="740" y="370" type="curve"/>
			<point x="737" y="506"/>
			<point x="679" y="617"/>
			<point x="577" y="676" type="curve" smooth="yes"/>
			<point x="524" y="707"/>
			<point x="465" y="721"/>
			<point x="396" y="721" type="curve" smooth="yes"/>
			<point x="260" y="721"/>
			<point x="152" y="658"/>
			<point x="97" y="551" type="curve" smooth="yes"/>
			<point x="68" y="499"/>
			<point x="54" y="437"/>
			<point x="53" y="370" type="curve" smooth="yes"/>
			<point x="56" y="233"/>
			<point x="113" y="123"/>
			<point x="216" y="63" type="curve" smooth="yes"/>
			<point x="269" y="33"/>
			<point x="328" y="18"/>
			<point x="396" y="18" type="curve" smooth="yes"/>
			<point x="419" y="18"/>
			<point x="438" y="19"/>
			<point x="455" y="22" type="curve"/>
			<point x="561" y="-105" type="line" smooth="yes"/>
			<point x="569" y="-115"/>
			<point x="579" y="-120"/>
		</contour>
		<contour>
			<point x="396" y="103" type="curve" smooth="yes"/>
			<point x="294" y="103"/>
			<point x="215" y="150"/>
			<point x="174" y="233" type="curve" smooth="yes"/>
			<point x="154" y="272"/>
			<point x="144" y="318"/>
			<point x="144" y="370" type="curve" smooth="yes"/>
			<point x="144" y="472"/>
			<point x="187" y="555"/>
			<point x="262" y="601" type="curve" smooth="yes"/>
			<point x="299" y="625"/>
			<point x="344" y="636"/>
			<point x="396" y="636" type="curve" smooth="yes"/>
			<point x="498" y="636"/>
			<point x="578" y="589"/>
			<point x="619" y="507" type="curve" smooth="yes"/>
			<point x="639" y="467"/>
			<point x="649" y="422"/>
			<point x="649" y="370" type="curve" smooth="yes"/>
			<point x="649" y="266"/>
			<point x="606" y="184"/>
			<point x="531" y="138" type="curve" smooth="yes"/>
			<point x="494" y="115"/>
			<point x="449" y="103"/>
		</contour>
	</outline>
</glyph>
<glyph name="R" format="2">
	<advance width="695"/>
	<unicode hex="0052"/>
	<anchor x="332" y="711" name="top"/>
	<note>
		R
	</note>
	<outline>
		<contour>
			<point x="139" y="23" type="curve" smooth="yes"/>
			<point x="163" y="23"/>
			<point x="185" y="43"/>
			<point x="185" y="68" type="curve" smooth="yes"/>
			<point x="185" y="294" type="line"/>
			<point x="386" y="294" type="line" smooth="yes"/>
			<point x="476" y="294"/>
			<point x="516" y="243"/>
			<point x="527" y="188" type="curve" smooth="yes"/>
			<point x="533" y="160"/>
			<point x="536" y="131"/>
			<point x="536" y="97" type="curve" smooth="yes"/>
			<point x="536" y="68" type="line" smooth="yes"/>
			<point x="536" y="41"/>
			<point x="555" y="23"/>
			<point x="582" y="23" type="curve" smooth="yes"/>
			<point x="606" y="23"/>
			<point x="627" y="44"/>
			<point x="627" y="68" type="curve" smooth="yes"/>
			<point x="627" y="113" type="line" smooth="yes"/>
			<point x="627" y="201"/>
			<point x="600" y="309"/>
			<point x="507" y="336" type="curve"/>
			<point x="589" y="365"/>
			<point x="633" y="435"/>
			<point x="633" y="512" type="curve" smooth="yes"/>
			<point x="633" y="631"/>
			<point x="543" y="712"/>
			<point x="366" y="712" type="curve" smooth="yes"/>
			<point x="139" y="712" type="line" smooth="yes"/>
			<point x="113" y="712"/>
			<point x="94" y="690"/>
			<point x="94" y="666" type="curve" smooth="yes"/>
			<point x="94" y="68" type="line" smooth="yes"/>
			<point x="94" y="44"/>
			<point x="114" y="23"/>
		</contour>
		<contour>
			<point x="185" y="380" type="line"/>
			<point x="185" y="614" type="line" smooth="yes"/>
			<point x="185" y="622"/>
			<point x="188" y="626"/>
			<point x="196" y="626" type="curve" smooth="yes"/>
			<point x="355" y="626" type="line" smooth="yes"/>
			<point x="492" y="626"/>
			<point x="542" y="584"/>
			<point x="542" y="506" type="curve" smooth="yes"/>
			<point x="542" y="427"/>
			<point x="475" y="380"/>
			<point x="360" y="380" type="curve" smooth="yes"/>
		</contour>
	</outline>
</glyph>
<glyph name="V" format="2">
	<advance width="678"/>
	<unicode hex="0056"/>
	<note>
		V
	</note>
	<outline>
		<contour>
			<point x="328" y="23" type="curve" smooth="yes"/>
			<point x="350" y="23" type="line" smooth="yes"/>
			<point x="377" y="23"/>
			<point x="397" y="39"/>
			<point x="411" y="69" type="curve"/>
			<point x="652" y="654" type="line" smooth="yes"/>
			<point x="654" y="659"/>
			<point x="655" y="665"/>
			<point x="655" y="671" type="curve" smooth="yes"/>
			<point x="655" y="698"/>
			<point x="639" y="717"/>
			<point x="610" y="717" type="curve" smooth="yes"/>
			<point x="591" y="717"/>
			<point x="575" y="704"/>
			<point x="567" y="685" type="curve" smooth="yes"/>
			<point x="347" y="134" type="line" smooth="yes"/>
			<point x="344" y="126"/>
			<point x="335" y="125"/>
			<point x="331" y="134" type="curve" smooth="yes"/>
			<point x="110" y="685" type="line" smooth="yes"/>
			<point x="103" y="704"/>
			<point x="87" y="717"/>
			<point x="67" y="717" type="curve" smooth="yes"/>
			<point x="39" y="717"/>
			<point x="22" y="698"/>
			<point x="22" y="671" type="curve" smooth="yes"/>
			<point x="22" y="665"/>
			<point x="23" y="659"/>
			<point x="25" y="654" type="curve" smooth="yes"/>
			<point x="267" y="69" type="line" smooth="yes"/>
			<point x="280" y="39"/>
			<point x="301" y="23"/>
		</contour>
	</outline>
</glyph>
<glyph name="X" format="2">
	<advance width="655"/>
	<unicode hex="0058"/>
	<note>
		X
	</note>
	<outline>
		<contour>
			<point x="84" y="23" type="curve" smooth="yes"/>
			<point x="98" y="23"/>
			<point x="109" y="30"/>
			<point x="119" y="41" type="curve"/>
			<point x="324" y="303" type="line"/>
			<point x="532" y="42" type="line" smooth="yes"/>
			<point x="541" y="30"/>
			<point x="553" y="23"/>
			<point x="568" y="23" type="curve" smooth="yes"/>
			<point x="595" y="23"/>
			<point x="613" y="44"/>
			<point x="613" y="68" type="curve" smooth="yes"/>
			<point x="613" y="78"/>
			<point x="611" y="87"/>
			<point x="604" y="94" type="curve"/>
			<point x="379" y="371" type="line"/>
			<point x="604" y="648" type="line" smooth="yes"/>
			<point x="609" y="655"/>
			<point x="612" y="664"/>
			<point x="612" y="674" type="curve" smooth="yes"/>
			<point x="612" y="698"/>
			<point x="592" y="717"/>
			<point x="568" y="717" type="curve" smooth="yes"/>
			<point x="554" y="717"/>
			<point x="543" y="712"/>
			<point x="535" y="701" type="curve" smooth="yes"/>
			<point x="330" y="438" type="line"/>
			<point x="125" y="699" type="line" smooth="yes"/>
			<point x="116" y="710"/>
			<point x="102" y="717"/>
			<point x="88" y="717" type="curve" smooth="yes"/>
			<point x="63" y="717"/>
			<point x="44" y="697"/>
			<point x="44" y="673" type="curve" smooth="yes"/>
			<point x="44" y="663"/>
			<point x="47" y="653"/>
			<point x="53" y="644" type="curve"/>
			<point x="276" y="370" type="line"/>
			<point x="51" y="93" type="line" smooth="yes"/>
			<point x="45" y="85"/>
			<point x="42" y="75"/>
			<point x="42" y="65" type="curve" smooth="yes"/>
			<point x="42" y="43"/>
			<point x="62" y="23"/>
		</contour>
	</outline>
</glyph>
<glyph name="Y" format="2">
	<advance width="624"/>
	<unicode hex="0059"/>
	<anchor x="313" y="706" name="top"/>
	<note>
		Y
	</note>
	<outline>
		<contour>
			<point x="313" y="23" type="curve" smooth="yes"/>
			<point x="337" y="23"/>
			<point x="357" y="44"/>
			<point x="357" y="68" type="curve" smooth="yes"/>
			<point x="357" y="317" type="line"/>
			<point x="592" y="643" type="line"/>
			<point x="597" y="653"/>
			<point x="600" y="662"/>
			<point x="600" y="671" type="curve" smooth="yes"/>
			<point x="601" y="695"/>
			<point x="580" y="717"/>
			<point x="556" y="717" type="curve" smooth="yes"/>
			<point x="539" y="717"/>
			<point x="525" y="709"/>
			<point x="516" y="694" type="curve" smooth="yes"/>
			<point x="313" y="398" type="line"/>
			<point x="109" y="694" type="line"/>
			<point x="100" y="709"/>
			<point x="86" y="717"/>
			<point x="69" y="717" type="curve" smooth="yes"/>
			<point x="44" y="717"/>
			<point x="25" y="695"/>
			<point x="25" y="671" type="curve" smooth="yes"/>
			<point x="25" y="662"/>
			<point x="28" y="653"/>
			<point x="33" y="643" type="curve"/>
			<point x="267" y="317" type="line"/>
			<point x="267" y="68" type="line" smooth="yes"/>
			<point x="267" y="43"/>
			<point x="288" y="23"/>
		</contour>
	</outline>
</glyph>
<glyph name="bracketleft" format="2">
  <advance width="314"/>
  <unicode hex="005B"/>
  <note>
bracketleft
</note>
  <outline>
    <contour>
      <point x="128" y="-130" type="curve" smooth="yes"/>
      <point x="252" y="-130" type="line" smooth="yes"/>
      <point x="272" y="-130"/>
      <point x="288" y="-112"/>
      <point x="288" y="-94" type="curve" smooth="yes"/>
      <point x="288" y="-75"/>
      <point x="271" y="-59"/>
      <point x="252" y="-59" type="curve" smooth="yes"/>
      <point x="175" y="-59" type="line" smooth="yes"/>
      <point x="167" y="-59"/>
      <point x="163" y="-55"/>
      <point x="163" y="-47" type="curve" smooth="yes"/>
      <point x="163" y="632" type="line" smooth="yes"/>
      <point x="163" y="640"/>
      <point x="167" y="644"/>
      <point x="175" y="644" type="curve" smooth="yes"/>
      <point x="252" y="644" type="line" smooth="yes"/>
      <point x="271" y="644"/>
      <point x="288" y="660"/>
      <point x="288" y="680" type="curve" smooth="yes"/>
      <point x="288" y="699"/>
      <point x="271" y="716"/>
      <point x="252" y="716" type="curve" smooth="yes"/>
      <point x="128" y="716" type="line" smooth="yes"/>
      <point x="104" y="716"/>
      <point x="84" y="695"/>
      <point x="84" y="672" type="curve" smooth="yes"/>
      <point x="84" y="-86" type="line" smooth="yes"/>
      <point x="84" y="-109"/>
      <point x="104" y="-130"/>
    </contour>
  </outline>
</glyph>
<glyph name="backslash" format="2">
	<advance width="433"/>
	<unicode hex="005C"/>
	<note>
		backslash
	</note>
	<outline>
		<contour>
			<point x="346" y="-65" type="curve" smooth="yes"/>
			<point x="370" y="-65"/>
			<point x="387" y="-46"/>
			<point x="387" y="-24" type="curve" smooth="yes"/>
			<point x="387" y="-20"/>
			<point x="386" y="-15"/>
			<point x="384" y="-9" type="curve" smooth="yes"/>
			<point x="125" y="748" type="line" smooth="yes"/>
			<point x="120" y="764"/>
			<point x="105" y="776"/>
			<point x="86" y="776" type="curve" smooth="yes"/>
			<point x="62" y="776"/>
			<point x="45" y="758"/>
			<point x="45" y="735" type="curve" smooth="yes"/>
			<point x="45" y="731"/>
			<point x="46" y="726"/>
			<point x="48" y="720" type="curve" smooth="yes"/>
			<point x="307" y="-36" type="line" smooth="yes"/>
			<point x="312" y="-53"/>
			<point x="326" y="-65"/>
		</contour>
	</outline>
</glyph>
<glyph name="bracketright" format="2">
	<advance width="314"/>
	<unicode hex="005D"/>
	<note>
		bracketright
	</note>
	<outline>
		<contour>
			<point x="63" y="-101" type="curve" smooth="yes"/>
			<point x="187" y="-101" type="line" smooth="yes"/>
			<point x="210" y="-101"/>
			<point x="230" y="-80"/>
			<point x="230" y="-57" type="curve" smooth="yes"/>
			<point x="230" y="701" type="line" smooth="yes"/>
			<point x="230" y="724"/>
			<point x="210" y="745"/>
			<point x="187" y="745" type="curve" smooth="yes"/>
			<point x="63" y="745" type="line" smooth="yes"/>
			<point x="43" y="745"/>
			<point x="26" y="728"/>
			<point x="26" y="709" type="curve" smooth="yes"/>
			<point x="26" y="689"/>
			<point x="43" y="673"/>
			<point x="63" y="673" type="curve" smooth="yes"/>
			<point x="140" y="673" type="line" smooth="yes"/>
			<point x="147" y="673"/>
			<point x="151" y="669"/>
			<point x="151" y="661" type="curve" smooth="yes"/>
			<point x="151" y="-18" type="line" smooth="yes"/>
			<point x="151" y="-26"/>
			<point x="147" y="-30"/>
			<point x="140" y="-30" type="curve" smooth="yes"/>
			<point x="63" y="-30" type="line" smooth="yes"/>
			<point x="43" y="-30"/>
			<point x="26" y="-46"/>
			<point x="26" y="-65" type="curve" smooth="yes"/>
			<point x="26" y="-83"/>
			<point x="42" y="-101"/>
		</contour>
	</outline>
</glyph>
<glyph name="asciicircum" format="2">
	<advance width="512"/>
	<unicode hex="005E"/>
	<note>
		asciicircum
	</note>
	<outline>
		<contour>
			<point x="115" y="433" type="curve" smooth="yes"/>
			<point x="125" y="433"/>
			<point x="136" y="436"/>
			<point x="142" y="444" type="curve" smooth="yes"/>
			<point x="151" y="456"/>
			<point x="176" y="499"/>
			<point x="247" y="615" type="curve" smooth="yes"/>
			<point x="252" y="624"/>
			<point x="259" y="623"/>
			<point x="264" y="614" type="curve" smooth="yes"/>
			<point x="286" y="578"/>
			<point x="357" y="454"/>
			<point x="366" y="446" type="curve" smooth="yes"/>
			<point x="373" y="439"/>
			<point x="381" y="433"/>
			<point x="395" y="433" type="curve" smooth="yes"/>
			<point x="414" y="433"/>
			<point x="431" y="450"/>
			<point x="431" y="469" type="curve" smooth="yes"/>
			<point x="431" y="473"/>
			<point x="429" y="479"/>
			<point x="425" y="487" type="curve" smooth="yes"/>
			<point x="322" y="681" type="line" smooth="yes"/>
			<point x="311" y="703"/>
			<point x="297" y="716"/>
			<point x="273" y="716" type="curve" smooth="yes"/>
			<point x="236" y="716" type="line" smooth="yes"/>
			<point x="213" y="716"/>
			<point x="199" y="703"/>
			<point x="188" y="681" type="curve" smooth="yes"/>
			<point x="85" y="487" type="line" smooth="yes"/>
			<point x="81" y="479"/>
			<point x="79" y="473"/>
			<point x="79" y="469" type="curve" smooth="yes"/>
			<point x="79" y="450"/>
			<point x="96" y="433"/>
		</contour>
	</outline>
</glyph>
<glyph name="underscore" format="2">
  <advance height="1000" width="647"/>
  <unicode hex="005F"/>
  <note>
underscore
</note>
  <outline>
    <contour>
      <point x="83" y="-145" type="curve" smooth="yes"/>
      <point x="564" y="-145" type="line" smooth="yes"/>
      <point x="583" y="-145"/>
      <point x="598" y="-130"/>
      <point x="598" y="-111" type="curve" smooth="yes"/>
      <point x="598" y="-95"/>
      <point x="583" y="-78"/>
      <point x="564" y="-78" type="curve" smooth="yes"/>
      <point x="83" y="-78" type="line" smooth="yes"/>
      <point x="66" y="-78"/>
      <point x="50" y="-95"/>
      <point x="50" y="-111" type="curve" smooth="yes"/>
      <point x="50" y="-130"/>
      <point x="66" y="-145"/>
    </contour>
  </outline>
</glyph>
<glyph name="grave" format="2">
  <advance width="319"/>
  <unicode hex="0060"/>
  <note>
grave
</note>
  <outline>
    <contour>
      <point x="195" y="553" type="curve" smooth="yes"/>
      <point x="212" y="553"/>
      <point x="223" y="564"/>
      <point x="223" y="580" type="curve" smooth="yes"/>
      <point x="223" y="587"/>
      <point x="220" y="593"/>
      <point x="216" y="600" type="curve" smooth="yes"/>
      <point x="166" y="687" type="line" smooth="yes"/>
      <point x="159" y="700"/>
      <point x="147" y="706"/>
      <point x="133" y="706" type="curve" smooth="yes"/>
      <point x="110" y="706"/>
      <point x="96" y="692"/>
      <point x="96" y="669" type="curve" smooth="yes"/>
      <point x="96" y="660"/>
      <point x="99" y="650"/>
      <point x="105" y="644" type="curve" smooth="yes"/>
      <point x="173" y="563" type="line" smooth="yes"/>
      <point x="179" y="557"/>
      <point x="187" y="553"/>
    </contour>
  </outline>
</glyph>
<glyph name="g" format="2">
	<advance width="616"/>
	<unicode hex="0067"/>
	<anchor x="300" y="537" name="top"/>
	<note>
		g
	</note>
	<outline>
		<contour>
			<point x="310" y="-206" type="curve" smooth="yes"/>
			<point x="458" y="-206"/>
			<point x="540" y="-114"/>
			<point x="540" y="50" type="curve" smooth="yes"/>
			<point x="540" y="487" type="line" smooth="yes"/>
			<point x="540" y="511"/>
			<point x="519" y="533"/>
			<point x="494" y="533" type="curve" smooth="yes"/>
			<point x="469" y="533"/>
			<point x="449" y="511"/>
			<point x="449" y="487" type="curve" smooth="yes"/>
			<point x="449" y="466" type="line"/>
			<point x="404" y="513"/>
			<point x="349" y="538"/>
			<point x="283" y="538" type="curve" smooth="yes"/>
			<point x="206" y="538"/>
			<point x="128" y="500"/>
			<point x="81" y="424" type="curve" smooth="yes"/>
			<point x="58" y="384"/>
			<point x="46" y="338"/>
			<point x="46" y="283" type="curve" smooth="yes"/>
			<point x="46" y="174"/>
			<point x="99" y="95"/>
			<point x="172" y="57" type="curve" smooth="yes"/>
			<point x="207" y="38"/>
			<point x="244" y="28"/>
			<point x="283" y="28" type="curve" smooth="yes"/>
			<point x="349" y="28"/>
			<point x="404" y="52"/>
			<point x="449" y="100" type="curve"/>
			<point x="449" y="38" type="line" smooth="yes"/>
			<point x="449" y="-69"/>
			<point x="399" y="-120"/>
			<point x="301" y="-120" type="curve" smooth="yes"/>
			<point x="243" y="-120"/>
			<point x="189" y="-108"/>
			<point x="140" y="-83" type="curve" smooth="yes"/>
			<point x="135" y="-81"/>
			<point x="129" y="-79"/>
			<point x="122" y="-79" type="curve" smooth="yes"/>
			<point x="100" y="-79"/>
			<point x="82" y="-100"/>
			<point x="82" y="-120" type="curve" smooth="yes"/>
			<point x="82" y="-136"/>
			<point x="88" y="-148"/>
			<point x="101" y="-156" type="curve" smooth="yes"/>
			<point x="150" y="-184"/>
			<point x="234" y="-206"/>
		</contour>
		<contour>
			<point x="302" y="111" type="curve" smooth="yes"/>
			<point x="204" y="111"/>
			<point x="137" y="171"/>
			<point x="137" y="283" type="curve" smooth="yes"/>
			<point x="137" y="395"/>
			<point x="204" y="455"/>
			<point x="302" y="455" type="curve" smooth="yes"/>
			<point x="363" y="455"/>
			<point x="406" y="426"/>
			<point x="449" y="383" type="curve"/>
			<point x="449" y="182" type="line"/>
			<point x="406" y="139"/>
			<point x="363" y="111"/>
		</contour>
	</outline>
</glyph>
<glyph name="k" format="2">
	<advance width="532"/>
	<unicode hex="006B"/>
	<note>
		k
	</note>
	<outline>
		<contour>
			<point x="121" y="23" type="curve" smooth="yes"/>
			<point x="146" y="23"/>
			<point x="167" y="43"/>
			<point x="167" y="68" type="curve" smooth="yes"/>
			<point x="167" y="194" type="line"/>
			<point x="251" y="270" type="line"/>
			<point x="418" y="42" type="line" smooth="yes"/>
			<point x="427" y="30"/>
			<point x="442" y="23"/>
			<point x="455" y="23" type="curve" smooth="yes"/>
			<point x="481" y="23"/>
			<point x="501" y="41"/>
			<point x="501" y="67" type="curve" smooth="yes"/>
			<point x="501" y="77"/>
			<point x="497" y="86"/>
			<point x="491" y="94" type="curve" smooth="yes"/>
			<point x="314" y="328" type="line"/>
			<point x="455" y="453" type="line"/>
			<point x="465" y="464"/>
			<point x="472" y="475"/>
			<point x="472" y="487" type="curve" smooth="yes"/>
			<point x="472" y="514"/>
			<point x="456" y="531"/>
			<point x="428" y="531" type="curve" smooth="yes"/>
			<point x="417" y="531"/>
			<point x="407" y="526"/>
			<point x="397" y="518" type="curve"/>
			<point x="167" y="304" type="line"/>
			<point x="167" y="702" type="line" smooth="yes"/>
			<point x="167" y="726"/>
			<point x="146" y="748"/>
			<point x="121" y="748" type="curve" smooth="yes"/>
			<point x="96" y="748"/>
			<point x="76" y="726"/>
			<point x="76" y="702" type="curve" smooth="yes"/>
			<point x="76" y="68" type="line" smooth="yes"/>
			<point x="76" y="44"/>
			<point x="97" y="23"/>
		</contour>
	</outline>
</glyph>
<glyph name="l" format="2">
	<advance width="243"/>
	<unicode hex="006C"/>
	<note>
		l
	</note>
	<outline>
		<contour>
			<point x="121" y="23" type="curve" smooth="yes"/>
			<point x="146" y="23"/>
			<point x="167" y="43"/>
			<point x="167" y="68" type="curve" smooth="yes"/>
			<point x="167" y="702" type="line" smooth="yes"/>
			<point x="167" y="728"/>
			<point x="147" y="748"/>
			<point x="121" y="748" type="curve" smooth="yes"/>
			<point x="96" y="748"/>
			<point x="76" y="726"/>
			<point x="76" y="702" type="curve" smooth="yes"/>
			<point x="76" y="68" type="line" smooth="yes"/>
			<point x="76" y="44"/>
			<point x="97" y="23"/>
		</contour>
	</outline>
</glyph>
<glyph name="p" format="2">
	<advance width="616"/>
	<unicode hex="0070"/>
	<note>
		p
	</note>
	<outline>
		<contour>
			<point x="121" y="-201" type="curve" smooth="yes"/>
			<point x="147" y="-201"/>
			<point x="167" y="-182"/>
			<point x="167" y="-156" type="curve" smooth="yes"/>
			<point x="167" y="92" type="line"/>
			<point x="214" y="43"/>
			<point x="270" y="18"/>
			<point x="333" y="18" type="curve" smooth="yes"/>
			<point x="414" y="18"/>
			<point x="492" y="60"/>
			<point x="537" y="140" type="curve" smooth="yes"/>
			<point x="560" y="179"/>
			<point x="570" y="225"/>
			<point x="570" y="278" type="curve" smooth="yes"/>
			<point x="570" y="383"/>
			<point x="521" y="467"/>
			<point x="448" y="508" type="curve" smooth="yes"/>
			<point x="413" y="528"/>
			<point x="373" y="538"/>
			<point x="333" y="538" type="curve" smooth="yes"/>
			<point x="270" y="538"/>
			<point x="214" y="513"/>
			<point x="167" y="465" type="curve"/>
			<point x="167" y="488" type="line" smooth="yes"/>
			<point x="167" y="513"/>
			<point x="146" y="533"/>
			<point x="121" y="533" type="curve" smooth="yes"/>
			<point x="97" y="533"/>
			<point x="76" y="512"/>
			<point x="76" y="488" type="curve" smooth="yes"/>
			<point x="76" y="-156" type="line" smooth="yes"/>
			<point x="76" y="-180"/>
			<point x="96" y="-201"/>
		</contour>
		<contour>
			<point x="320" y="103" type="curve" smooth="yes"/>
			<point x="261" y="103"/>
			<point x="207" y="133"/>
			<point x="167" y="175" type="curve"/>
			<point x="167" y="381" type="line"/>
			<point x="207" y="424"/>
			<point x="261" y="453"/>
			<point x="320" y="453" type="curve" smooth="yes"/>
			<point x="419" y="453"/>
			<point x="479" y="387"/>
			<point x="479" y="278" type="curve" smooth="yes"/>
			<point x="479" y="169"/>
			<point x="419" y="103"/>
		</contour>
	</outline>
</glyph>
<glyph name="r" format="2">
	<advance width="374"/>
	<unicode hex="0072"/>
	<note>
		r
	</note>
	<outline>
		<contour>
			<point x="121" y="23" type="curve" smooth="yes"/>
			<point x="146" y="23"/>
			<point x="167" y="43"/>
			<point x="167" y="68" type="curve" smooth="yes"/>
			<point x="167" y="365" type="line"/>
			<point x="203" y="420"/>
			<point x="257" y="450"/>
			<point x="317" y="450" type="curve" smooth="yes"/>
			<point x="322" y="450" type="line" smooth="yes"/>
			<point x="349" y="450"/>
			<point x="368" y="467"/>
			<point x="368" y="493" type="curve" smooth="yes"/>
			<point x="368" y="517"/>
			<point x="350" y="538"/>
			<point x="324" y="538" type="curve" smooth="yes"/>
			<point x="319" y="538" type="line" smooth="yes"/>
			<point x="263" y="538"/>
			<point x="212" y="508"/>
			<point x="167" y="448" type="curve"/>
			<point x="167" y="487" type="line" smooth="yes"/>
			<point x="167" y="511"/>
			<point x="146" y="533"/>
			<point x="121" y="533" type="curve" smooth="yes"/>
			<point x="96" y="533"/>
			<point x="76" y="511"/>
			<point x="76" y="487" type="curve" smooth="yes"/>
			<point x="76" y="68" type="line" smooth="yes"/>
			<point x="76" y="44"/>
			<point x="97" y="23"/>
		</contour>
	</outline>
</glyph>
<glyph name="v" format="2">
  <advance height="1000" width="518"/>
  <unicode hex="0076"/>
  <note>
v
</note>
  <outline>
    <contour>
      <point x="254" y="-6" type="curve" smooth="yes"/>
      <point x="264" y="-6" type="line" smooth="yes"/>
      <point x="287" y="-6"/>
      <point x="310" y="10"/>
      <point x="318" y="31" type="curve" smooth="yes"/>
      <point x="488" y="438" type="line" smooth="yes"/>
      <point x="491" y="445"/>
      <point x="493" y="452"/>
      <point x="493" y="458" type="curve" smooth="yes"/>
      <point x="493" y="482"/>
      <point x="474" y="504"/>
      <point x="448" y="504" type="curve" smooth="yes"/>
      <point x="432" y="504"/>
      <point x="414" y="493"/>
      <point x="407" y="478" type="curve" smooth="yes"/>
      <point x="267" y="120" type="line" smooth="yes"/>
      <point x="264" y="111"/>
      <point x="255" y="110"/>
      <point x="251" y="120" type="curve" smooth="yes"/>
      <point x="110" y="478" type="line" smooth="yes"/>
      <point x="104" y="493"/>
      <point x="86" y="504"/>
      <point x="69" y="504" type="curve" smooth="yes"/>
      <point x="44" y="504"/>
      <point x="24" y="482"/>
      <point x="24" y="458" type="curve" smooth="yes"/>
      <point x="24" y="452"/>
      <point x="26" y="445"/>
      <point x="29" y="438" type="curve" smooth="yes"/>
      <point x="199" y="31" type="line" smooth="yes"/>
      <point x="208" y="10"/>
      <point x="230" y="-6"/>
    </contour>
  </outline>
</glyph>
<glyph name="x" format="2">
  <advance width="528"/>
  <unicode hex="0078"/>
  <note>
x
</note>
  <outline>
    <contour>
      <point x="92" y="-6" type="curve" smooth="yes"/>
      <point x="108" y="-6"/>
      <point x="121" y="1"/>
      <point x="131" y="14" type="curve" smooth="yes"/>
      <point x="261" y="177" type="line"/>
      <point x="398" y="12" type="line" smooth="yes"/>
      <point x="407" y="0"/>
      <point x="418" y="-6"/>
      <point x="434" y="-6" type="curve" smooth="yes"/>
      <point x="462" y="-6"/>
      <point x="479" y="16"/>
      <point x="479" y="40" type="curve" smooth="yes"/>
      <point x="479" y="52"/>
      <point x="476" y="62"/>
      <point x="469" y="69" type="curve"/>
      <point x="316" y="252" type="line"/>
      <point x="471" y="433" type="line" smooth="yes"/>
      <point x="477" y="441"/>
      <point x="480" y="450"/>
      <point x="480" y="461" type="curve" smooth="yes"/>
      <point x="480" y="486"/>
      <point x="460" y="504"/>
      <point x="435" y="504" type="curve" smooth="yes"/>
      <point x="421" y="504"/>
      <point x="408" y="498"/>
      <point x="399" y="487" type="curve" smooth="yes"/>
      <point x="265" y="319" type="line"/>
      <point x="129" y="487" type="line" smooth="yes"/>
      <point x="120" y="499"/>
      <point x="107" y="504"/>
      <point x="93" y="504" type="curve" smooth="yes"/>
      <point x="68" y="504"/>
      <point x="48" y="485"/>
      <point x="48" y="459" type="curve" smooth="yes"/>
      <point x="48" y="448"/>
      <point x="52" y="438"/>
      <point x="59" y="430" type="curve" smooth="yes"/>
      <point x="210" y="246" type="line"/>
      <point x="59" y="68" type="line" smooth="yes"/>
      <point x="53" y="60"/>
      <point x="49" y="51"/>
      <point x="49" y="40" type="curve" smooth="yes"/>
      <point x="49" y="13"/>
      <point x="64" y="-6"/>
    </contour>
  </outline>
</glyph>
<glyph name="z" format="2">
	<advance width="486"/>
	<unicode hex="007A"/>
	<note>
		z
	</note>
	<outline>
		<contour>
			<point x="101" y="28" type="curve" smooth="yes"/>
			<point x="405" y="28" type="line" smooth="yes"/>
			<point x="429" y="28"/>
			<point x="448" y="46"/>
			<point x="448" y="70" type="curve" smooth="yes"/>
			<point x="448" y="93"/>
			<point x="429" y="113"/>
			<point x="405" y="113" type="curve" smooth="yes"/>
			<point x="175" y="113" type="line" smooth="yes"/>
			<point x="165" y="113"/>
			<point x="163" y="119"/>
			<point x="169" y="127" type="curve" smooth="yes"/>
			<point x="429" y="431" type="line" smooth="yes"/>
			<point x="438" y="443"/>
			<point x="442" y="458"/>
			<point x="442" y="471" type="curve" smooth="yes"/>
			<point x="442" y="504"/>
			<point x="419" y="528"/>
			<point x="385" y="528" type="curve" smooth="yes"/>
			<point x="89" y="528" type="line" smooth="yes"/>
			<point x="64" y="528"/>
			<point x="47" y="508"/>
			<point x="47" y="485" type="curve" smooth="yes"/>
			<point x="47" y="462"/>
			<point x="65" y="443"/>
			<point x="89" y="443" type="curve" smooth="yes"/>
			<point x="315" y="443" type="line" smooth="yes"/>
			<point x="325" y="443"/>
			<point x="327" y="437"/>
			<point x="321" y="429" type="curve" smooth="yes"/>
			<point x="54" y="122" type="line" smooth="yes"/>
			<point x="44" y="110"/>
			<point x="38" y="96"/>
			<point x="38" y="81" type="curve" smooth="yes"/>
			<point x="38" y="49"/>
			<point x="64" y="28"/>
		</contour>
	</outline>
</glyph>
<glyph name="braceleft" format="2">
	<advance width="336"/>
	<unicode hex="007B"/>
	<note>
		braceleft
	</note>
	<outline>
		<contour>
			<point x="263" y="-114" type="curve" smooth="yes"/>
			<point x="274" y="-114" type="line" smooth="yes"/>
			<point x="293" y="-114"/>
			<point x="310" y="-97"/>
			<point x="310" y="-78" type="curve" smooth="yes"/>
			<point x="310" y="-60"/>
			<point x="293" y="-43"/>
			<point x="274" y="-43" type="curve" smooth="yes"/>
			<point x="260" y="-43" type="line" smooth="yes"/>
			<point x="211" y="-43"/>
			<point x="203" y="-27"/>
			<point x="203" y="-3" type="curve" smooth="yes"/>
			<point x="203" y="214" type="line" smooth="yes"/>
			<point x="203" y="269"/>
			<point x="174" y="307"/>
			<point x="117" y="329" type="curve"/>
			<point x="174" y="350"/>
			<point x="203" y="388"/>
			<point x="203" y="444" type="curve" smooth="yes"/>
			<point x="203" y="661" type="line" smooth="yes"/>
			<point x="203" y="684"/>
			<point x="211" y="701"/>
			<point x="260" y="701" type="curve" smooth="yes"/>
			<point x="274" y="701" type="line" smooth="yes"/>
			<point x="293" y="701"/>
			<point x="310" y="717"/>
			<point x="310" y="736" type="curve" smooth="yes"/>
			<point x="310" y="755"/>
			<point x="293" y="771"/>
			<point x="274" y="771" type="curve" smooth="yes"/>
			<point x="263" y="771" type="line" smooth="yes"/>
			<point x="176" y="771"/>
			<point x="125" y="743"/>
			<point x="125" y="653" type="curve" smooth="yes"/>
			<point x="125" y="447" type="line" smooth="yes"/>
			<point x="125" y="400"/>
			<point x="104" y="381"/>
			<point x="36" y="369" type="curve" smooth="yes"/>
			<point x="13" y="365"/>
			<point x="2" y="349"/>
			<point x="2" y="329" type="curve" smooth="yes"/>
			<point x="2" y="308"/>
			<point x="13" y="293"/>
			<point x="36" y="289" type="curve" smooth="yes"/>
			<point x="104" y="277"/>
			<point x="125" y="258"/>
			<point x="125" y="211" type="curve" smooth="yes"/>
			<point x="125" y="5" type="line" smooth="yes"/>
			<point x="125" y="-85"/>
			<point x="176" y="-114"/>
		</contour>
	</outline>
</glyph>
<glyph name="braceright" format="2">
	<advance width="336"/>
	<unicode hex="007D"/>
	<note>
		braceright
	</note>
	<outline>
		<contour>
			<point x="62" y="-114" type="curve" smooth="yes"/>
			<point x="73" y="-114" type="line" smooth="yes"/>
			<point x="160" y="-114"/>
			<point x="211" y="-85"/>
			<point x="211" y="5" type="curve" smooth="yes"/>
			<point x="211" y="211" type="line" smooth="yes"/>
			<point x="211" y="258"/>
			<point x="231" y="277"/>
			<point x="300" y="289" type="curve" smooth="yes"/>
			<point x="323" y="293"/>
			<point x="334" y="308"/>
			<point x="334" y="329" type="curve" smooth="yes"/>
			<point x="334" y="349"/>
			<point x="323" y="365"/>
			<point x="300" y="369" type="curve" smooth="yes"/>
			<point x="231" y="381"/>
			<point x="211" y="400"/>
			<point x="211" y="447" type="curve" smooth="yes"/>
			<point x="211" y="653" type="line" smooth="yes"/>
			<point x="211" y="743"/>
			<point x="160" y="771"/>
			<point x="73" y="771" type="curve" smooth="yes"/>
			<point x="62" y="771" type="line" smooth="yes"/>
			<point x="43" y="771"/>
			<point x="26" y="755"/>
			<point x="26" y="736" type="curve" smooth="yes"/>
			<point x="26" y="717"/>
			<point x="43" y="701"/>
			<point x="62" y="701" type="curve" smooth="yes"/>
			<point x="76" y="701" type="line" smooth="yes"/>
			<point x="125" y="701"/>
			<point x="133" y="684"/>
			<point x="133" y="661" type="curve" smooth="yes"/>
			<point x="133" y="444" type="line" smooth="yes"/>
			<point x="133" y="388"/>
			<point x="162" y="350"/>
			<point x="219" y="329" type="curve"/>
			<point x="162" y="307"/>
			<point x="133" y="269"/>
			<point x="133" y="214" type="curve" smooth="yes"/>
			<point x="133" y="-3" type="line" smooth="yes"/>
			<point x="133" y="-27"/>
			<point x="125" y="-43"/>
			<point x="76" y="-43" type="curve" smooth="yes"/>
			<point x="62" y="-43" type="line" smooth="yes"/>
			<point x="43" y="-43"/>
			<point x="26" y="-60"/>
			<point x="26" y="-78" type="curve" smooth="yes"/>
			<point x="26" y="-97"/>
			<point x="43" y="-114"/>
		</contour>
	</outline>
</glyph>
<glyph name="asciitilde" format="2">
	<advance width="623"/>
	<unicode hex="007E"/>
	<note>
		asciitilde
	</note>
	<outline>
		<contour>
			<point x="430" y="229" type="curve" smooth="yes"/>
			<point x="494" y="229"/>
			<point x="539" y="276"/>
			<point x="555" y="356" type="curve" smooth="yes"/>
			<point x="559" y="376"/>
			<point x="545" y="387"/>
			<point x="530" y="387" type="curve" smooth="yes"/>
			<point x="519" y="387"/>
			<point x="511" y="382"/>
			<point x="506" y="372" type="curve" smooth="yes"/>
			<point x="502" y="365"/>
			<point x="499" y="358"/>
			<point x="497" y="353" type="curve" smooth="yes"/>
			<point x="481" y="324"/>
			<point x="474" y="314"/>
			<point x="438" y="314" type="curve" smooth="yes"/>
			<point x="409" y="314"/>
			<point x="386" y="324"/>
			<point x="340" y="346" type="curve" smooth="yes"/>
			<point x="281" y="374"/>
			<point x="247" y="388"/>
			<point x="196" y="388" type="curve" smooth="yes"/>
			<point x="131" y="388"/>
			<point x="71" y="322"/>
			<point x="71" y="258" type="curve" smooth="yes"/>
			<point x="71" y="246"/>
			<point x="85" y="232"/>
			<point x="98" y="232" type="curve" smooth="yes"/>
			<point x="109" y="232"/>
			<point x="119" y="240"/>
			<point x="122" y="252" type="curve" smooth="yes"/>
			<point x="132" y="287"/>
			<point x="154" y="303"/>
			<point x="189" y="303" type="curve" smooth="yes"/>
			<point x="218" y="303"/>
			<point x="241" y="294"/>
			<point x="287" y="271" type="curve" smooth="yes"/>
			<point x="346" y="244"/>
			<point x="380" y="229"/>
		</contour>
	</outline>
</glyph>
<glyph name="exclamdown" format="2">
	<advance width="253"/>
	<unicode hex="00A1"/>
	<note>
		exclamdown
	</note>
	<outline>
		<contour>
			<point x="127" y="-160" type="curve" smooth="yes"/>
			<point x="156" y="-160"/>
			<point x="178" y="-137"/>
			<point x="178" y="-109" type="curve" smooth="yes"/>
			<point x="178" y="-12" type="line"/>
			<point x="160" y="310" type="line" smooth="yes"/>
			<point x="159" y="329"/>
			<point x="146" y="340"/>
			<point x="127" y="340" type="curve" smooth="yes"/>
			<point x="108" y="340"/>
			<point x="94" y="329"/>
			<point x="93" y="310" type="curve" smooth="yes"/>
			<point x="75" y="-12" type="line"/>
			<point x="75" y="-109" type="line" smooth="yes"/>
			<point x="75" y="-137"/>
			<point x="99" y="-160"/>
		</contour>
		<contour>
			<point x="127" y="414" type="curve" smooth="yes"/>
			<point x="159" y="414"/>
			<point x="187" y="441"/>
			<point x="187" y="472" type="curve" smooth="yes"/>
			<point x="187" y="505"/>
			<point x="159" y="532"/>
			<point x="127" y="532" type="curve" smooth="yes"/>
			<point x="96" y="532"/>
			<point x="68" y="505"/>
			<point x="68" y="472" type="curve" smooth="yes"/>
			<point x="68" y="441"/>
			<point x="96" y="414"/>
		</contour>
	</outline>
</glyph>
<glyph name="cent" format="2">
	<advance width="538"/>
	<unicode hex="00A2"/>
	<note>
		cent
	</note>
	<outline>
		<contour>
			<point x="179" y="-92" type="curve" smooth="yes"/>
			<point x="191" y="-92"/>
			<point x="202" y="-85"/>
			<point x="206" y="-74" type="curve" smooth="yes"/>
			<point x="240" y="26" type="line"/>
			<point x="262" y="21"/>
			<point x="283" y="18"/>
			<point x="304" y="18" type="curve" smooth="yes"/>
			<point x="373" y="18"/>
			<point x="420" y="38"/>
			<point x="464" y="65" type="curve" smooth="yes"/>
			<point x="477" y="74"/>
			<point x="483" y="86"/>
			<point x="483" y="100" type="curve" smooth="yes"/>
			<point x="483" y="120"/>
			<point x="466" y="140"/>
			<point x="445" y="140" type="curve" smooth="yes"/>
			<point x="438" y="140"/>
			<point x="430" y="137"/>
			<point x="424" y="134" type="curve" smooth="yes"/>
			<point x="381" y="112"/>
			<point x="357" y="103"/>
			<point x="312" y="103" type="curve" smooth="yes"/>
			<point x="295" y="103"/>
			<point x="280" y="104"/>
			<point x="268" y="107" type="curve"/>
			<point x="383" y="441" type="line"/>
			<point x="424" y="422" type="line" smooth="yes"/>
			<point x="430" y="419"/>
			<point x="438" y="416"/>
			<point x="445" y="416" type="curve" smooth="yes"/>
			<point x="466" y="416"/>
			<point x="483" y="436"/>
			<point x="483" y="456" type="curve" smooth="yes"/>
			<point x="483" y="470"/>
			<point x="477" y="482"/>
			<point x="464" y="491" type="curve" smooth="yes"/>
			<point x="445" y="504"/>
			<point x="428" y="512"/>
			<point x="409" y="519" type="curve"/>
			<point x="436" y="596" type="line"/>
			<point x="436" y="597"/>
			<point x="436" y="597"/>
			<point x="437" y="598" type="curve"/>
			<point x="437" y="601"/>
			<point x="438" y="603"/>
			<point x="438" y="606" type="curve" smooth="yes"/>
			<point x="438" y="622"/>
			<point x="426" y="635"/>
			<point x="409" y="635" type="curve" smooth="yes"/>
			<point x="396" y="635"/>
			<point x="386" y="627"/>
			<point x="382" y="616" type="curve" smooth="yes"/>
			<point x="354" y="534" type="line"/>
			<point x="334" y="537"/>
			<point x="316" y="538"/>
			<point x="304" y="538" type="curve" smooth="yes"/>
			<point x="208" y="538"/>
			<point x="125" y="494"/>
			<point x="78" y="417" type="curve" smooth="yes"/>
			<point x="54" y="377"/>
			<point x="42" y="331"/>
			<point x="42" y="278" type="curve" smooth="yes"/>
			<point x="42" y="166"/>
			<point x="99" y="83"/>
			<point x="186" y="43" type="curve"/>
			<point x="153" y="-51" type="line"/>
			<point x="151" y="-55"/>
			<point x="150" y="-60"/>
			<point x="150" y="-64" type="curve" smooth="yes"/>
			<point x="150" y="-78"/>
			<point x="162" y="-92"/>
		</contour>
		<contour>
			<point x="214" y="126" type="line"/>
			<point x="162" y="154"/>
			<point x="133" y="208"/>
			<point x="133" y="278" type="curve" smooth="yes"/>
			<point x="133" y="384"/>
			<point x="201" y="453"/>
			<point x="312" y="453" type="curve" smooth="yes"/>
			<point x="317" y="453"/>
			<point x="323" y="453"/>
			<point x="326" y="452" type="curve"/>
		</contour>
	</outline>
</glyph>
<glyph name="sterling" format="2">
	<advance width="590"/>
	<unicode hex="00A3"/>
	<note>
		sterling
	</note>
	<outline>
		<contour>
			<point x="426" y="18" type="curve" smooth="yes"/>
			<point x="462" y="18"/>
			<point x="497" y="27"/>
			<point x="529" y="45" type="curve" smooth="yes"/>
			<point x="544" y="53"/>
			<point x="553" y="65"/>
			<point x="553" y="81" type="curve" smooth="yes"/>
			<point x="553" y="104"/>
			<point x="534" y="121"/>
			<point x="512" y="121" type="curve" smooth="yes"/>
			<point x="509" y="121"/>
			<point x="504" y="120"/>
			<point x="496" y="117" type="curve" smooth="yes"/>
			<point x="476" y="110"/>
			<point x="455" y="106"/>
			<point x="435" y="106" type="curve" smooth="yes"/>
			<point x="404" y="106"/>
			<point x="379" y="113"/>
			<point x="343" y="126" type="curve" smooth="yes"/>
			<point x="296" y="140"/>
			<point x="276" y="146"/>
			<point x="242" y="146" type="curve" smooth="yes"/>
			<point x="220" y="145" type="line"/>
			<point x="246" y="187"/>
			<point x="260" y="234"/>
			<point x="260" y="284" type="curve" smooth="yes"/>
			<point x="260" y="290"/>
			<point x="259" y="298"/>
			<point x="259" y="307" type="curve"/>
			<point x="258" y="309"/>
			<point x="258" y="311"/>
			<point x="258" y="313" type="curve"/>
			<point x="404" y="313" type="line" smooth="yes"/>
			<point x="425" y="313"/>
			<point x="441" y="328"/>
			<point x="441" y="349" type="curve" smooth="yes"/>
			<point x="441" y="369"/>
			<point x="424" y="386"/>
			<point x="404" y="386" type="curve" smooth="yes"/>
			<point x="242" y="386" type="line"/>
			<point x="235" y="409" type="line" smooth="yes"/>
			<point x="220" y="459"/>
			<point x="212" y="491"/>
			<point x="212" y="523" type="curve" smooth="yes"/>
			<point x="212" y="594"/>
			<point x="267" y="633"/>
			<point x="363" y="633" type="curve" smooth="yes"/>
			<point x="396" y="633"/>
			<point x="432" y="628"/>
			<point x="470" y="615" type="curve" smooth="yes"/>
			<point x="478" y="612"/>
			<point x="483" y="611"/>
			<point x="488" y="611" type="curve" smooth="yes"/>
			<point x="512" y="611"/>
			<point x="530" y="630"/>
			<point x="530" y="653" type="curve" smooth="yes"/>
			<point x="530" y="673"/>
			<point x="520" y="685"/>
			<point x="500" y="693" type="curve" smooth="yes"/>
			<point x="454" y="712"/>
			<point x="407" y="721"/>
			<point x="359" y="721" type="curve" smooth="yes"/>
			<point x="214" y="721"/>
			<point x="121" y="643"/>
			<point x="121" y="519" type="curve" smooth="yes"/>
			<point x="121" y="475"/>
			<point x="130" y="445"/>
			<point x="149" y="386" type="curve"/>
			<point x="73" y="386" type="line" smooth="yes"/>
			<point x="53" y="386"/>
			<point x="37" y="369"/>
			<point x="37" y="349" type="curve" smooth="yes"/>
			<point x="37" y="330"/>
			<point x="54" y="313"/>
			<point x="73" y="313" type="curve" smooth="yes"/>
			<point x="167" y="313" type="line"/>
			<point x="169" y="302"/>
			<point x="170" y="291"/>
			<point x="170" y="278" type="curve" smooth="yes"/>
			<point x="170" y="205"/>
			<point x="130" y="134"/>
			<point x="80" y="88" type="curve" smooth="yes"/>
			<point x="71" y="80"/>
			<point x="66" y="69"/>
			<point x="66" y="56" type="curve" smooth="yes"/>
			<point x="66" y="37"/>
			<point x="84" y="21"/>
			<point x="104" y="21" type="curve" smooth="yes"/>
			<point x="112" y="21"/>
			<point x="120" y="24"/>
			<point x="127" y="29" type="curve" smooth="yes"/>
			<point x="158" y="51"/>
			<point x="193" y="62"/>
			<point x="231" y="62" type="curve" smooth="yes"/>
			<point x="270" y="62"/>
			<point x="293" y="54"/>
			<point x="329" y="40" type="curve" smooth="yes"/>
			<point x="368" y="25"/>
			<point x="390" y="18"/>
		</contour>
	</outline>
</glyph>
<glyph name="currency" format="2">
	<advance width="652"/>
	<unicode hex="00A4"/>
	<note>
		currency
	</note>
	<outline>
		<contour>
			<point x="101" y="107" type="curve" smooth="yes"/>
			<point x="109" y="107"/>
			<point x="118" y="111"/>
			<point x="127" y="118" type="curve"/>
			<point x="190" y="181" type="line"/>
			<point x="231" y="152"/>
			<point x="276" y="137"/>
			<point x="326" y="137" type="curve" smooth="yes"/>
			<point x="376" y="137"/>
			<point x="421" y="152"/>
			<point x="462" y="181" type="curve"/>
			<point x="525" y="118" type="line"/>
			<point x="534" y="111"/>
			<point x="543" y="107"/>
			<point x="552" y="107" type="curve" smooth="yes"/>
			<point x="573" y="107"/>
			<point x="589" y="125"/>
			<point x="589" y="144" type="curve" smooth="yes"/>
			<point x="589" y="155"/>
			<point x="585" y="164"/>
			<point x="578" y="171" type="curve" smooth="yes"/>
			<point x="515" y="233" type="line"/>
			<point x="544" y="275"/>
			<point x="559" y="320"/>
			<point x="559" y="370" type="curve" smooth="yes"/>
			<point x="559" y="420"/>
			<point x="544" y="465"/>
			<point x="515" y="507" type="curve"/>
			<point x="578" y="569" type="line" smooth="yes"/>
			<point x="585" y="576"/>
			<point x="589" y="585"/>
			<point x="589" y="595" type="curve" smooth="yes"/>
			<point x="589" y="615"/>
			<point x="573" y="633"/>
			<point x="552" y="633" type="curve" smooth="yes"/>
			<point x="543" y="633"/>
			<point x="534" y="629"/>
			<point x="525" y="622" type="curve"/>
			<point x="462" y="558" type="line"/>
			<point x="421" y="588"/>
			<point x="376" y="602"/>
			<point x="326" y="602" type="curve" smooth="yes"/>
			<point x="276" y="602"/>
			<point x="231" y="588"/>
			<point x="190" y="558" type="curve"/>
			<point x="127" y="622" type="line"/>
			<point x="118" y="629"/>
			<point x="109" y="633"/>
			<point x="101" y="633" type="curve" smooth="yes"/>
			<point x="79" y="633"/>
			<point x="63" y="615"/>
			<point x="63" y="595" type="curve" smooth="yes"/>
			<point x="63" y="585"/>
			<point x="67" y="576"/>
			<point x="74" y="569" type="curve" smooth="yes"/>
			<point x="138" y="507" type="line"/>
			<point x="108" y="465"/>
			<point x="94" y="420"/>
			<point x="94" y="370" type="curve" smooth="yes"/>
			<point x="94" y="320"/>
			<point x="108" y="275"/>
			<point x="138" y="233" type="curve"/>
			<point x="74" y="171" type="line" smooth="yes"/>
			<point x="67" y="164"/>
			<point x="63" y="155"/>
			<point x="63" y="144" type="curve" smooth="yes"/>
			<point x="63" y="125"/>
			<point x="79" y="107"/>
		</contour>
		<contour>
			<point x="326" y="218" type="curve" smooth="yes"/>
			<point x="271" y="218"/>
			<point x="223" y="248"/>
			<point x="195" y="295" type="curve" smooth="yes"/>
			<point x="182" y="317"/>
			<point x="175" y="342"/>
			<point x="175" y="370" type="curve" smooth="yes"/>
			<point x="175" y="425"/>
			<point x="204" y="473"/>
			<point x="251" y="501" type="curve" smooth="yes"/>
			<point x="273" y="514"/>
			<point x="299" y="521"/>
			<point x="326" y="521" type="curve" smooth="yes"/>
			<point x="381" y="521"/>
			<point x="430" y="492"/>
			<point x="457" y="445" type="curve" smooth="yes"/>
			<point x="471" y="423"/>
			<point x="478" y="397"/>
			<point x="478" y="370" type="curve" smooth="yes"/>
			<point x="478" y="315"/>
			<point x="448" y="266"/>
			<point x="401" y="239" type="curve" smooth="yes"/>
			<point x="379" y="225"/>
			<point x="354" y="218"/>
		</contour>
	</outline>
</glyph>
<glyph name="yen" format="2">
	<advance width="643"/>
	<unicode hex="00A5"/>
	<note>
		yen
	</note>
	<outline>
		<contour>
			<point x="321" y="22" type="curve" smooth="yes"/>
			<point x="345" y="22"/>
			<point x="366" y="42"/>
			<point x="366" y="67" type="curve" smooth="yes"/>
			<point x="366" y="175" type="line"/>
			<point x="503" y="175" type="line" smooth="yes"/>
			<point x="523" y="175"/>
			<point x="540" y="192"/>
			<point x="540" y="213" type="curve" smooth="yes"/>
			<point x="540" y="233"/>
			<point x="524" y="251"/>
			<point x="503" y="251" type="curve" smooth="yes"/>
			<point x="366" y="251" type="line"/>
			<point x="366" y="311" type="line"/>
			<point x="503" y="311" type="line" smooth="yes"/>
			<point x="523" y="311"/>
			<point x="540" y="328"/>
			<point x="540" y="348" type="curve" smooth="yes"/>
			<point x="540" y="369"/>
			<point x="524" y="386"/>
			<point x="503" y="386" type="curve" smooth="yes"/>
			<point x="409" y="386" type="line"/>
			<point x="572" y="652" type="line"/>
			<point x="577" y="662"/>
			<point x="580" y="670"/>
			<point x="580" y="678" type="curve" smooth="yes"/>
			<point x="580" y="706"/>
			<point x="560" y="725"/>
			<point x="532" y="725" type="curve" smooth="yes"/>
			<point x="514" y="725"/>
			<point x="500" y="716"/>
			<point x="489" y="697" type="curve" smooth="yes"/>
			<point x="321" y="403" type="line"/>
			<point x="153" y="697" type="line" smooth="yes"/>
			<point x="143" y="716"/>
			<point x="129" y="725"/>
			<point x="110" y="725" type="curve" smooth="yes"/>
			<point x="83" y="725"/>
			<point x="63" y="706"/>
			<point x="63" y="678" type="curve" smooth="yes"/>
			<point x="63" y="670"/>
			<point x="65" y="662"/>
			<point x="70" y="652" type="curve"/>
			<point x="233" y="386" type="line"/>
			<point x="140" y="386" type="line" smooth="yes"/>
			<point x="118" y="386"/>
			<point x="103" y="369"/>
			<point x="103" y="348" type="curve" smooth="yes"/>
			<point x="103" y="328"/>
			<point x="119" y="311"/>
			<point x="140" y="311" type="curve" smooth="yes"/>
			<point x="276" y="311" type="line"/>
			<point x="276" y="251" type="line"/>
			<point x="140" y="251" type="line" smooth="yes"/>
			<point x="118" y="251"/>
			<point x="103" y="233"/>
			<point x="103" y="213" type="curve" smooth="yes"/>
			<point x="103" y="192"/>
			<point x="119" y="175"/>
			<point x="140" y="175" type="curve" smooth="yes"/>
			<point x="276" y="175" type="line"/>
			<point x="276" y="67" type="line" smooth="yes"/>
			<point x="276" y="42"/>
			<point x="298" y="22"/>
		</contour>
	</outline>
</glyph>
<glyph name="brokenbar" format="2">
	<advance width="247"/>
	<unicode hex="00A6"/>
	<note>
		brokenbar
	</note>
	<outline>
		<contour>
			<point x="123" y="383" type="curve" smooth="yes"/>
			<point x="146" y="383"/>
			<point x="164" y="400"/>
			<point x="164" y="424" type="curve" smooth="yes"/>
			<point x="164" y="713" type="line" smooth="yes"/>
			<point x="164" y="735"/>
			<point x="146" y="754"/>
			<point x="123" y="754" type="curve" smooth="yes"/>
			<point x="100" y="754"/>
			<point x="83" y="735"/>
			<point x="83" y="713" type="curve" smooth="yes"/>
			<point x="83" y="424" type="line" smooth="yes"/>
			<point x="83" y="401"/>
			<point x="101" y="383"/>
		</contour>
		<contour>
			<point x="123" y="-163" type="curve" smooth="yes"/>
			<point x="146" y="-163"/>
			<point x="164" y="-147"/>
			<point x="164" y="-123" type="curve" smooth="yes"/>
			<point x="164" y="166" type="line" smooth="yes"/>
			<point x="164" y="188"/>
			<point x="146" y="207"/>
			<point x="123" y="207" type="curve" smooth="yes"/>
			<point x="100" y="207"/>
			<point x="83" y="188"/>
			<point x="83" y="166" type="curve" smooth="yes"/>
			<point x="83" y="-123" type="line" smooth="yes"/>
			<point x="83" y="-146"/>
			<point x="101" y="-163"/>
		</contour>
	</outline>
</glyph>
<glyph name="section" format="2">
	<advance width="1000"/>
	<unicode hex="00A7"/>
	<note>
		section
	</note>
	<outline>
		<contour>
			<point x="489" y="-24" type="curve" smooth="yes"/>
			<point x="609" y="-24"/>
			<point x="679" y="39"/>
			<point x="679" y="122" type="curve" smooth="yes"/>
			<point x="679" y="172"/>
			<point x="657" y="211"/>
			<point x="616" y="239" type="curve"/>
			<point x="679" y="259"/>
			<point x="712" y="300"/>
			<point x="712" y="363" type="curve" smooth="yes"/>
			<point x="712" y="426"/>
			<point x="672" y="470"/>
			<point x="623" y="495" type="curve" smooth="yes"/>
			<point x="599" y="508"/>
			<point x="567" y="521"/>
			<point x="529" y="536" type="curve" smooth="yes"/>
			<point x="490" y="550"/>
			<point x="462" y="564"/>
			<point x="444" y="576" type="curve" smooth="yes"/>
			<point x="425" y="587"/>
			<point x="417" y="601"/>
			<point x="417" y="619" type="curve" smooth="yes"/>
			<point x="417" y="664"/>
			<point x="452" y="686"/>
			<point x="526" y="686" type="curve" smooth="yes"/>
			<point x="568" y="686"/>
			<point x="605" y="680"/>
			<point x="639" y="668" type="curve" smooth="yes"/>
			<point x="643" y="666"/>
			<point x="647" y="665"/>
			<point x="653" y="665" type="curve" smooth="yes"/>
			<point x="674" y="665"/>
			<point x="694" y="683"/>
			<point x="694" y="705" type="curve" smooth="yes"/>
			<point x="694" y="723"/>
			<point x="684" y="737"/>
			<point x="667" y="744" type="curve" smooth="yes"/>
			<point x="624" y="761"/>
			<point x="574" y="770"/>
			<point x="521" y="770" type="curve" smooth="yes"/>
			<point x="400" y="770"/>
			<point x="331" y="708"/>
			<point x="331" y="625" type="curve" smooth="yes"/>
			<point x="331" y="576"/>
			<point x="353" y="537"/>
			<point x="393" y="507" type="curve"/>
			<point x="330" y="485"/>
			<point x="298" y="444"/>
			<point x="298" y="383" type="curve" smooth="yes"/>
			<point x="298" y="320"/>
			<point x="338" y="275"/>
			<point x="388" y="251" type="curve" smooth="yes"/>
			<point x="412" y="238"/>
			<point x="442" y="225"/>
			<point x="480" y="211" type="curve" smooth="yes"/>
			<point x="520" y="196"/>
			<point x="548" y="182"/>
			<point x="565" y="172" type="curve" smooth="yes"/>
			<point x="585" y="160"/>
			<point x="593" y="145"/>
			<point x="593" y="128" type="curve" smooth="yes"/>
			<point x="593" y="83"/>
			<point x="558" y="60"/>
			<point x="483" y="60" type="curve" smooth="yes"/>
			<point x="430" y="60"/>
			<point x="384" y="69"/>
			<point x="348" y="88" type="curve" smooth="yes"/>
			<point x="340" y="92"/>
			<point x="333" y="93"/>
			<point x="327" y="93" type="curve" smooth="yes"/>
			<point x="307" y="93"/>
			<point x="288" y="76"/>
			<point x="288" y="53" type="curve" smooth="yes"/>
			<point x="288" y="41"/>
			<point x="295" y="25"/>
			<point x="304" y="20" type="curve" smooth="yes"/>
			<point x="351" y="-9"/>
			<point x="412" y="-24"/>
		</contour>
		<contour>
			<point x="556" y="272" type="curve"/>
			<point x="504" y="293" type="line" smooth="yes"/>
			<point x="438" y="318"/>
			<point x="382" y="339"/>
			<point x="382" y="389" type="curve" smooth="yes"/>
			<point x="382" y="434"/>
			<point x="405" y="463"/>
			<point x="453" y="474" type="curve"/>
			<point x="464" y="469"/>
			<point x="474" y="466"/>
			<point x="482" y="463" type="curve" smooth="yes"/>
			<point x="491" y="460"/>
			<point x="498" y="457"/>
			<point x="505" y="454" type="curve" smooth="yes"/>
			<point x="571" y="428"/>
			<point x="628" y="408"/>
			<point x="628" y="357" type="curve" smooth="yes"/>
			<point x="628" y="312"/>
			<point x="604" y="284"/>
		</contour>
	</outline>
</glyph>
<glyph name="dieresis" format="2">
	<advance width="366"/>
	<unicode hex="00A8"/>
	<note>
		dieresis
	</note>
	<outline>
		<contour>
			<point x="265" y="577" type="curve" smooth="yes"/>
			<point x="292" y="577"/>
			<point x="316" y="600"/>
			<point x="316" y="627" type="curve" smooth="yes"/>
			<point x="316" y="655"/>
			<point x="292" y="678"/>
			<point x="265" y="678" type="curve" smooth="yes"/>
			<point x="238" y="678"/>
			<point x="214" y="655"/>
			<point x="214" y="627" type="curve" smooth="yes"/>
			<point x="214" y="600"/>
			<point x="238" y="577"/>
		</contour>
		<contour>
			<point x="101" y="577" type="curve" smooth="yes"/>
			<point x="128" y="577"/>
			<point x="152" y="600"/>
			<point x="152" y="627" type="curve" smooth="yes"/>
			<point x="152" y="655"/>
			<point x="128" y="678"/>
			<point x="101" y="678" type="curve" smooth="yes"/>
			<point x="74" y="678"/>
			<point x="50" y="655"/>
			<point x="50" y="627" type="curve" smooth="yes"/>
			<point x="50" y="600"/>
			<point x="74" y="577"/>
		</contour>
	</outline>
</glyph>
<glyph name="copyright" format="2">
	<advance width="800"/>
	<unicode hex="00A9"/>
	<note>
		copyright
	</note>
	<outline>
		<contour>
			<point x="400" y="19" type="curve" smooth="yes"/>
			<point x="526" y="19"/>
			<point x="642" y="88"/>
			<point x="705" y="194" type="curve" smooth="yes"/>
			<point x="736" y="249"/>
			<point x="752" y="307"/>
			<point x="752" y="370" type="curve" smooth="yes"/>
			<point x="752" y="496"/>
			<point x="685" y="610"/>
			<point x="577" y="674" type="curve" smooth="yes"/>
			<point x="522" y="705"/>
			<point x="463" y="720"/>
			<point x="400" y="720" type="curve" smooth="yes"/>
			<point x="274" y="720"/>
			<point x="159" y="652"/>
			<point x="97" y="546" type="curve" smooth="yes"/>
			<point x="64" y="491"/>
			<point x="49" y="433"/>
			<point x="49" y="370" type="curve" smooth="yes"/>
			<point x="49" y="244"/>
			<point x="117" y="130"/>
			<point x="225" y="67" type="curve" smooth="yes"/>
			<point x="279" y="35"/>
			<point x="337" y="19"/>
		</contour>
		<contour>
			<point x="406" y="171" type="curve" smooth="yes"/>
			<point x="481" y="171"/>
			<point x="540" y="208"/>
			<point x="572" y="274" type="curve" smooth="yes"/>
			<point x="574" y="278"/>
			<point x="575" y="283"/>
			<point x="575" y="287" type="curve" smooth="yes"/>
			<point x="575" y="306"/>
			<point x="562" y="319"/>
			<point x="543" y="319" type="curve" smooth="yes"/>
			<point x="529" y="319"/>
			<point x="520" y="311"/>
			<point x="512" y="297" type="curve" smooth="yes"/>
			<point x="487" y="254"/>
			<point x="452" y="232"/>
			<point x="406" y="232" type="curve" smooth="yes"/>
			<point x="329" y="232"/>
			<point x="284" y="292"/>
			<point x="284" y="370" type="curve" smooth="yes"/>
			<point x="284" y="448"/>
			<point x="329" y="508"/>
			<point x="406" y="508" type="curve" smooth="yes"/>
			<point x="452" y="508"/>
			<point x="487" y="486"/>
			<point x="512" y="443" type="curve" smooth="yes"/>
			<point x="520" y="428"/>
			<point x="529" y="421"/>
			<point x="543" y="421" type="curve" smooth="yes"/>
			<point x="562" y="421"/>
			<point x="575" y="436"/>
			<point x="575" y="453" type="curve" smooth="yes"/>
			<point x="575" y="457"/>
			<point x="574" y="462"/>
			<point x="572" y="466" type="curve" smooth="yes"/>
			<point x="540" y="532"/>
			<point x="481" y="569"/>
			<point x="406" y="569" type="curve" smooth="yes"/>
			<point x="333" y="569"/>
			<point x="273" y="536"/>
			<point x="241" y="474" type="curve" smooth="yes"/>
			<point x="225" y="444"/>
			<point x="217" y="410"/>
			<point x="217" y="370" type="curve" smooth="yes"/>
			<point x="217" y="293"/>
			<point x="250" y="228"/>
			<point x="308" y="195" type="curve" smooth="yes"/>
			<point x="337" y="178"/>
			<point x="369" y="171"/>
		</contour>
		<contour>
			<point x="399" y="72" type="curve" smooth="yes"/>
			<point x="291" y="72"/>
			<point x="196" y="131"/>
			<point x="143" y="221" type="curve" smooth="yes"/>
			<point x="115" y="266"/>
			<point x="102" y="316"/>
			<point x="102" y="370" type="curve" smooth="yes"/>
			<point x="102" y="478"/>
			<point x="160" y="573"/>
			<point x="251" y="628" type="curve" smooth="yes"/>
			<point x="298" y="655"/>
			<point x="347" y="668"/>
			<point x="399" y="668" type="curve" smooth="yes"/>
			<point x="509" y="668"/>
			<point x="604" y="609"/>
			<point x="659" y="518" type="curve" smooth="yes"/>
			<point x="687" y="471"/>
			<point x="699" y="423"/>
			<point x="699" y="370" type="curve" smooth="yes"/>
			<point x="699" y="261"/>
			<point x="642" y="167"/>
			<point x="550" y="113" type="curve" smooth="yes"/>
			<point x="505" y="86"/>
			<point x="455" y="72"/>
		</contour>
	</outline>
</glyph>
<glyph name="ordfeminine" format="2">
	<advance width="474"/>
	<unicode hex="00AA"/>
	<note>
		ordfeminine
	</note>
	<outline>
		<contour>
			<point x="192" y="359" type="curve" smooth="yes"/>
			<point x="246" y="359"/>
			<point x="286" y="378"/>
			<point x="310" y="404" type="curve"/>
			<point x="310" y="398" type="line" smooth="yes"/>
			<point x="310" y="379"/>
			<point x="326" y="362"/>
			<point x="346" y="362" type="curve" smooth="yes"/>
			<point x="365" y="362"/>
			<point x="382" y="379"/>
			<point x="382" y="398" type="curve" smooth="yes"/>
			<point x="382" y="585" type="line" smooth="yes"/>
			<point x="382" y="659"/>
			<point x="332" y="721"/>
			<point x="238" y="721" type="curve" smooth="yes"/>
			<point x="199" y="721"/>
			<point x="160" y="714"/>
			<point x="120" y="698" type="curve" smooth="yes"/>
			<point x="106" y="693"/>
			<point x="97" y="680"/>
			<point x="97" y="668" type="curve" smooth="yes"/>
			<point x="97" y="651"/>
			<point x="112" y="635"/>
			<point x="129" y="635" type="curve" smooth="yes"/>
			<point x="132" y="635"/>
			<point x="134" y="636"/>
			<point x="137" y="636" type="curve"/>
			<point x="138" y="637"/>
			<point x="138" y="637"/>
			<point x="139" y="637" type="curve"/>
			<point x="166" y="647"/>
			<point x="195" y="653"/>
			<point x="228" y="653" type="curve" smooth="yes"/>
			<point x="283" y="653"/>
			<point x="310" y="630"/>
			<point x="310" y="571" type="curve" smooth="yes"/>
			<point x="310" y="570" type="line"/>
			<point x="236" y="570" type="line" smooth="yes"/>
			<point x="135" y="570"/>
			<point x="78" y="534"/>
			<point x="78" y="465" type="curve" smooth="yes"/>
			<point x="78" y="401"/>
			<point x="130" y="359"/>
		</contour>
		<contour>
			<point x="92" y="252" type="curve" smooth="yes"/>
			<point x="368" y="252" type="line" smooth="yes"/>
			<point x="383" y="252"/>
			<point x="396" y="265"/>
			<point x="396" y="280" type="curve" smooth="yes"/>
			<point x="396" y="295"/>
			<point x="383" y="308"/>
			<point x="368" y="308" type="curve" smooth="yes"/>
			<point x="92" y="308" type="line" smooth="yes"/>
			<point x="77" y="308"/>
			<point x="63" y="295"/>
			<point x="63" y="280" type="curve" smooth="yes"/>
			<point x="63" y="265"/>
			<point x="77" y="252"/>
		</contour>
		<contour>
			<point x="215" y="425" type="curve" smooth="yes"/>
			<point x="171" y="425"/>
			<point x="150" y="440"/>
			<point x="150" y="470" type="curve" smooth="yes"/>
			<point x="150" y="501"/>
			<point x="182" y="515"/>
			<point x="244" y="515" type="curve" smooth="yes"/>
			<point x="310" y="515" type="line"/>
			<point x="310" y="469" type="line"/>
			<point x="285" y="444"/>
			<point x="251" y="425"/>
		</contour>
	</outline>
</glyph>
<glyph name="guillemetleft" format="2">
  <advance height="1000" width="571"/>
  <unicode hex="00AB"/>
  <note>
guillemotleft
</note>
  <outline>
    <contour>
      <point x="461" y="19" type="curve" smooth="yes"/>
      <point x="483" y="19"/>
      <point x="500" y="35"/>
      <point x="500" y="58" type="curve" smooth="yes"/>
      <point x="500" y="67"/>
      <point x="498" y="76"/>
      <point x="491" y="84" type="curve" smooth="yes"/>
      <point x="348" y="235" type="line" smooth="yes"/>
      <point x="340" y="244"/>
      <point x="340" y="254"/>
      <point x="348" y="263" type="curve" smooth="yes"/>
      <point x="491" y="414" type="line"/>
      <point x="497" y="422"/>
      <point x="500" y="431"/>
      <point x="500" y="440" type="curve" smooth="yes"/>
      <point x="500" y="463"/>
      <point x="483" y="479"/>
      <point x="461" y="479" type="curve" smooth="yes"/>
      <point x="449" y="479"/>
      <point x="439" y="477"/>
      <point x="433" y="469" type="curve"/>
      <point x="272" y="292" type="line"/>
      <point x="262" y="279"/>
      <point x="255" y="265"/>
      <point x="255" y="249" type="curve" smooth="yes"/>
      <point x="255" y="233"/>
      <point x="262" y="219"/>
      <point x="272" y="206" type="curve"/>
      <point x="433" y="29" type="line"/>
      <point x="439" y="21"/>
      <point x="449" y="19"/>
    </contour>
    <contour>
      <point x="258" y="19" type="curve" smooth="yes"/>
      <point x="280" y="19"/>
      <point x="297" y="35"/>
      <point x="297" y="58" type="curve" smooth="yes"/>
      <point x="297" y="67"/>
      <point x="295" y="76"/>
      <point x="288" y="84" type="curve" smooth="yes"/>
      <point x="145" y="235" type="line" smooth="yes"/>
      <point x="137" y="244"/>
      <point x="137" y="254"/>
      <point x="145" y="263" type="curve" smooth="yes"/>
      <point x="288" y="414" type="line"/>
      <point x="294" y="422"/>
      <point x="297" y="431"/>
      <point x="297" y="440" type="curve" smooth="yes"/>
      <point x="297" y="463"/>
      <point x="280" y="479"/>
      <point x="258" y="479" type="curve" smooth="yes"/>
      <point x="246" y="479"/>
      <point x="236" y="477"/>
      <point x="229" y="469" type="curve" smooth="yes"/>
      <point x="69" y="292" type="line"/>
      <point x="59" y="279"/>
      <point x="52" y="265"/>
      <point x="52" y="249" type="curve" smooth="yes"/>
      <point x="52" y="233"/>
      <point x="59" y="219"/>
      <point x="69" y="206" type="curve"/>
      <point x="229" y="29" type="line" smooth="yes"/>
      <point x="236" y="21"/>
      <point x="246" y="19"/>
    </contour>
  </outline>
</glyph>
<glyph name="logicalnot" format="2">
	<advance width="565"/>
	<unicode hex="00AC"/>
	<note>
		logicalnot
	</note>
	<outline>
		<contour>
			<point x="447" y="192" type="curve" smooth="yes"/>
			<point x="468" y="192"/>
			<point x="485" y="208"/>
			<point x="485" y="229" type="curve" smooth="yes"/>
			<point x="485" y="362" type="line" smooth="yes"/>
			<point x="485" y="384"/>
			<point x="466" y="404"/>
			<point x="443" y="404" type="curve" smooth="yes"/>
			<point x="106" y="404" type="line" smooth="yes"/>
			<point x="87" y="404"/>
			<point x="70" y="387"/>
			<point x="70" y="368" type="curve" smooth="yes"/>
			<point x="70" y="348"/>
			<point x="87" y="332"/>
			<point x="106" y="332" type="curve" smooth="yes"/>
			<point x="410" y="332" type="line"/>
			<point x="410" y="229" type="line" smooth="yes"/>
			<point x="410" y="209"/>
			<point x="427" y="192"/>
		</contour>
	</outline>
</glyph>
<glyph name="registered" format="2">
	<advance width="800"/>
	<unicode hex="00AE"/>
	<note>
		registered
	</note>
	<outline>
		<contour>
			<point x="400" y="18" type="curve" smooth="yes"/>
			<point x="526" y="18"/>
			<point x="642" y="87"/>
			<point x="705" y="194" type="curve" smooth="yes"/>
			<point x="736" y="249"/>
			<point x="752" y="307"/>
			<point x="752" y="370" type="curve" smooth="yes"/>
			<point x="752" y="496"/>
			<point x="685" y="611"/>
			<point x="577" y="675" type="curve" smooth="yes"/>
			<point x="522" y="706"/>
			<point x="463" y="721"/>
			<point x="400" y="721" type="curve" smooth="yes"/>
			<point x="274" y="721"/>
			<point x="159" y="654"/>
			<point x="97" y="547" type="curve" smooth="yes"/>
			<point x="64" y="492"/>
			<point x="49" y="433"/>
			<point x="49" y="370" type="curve" smooth="yes"/>
			<point x="49" y="244"/>
			<point x="117" y="129"/>
			<point x="225" y="66" type="curve" smooth="yes"/>
			<point x="279" y="34"/>
			<point x="337" y="18"/>
		</contour>
		<contour>
			<point x="399" y="71" type="curve" smooth="yes"/>
			<point x="291" y="71"/>
			<point x="196" y="130"/>
			<point x="143" y="221" type="curve" smooth="yes"/>
			<point x="115" y="266"/>
			<point x="102" y="316"/>
			<point x="102" y="371" type="curve" smooth="yes"/>
			<point x="102" y="479"/>
			<point x="160" y="574"/>
			<point x="251" y="629" type="curve" smooth="yes"/>
			<point x="298" y="656"/>
			<point x="347" y="669"/>
			<point x="399" y="669" type="curve" smooth="yes"/>
			<point x="509" y="669"/>
			<point x="604" y="610"/>
			<point x="659" y="519" type="curve" smooth="yes"/>
			<point x="687" y="472"/>
			<point x="699" y="424"/>
			<point x="699" y="371" type="curve" smooth="yes"/>
			<point x="699" y="261"/>
			<point x="642" y="166"/>
			<point x="550" y="112" type="curve" smooth="yes"/>
			<point x="505" y="85"/>
			<point x="455" y="71"/>
		</contour>
		<contour>
			<point x="287" y="170" type="curve" smooth="yes"/>
			<point x="306" y="170"/>
			<point x="321" y="183"/>
			<point x="321" y="203" type="curve" smooth="yes"/>
			<point x="321" y="320" type="line"/>
			<point x="427" y="320" type="line" smooth="yes"/>
			<point x="488" y="320"/>
			<point x="497" y="277"/>
			<point x="497" y="221" type="curve" smooth="yes"/>
			<point x="497" y="204" type="line" smooth="yes"/>
			<point x="497" y="185"/>
			<point x="513" y="170"/>
			<point x="531" y="170" type="curve" smooth="yes"/>
			<point x="550" y="170"/>
			<point x="565" y="185"/>
			<point x="565" y="204" type="curve" smooth="yes"/>
			<point x="565" y="230" type="line" smooth="yes"/>
			<point x="565" y="300"/>
			<point x="535" y="339"/>
			<point x="500" y="352" type="curve"/>
			<point x="541" y="368"/>
			<point x="570" y="401"/>
			<point x="570" y="447" type="curve" smooth="yes"/>
			<point x="570" y="522"/>
			<point x="515" y="565"/>
			<point x="416" y="565" type="curve" smooth="yes"/>
			<point x="299" y="565" type="line" smooth="yes"/>
			<point x="273" y="565"/>
			<point x="254" y="544"/>
			<point x="254" y="519" type="curve" smooth="yes"/>
			<point x="254" y="203" type="line" smooth="yes"/>
			<point x="254" y="184"/>
			<point x="269" y="170"/>
		</contour>
		<contour>
			<point x="321" y="380" type="line"/>
			<point x="321" y="495" type="line" smooth="yes"/>
			<point x="321" y="503"/>
			<point x="325" y="507"/>
			<point x="333" y="507" type="curve" smooth="yes"/>
			<point x="411" y="507" type="line" smooth="yes"/>
			<point x="476" y="507"/>
			<point x="504" y="486"/>
			<point x="504" y="445" type="curve" smooth="yes"/>
			<point x="504" y="405"/>
			<point x="471" y="380"/>
			<point x="413" y="380" type="curve" smooth="yes"/>
		</contour>
	</outline>
</glyph>
<glyph name="macron" format="2">
	<advance width="305"/>
	<unicode hex="00AF"/>
	<note>
		macron
	</note>
	<outline>
		<contour>
			<point x="38" y="604" type="curve" smooth="yes"/>
			<point x="267" y="604" type="line" smooth="yes"/>
			<point x="283" y="604"/>
			<point x="297" y="618"/>
			<point x="297" y="634" type="curve" smooth="yes"/>
			<point x="297" y="651"/>
			<point x="283" y="665"/>
			<point x="267" y="665" type="curve" smooth="yes"/>
			<point x="38" y="665" type="line" smooth="yes"/>
			<point x="21" y="665"/>
			<point x="8" y="651"/>
			<point x="8" y="634" type="curve" smooth="yes"/>
			<point x="8" y="618"/>
			<point x="21" y="604"/>
		</contour>
	</outline>
</glyph>
<glyph name="degree" format="2">
	<advance width="369"/>
	<unicode hex="00B0"/>
	<note>
		degree
	</note>
	<outline>
		<contour>
			<point x="185" y="452" type="curve" smooth="yes"/>
			<point x="258" y="452"/>
			<point x="319" y="513"/>
			<point x="319" y="587" type="curve" smooth="yes"/>
			<point x="319" y="660"/>
			<point x="258" y="721"/>
			<point x="185" y="721" type="curve" smooth="yes"/>
			<point x="111" y="721"/>
			<point x="50" y="660"/>
			<point x="50" y="587" type="curve" smooth="yes"/>
			<point x="50" y="513"/>
			<point x="111" y="452"/>
		</contour>
		<contour>
			<point x="185" y="505" type="curve" smooth="yes"/>
			<point x="139" y="505"/>
			<point x="103" y="541"/>
			<point x="103" y="587" type="curve" smooth="yes"/>
			<point x="103" y="633"/>
			<point x="139" y="669"/>
			<point x="185" y="669" type="curve" smooth="yes"/>
			<point x="230" y="669"/>
			<point x="267" y="633"/>
			<point x="267" y="587" type="curve" smooth="yes"/>
			<point x="267" y="541"/>
			<point x="230" y="505"/>
		</contour>
	</outline>
</glyph>
<glyph name="plusminus" format="2">
	<advance width="592"/>
	<unicode hex="00B1"/>
	<note>
		plusminus
	</note>
	<outline>
		<contour>
			<point x="296" y="170" type="curve" smooth="yes"/>
			<point x="318" y="170"/>
			<point x="335" y="188"/>
			<point x="335" y="209" type="curve" smooth="yes"/>
			<point x="335" y="362" type="line"/>
			<point x="493" y="362" type="line" smooth="yes"/>
			<point x="516" y="362"/>
			<point x="532" y="380"/>
			<point x="532" y="400" type="curve" smooth="yes"/>
			<point x="532" y="423"/>
			<point x="516" y="439"/>
			<point x="493" y="439" type="curve" smooth="yes"/>
			<point x="335" y="439" type="line"/>
			<point x="335" y="592" type="line" smooth="yes"/>
			<point x="335" y="615"/>
			<point x="318" y="632"/>
			<point x="296" y="632" type="curve" smooth="yes"/>
			<point x="275" y="632"/>
			<point x="257" y="615"/>
			<point x="257" y="592" type="curve" smooth="yes"/>
			<point x="257" y="439" type="line"/>
			<point x="98" y="439" type="line" smooth="yes"/>
			<point x="77" y="439"/>
			<point x="60" y="423"/>
			<point x="60" y="400" type="curve" smooth="yes"/>
			<point x="60" y="380"/>
			<point x="77" y="362"/>
			<point x="98" y="362" type="curve" smooth="yes"/>
			<point x="257" y="362" type="line"/>
			<point x="257" y="209" type="line" smooth="yes"/>
			<point x="257" y="188"/>
			<point x="275" y="170"/>
		</contour>
		<contour>
			<point x="98" y="28" type="curve" smooth="yes"/>
			<point x="493" y="28" type="line" smooth="yes"/>
			<point x="516" y="28"/>
			<point x="532" y="46"/>
			<point x="532" y="66" type="curve" smooth="yes"/>
			<point x="532" y="89"/>
			<point x="516" y="105"/>
			<point x="493" y="105" type="curve" smooth="yes"/>
			<point x="98" y="105" type="line" smooth="yes"/>
			<point x="77" y="105"/>
			<point x="60" y="89"/>
			<point x="60" y="66" type="curve" smooth="yes"/>
			<point x="60" y="46"/>
			<point x="77" y="28"/>
		</contour>
	</outline>
</glyph>
<glyph name="twosuperior" format="2">
	<advance width="361"/>
	<unicode hex="00B2"/>
	<note>
		uni00B2
	</note>
	<outline>
		<contour>
			<point x="75" y="331" type="curve" smooth="yes"/>
			<point x="290" y="331" type="line" smooth="yes"/>
			<point x="307" y="331"/>
			<point x="320" y="342"/>
			<point x="320" y="360" type="curve" smooth="yes"/>
			<point x="320" y="377"/>
			<point x="307" y="390"/>
			<point x="290" y="390" type="curve" smooth="yes"/>
			<point x="106" y="390" type="line"/>
			<point x="118" y="405"/>
			<point x="140" y="420"/>
			<point x="179" y="445" type="curve" smooth="yes"/>
			<point x="236" y="483"/>
			<point x="270" y="506"/>
			<point x="297" y="545" type="curve" smooth="yes"/>
			<point x="310" y="563"/>
			<point x="316" y="585"/>
			<point x="316" y="607" type="curve" smooth="yes"/>
			<point x="316" y="674"/>
			<point x="260" y="722"/>
			<point x="186" y="722" type="curve" smooth="yes"/>
			<point x="138" y="722"/>
			<point x="95" y="712"/>
			<point x="59" y="690" type="curve" smooth="yes"/>
			<point x="49" y="684"/>
			<point x="44" y="675"/>
			<point x="44" y="665" type="curve" smooth="yes"/>
			<point x="44" y="647"/>
			<point x="57" y="636"/>
			<point x="72" y="636" type="curve" smooth="yes"/>
			<point x="76" y="636"/>
			<point x="81" y="637"/>
			<point x="85" y="639" type="curve" smooth="yes"/>
			<point x="111" y="654"/>
			<point x="141" y="661"/>
			<point x="178" y="661" type="curve" smooth="yes"/>
			<point x="227" y="661"/>
			<point x="253" y="639"/>
			<point x="253" y="603" type="curve" smooth="yes"/>
			<point x="253" y="588"/>
			<point x="246" y="573"/>
			<point x="230" y="560" type="curve" smooth="yes"/>
			<point x="215" y="547"/>
			<point x="190" y="529"/>
			<point x="158" y="508" type="curve" smooth="yes"/>
			<point x="79" y="458"/>
			<point x="36" y="425"/>
			<point x="36" y="371" type="curve" smooth="yes"/>
			<point x="36" y="350"/>
			<point x="53" y="331"/>
		</contour>
	</outline>
</glyph>
<glyph name="acute" format="2">
  <advance height="1000" width="319"/>
  <unicode hex="00B4"/>
  <note>
acute
</note>
  <outline>
    <contour>
      <point x="123" y="553" type="curve" smooth="yes"/>
      <point x="132" y="553"/>
      <point x="140" y="557"/>
      <point x="146" y="563" type="curve"/>
      <point x="213" y="644" type="line"/>
      <point x="220" y="650"/>
      <point x="223" y="660"/>
      <point x="223" y="669" type="curve" smooth="yes"/>
      <point x="223" y="691"/>
      <point x="206" y="706"/>
      <point x="186" y="706" type="curve" smooth="yes"/>
      <point x="171" y="706"/>
      <point x="159" y="700"/>
      <point x="153" y="687" type="curve"/>
      <point x="103" y="600" type="line" smooth="yes"/>
      <point x="99" y="593"/>
      <point x="96" y="587"/>
      <point x="96" y="580" type="curve" smooth="yes"/>
      <point x="96" y="563"/>
      <point x="108" y="553"/>
    </contour>
  </outline>
</glyph>
<glyph name="micro" format="2">
  <advance width="590"/>
  <unicode hex="00B5"/>
  <note>
uni00B5
</note>
  <outline>
    <contour>
      <point x="126" y="-214" type="curve" smooth="yes"/>
      <point x="150" y="-214"/>
      <point x="172" y="-194"/>
      <point x="172" y="-169" type="curve" smooth="yes"/>
      <point x="172" y="15" type="line"/>
      <point x="198" y="-3"/>
      <point x="229" y="-11"/>
      <point x="262" y="-11" type="curve" smooth="yes"/>
      <point x="339" y="-11"/>
      <point x="387" y="22"/>
      <point x="438" y="77" type="curve"/>
      <point x="438" y="40" type="line" smooth="yes"/>
      <point x="438" y="16"/>
      <point x="459" y="-6"/>
      <point x="483" y="-6" type="curve" smooth="yes"/>
      <point x="509" y="-6"/>
      <point x="528" y="16"/>
      <point x="528" y="40" type="curve" smooth="yes"/>
      <point x="528" y="459" type="line" smooth="yes"/>
      <point x="528" y="483"/>
      <point x="508" y="504"/>
      <point x="483" y="504" type="curve" smooth="yes"/>
      <point x="459" y="504"/>
      <point x="438" y="484"/>
      <point x="438" y="459" type="curve" smooth="yes"/>
      <point x="438" y="166" type="line"/>
      <point x="392" y="109"/>
      <point x="344" y="73"/>
      <point x="278" y="73" type="curve" smooth="yes"/>
      <point x="208" y="73"/>
      <point x="172" y="112"/>
      <point x="172" y="191" type="curve" smooth="yes"/>
      <point x="172" y="459" type="line" smooth="yes"/>
      <point x="172" y="483"/>
      <point x="151" y="504"/>
      <point x="127" y="504" type="curve" smooth="yes"/>
      <point x="103" y="504"/>
      <point x="81" y="484"/>
      <point x="81" y="459" type="curve" smooth="yes"/>
      <point x="81" y="-169" type="line" smooth="yes"/>
      <point x="81" y="-193"/>
      <point x="102" y="-214"/>
    </contour>
  </outline>
</glyph>
<glyph name="paragraph" format="2">
	<advance width="715"/>
	<unicode hex="00B6"/>
	<note>
		paragraph
	</note>
	<outline>
		<contour>
			<point x="362" y="-191" type="curve" smooth="yes"/>
			<point x="385" y="-191"/>
			<point x="402" y="-173"/>
			<point x="402" y="-151" type="curve" smooth="yes"/>
			<point x="402" y="633" type="line"/>
			<point x="510" y="633" type="line"/>
			<point x="510" y="-151" type="line" smooth="yes"/>
			<point x="510" y="-173"/>
			<point x="528" y="-191"/>
			<point x="549" y="-191" type="curve" smooth="yes"/>
			<point x="571" y="-191"/>
			<point x="589" y="-173"/>
			<point x="589" y="-151" type="curve" smooth="yes"/>
			<point x="589" y="633" type="line"/>
			<point x="633" y="633" type="line" smooth="yes"/>
			<point x="655" y="633"/>
			<point x="673" y="651"/>
			<point x="673" y="672" type="curve" smooth="yes"/>
			<point x="673" y="694"/>
			<point x="655" y="712"/>
			<point x="633" y="712" type="curve" smooth="yes"/>
			<point x="289" y="712" type="line" smooth="yes"/>
			<point x="198" y="712"/>
			<point x="116" y="664"/>
			<point x="71" y="587" type="curve" smooth="yes"/>
			<point x="48" y="547"/>
			<point x="37" y="505"/>
			<point x="37" y="460" type="curve" smooth="yes"/>
			<point x="37" y="369"/>
			<point x="85" y="287"/>
			<point x="162" y="242" type="curve" smooth="yes"/>
			<point x="202" y="218"/>
			<point x="244" y="208"/>
			<point x="289" y="208" type="curve" smooth="yes"/>
			<point x="323" y="208" type="line"/>
			<point x="323" y="-151" type="line" smooth="yes"/>
			<point x="323" y="-173"/>
			<point x="342" y="-191"/>
		</contour>
	</outline>
</glyph>
<glyph name="periodcentered" format="2">
	<advance width="254"/>
	<unicode hex="00B7"/>
	<note>
		periodcentered
	</note>
	<outline>
		<contour>
			<point x="121" y="313" type="curve" smooth="yes"/>
			<point x="133" y="313" type="line" smooth="yes"/>
			<point x="170" y="313"/>
			<point x="201" y="344"/>
			<point x="201" y="382" type="curve" smooth="yes"/>
			<point x="201" y="389" type="line" smooth="yes"/>
			<point x="201" y="426"/>
			<point x="170" y="458"/>
			<point x="133" y="458" type="curve" smooth="yes"/>
			<point x="121" y="458" type="line" smooth="yes"/>
			<point x="84" y="458"/>
			<point x="53" y="426"/>
			<point x="53" y="389" type="curve" smooth="yes"/>
			<point x="53" y="382" type="line" smooth="yes"/>
			<point x="53" y="344"/>
			<point x="84" y="313"/>
		</contour>
	</outline>
</glyph>
<glyph name="cedilla" format="2">
	<advance width="300"/>
	<unicode hex="00B8"/>
	<note>
		cedilla
	</note>
	<outline>
		<contour>
			<point x="183" y="-188" type="curve" smooth="yes"/>
			<point x="254" y="-188"/>
			<point x="292" y="-157"/>
			<point x="292" y="-97" type="curve" smooth="yes"/>
			<point x="292" y="-56"/>
			<point x="260" y="-28"/>
			<point x="216" y="-28" type="curve" smooth="yes"/>
			<point x="205" y="-28"/>
			<point x="194" y="-29"/>
			<point x="185" y="-31" type="curve"/>
			<point x="229" y="47" type="line"/>
			<point x="187" y="47" type="line"/>
			<point x="123" y="-53" type="line" smooth="yes"/>
			<point x="120" y="-58"/>
			<point x="119" y="-63"/>
			<point x="119" y="-68" type="curve" smooth="yes"/>
			<point x="119" y="-77"/>
			<point x="129" y="-84"/>
			<point x="138" y="-84" type="curve" smooth="yes"/>
			<point x="141" y="-84"/>
			<point x="144" y="-83"/>
			<point x="147" y="-81" type="curve"/>
			<point x="162" y="-75"/>
			<point x="176" y="-71"/>
			<point x="190" y="-71" type="curve" smooth="yes"/>
			<point x="212" y="-71"/>
			<point x="225" y="-82"/>
			<point x="225" y="-100" type="curve" smooth="yes"/>
			<point x="225" y="-129"/>
			<point x="207" y="-144"/>
			<point x="170" y="-144" type="curve" smooth="yes"/>
			<point x="151" y="-144"/>
			<point x="133" y="-138"/>
			<point x="112" y="-127" type="curve" smooth="yes"/>
			<point x="108" y="-125"/>
			<point x="105" y="-124"/>
			<point x="103" y="-124" type="curve" smooth="yes"/>
			<point x="91" y="-124"/>
			<point x="83" y="-133"/>
			<point x="83" y="-145" type="curve" smooth="yes"/>
			<point x="83" y="-151"/>
			<point x="86" y="-156"/>
			<point x="94" y="-162" type="curve" smooth="yes"/>
			<point x="122" y="-179"/>
			<point x="151" y="-188"/>
		</contour>
	</outline>
</glyph>
<glyph name="ordmasculine" format="2">
	<advance width="502"/>
	<unicode hex="00BA"/>
	<note>
		ordmasculine
	</note>
	<outline>
		<contour>
			<point x="251" y="359" type="curve" smooth="yes"/>
			<point x="356" y="359"/>
			<point x="426" y="432"/>
			<point x="426" y="541" type="curve" smooth="yes"/>
			<point x="426" y="649"/>
			<point x="357" y="721"/>
			<point x="251" y="721" type="curve" smooth="yes"/>
			<point x="145" y="721"/>
			<point x="76" y="649"/>
			<point x="76" y="541" type="curve" smooth="yes"/>
			<point x="76" y="432"/>
			<point x="146" y="359"/>
		</contour>
		<contour>
			<point x="96" y="252" type="curve" smooth="yes"/>
			<point x="406" y="252" type="line" smooth="yes"/>
			<point x="421" y="252"/>
			<point x="435" y="265"/>
			<point x="435" y="280" type="curve" smooth="yes"/>
			<point x="435" y="295"/>
			<point x="421" y="308"/>
			<point x="406" y="308" type="curve" smooth="yes"/>
			<point x="96" y="308" type="line" smooth="yes"/>
			<point x="81" y="308"/>
			<point x="67" y="295"/>
			<point x="67" y="280" type="curve" smooth="yes"/>
			<point x="67" y="265"/>
			<point x="81" y="252"/>
		</contour>
		<contour>
			<point x="251" y="424" type="curve" smooth="yes"/>
			<point x="196" y="424"/>
			<point x="148" y="463"/>
			<point x="148" y="542" type="curve" smooth="yes"/>
			<point x="148" y="620"/>
			<point x="196" y="658"/>
			<point x="251" y="658" type="curve" smooth="yes"/>
			<point x="306" y="658"/>
			<point x="354" y="620"/>
			<point x="354" y="542" type="curve" smooth="yes"/>
			<point x="354" y="463"/>
			<point x="306" y="424"/>
		</contour>
	</outline>
</glyph>
<glyph name="guillemetright" format="2">
  <advance height="1000" width="571"/>
  <unicode hex="00BB"/>
  <note>
guillemotright
</note>
  <outline>
    <contour>
      <point x="313" y="19" type="curve" smooth="yes"/>
      <point x="325" y="19"/>
      <point x="335" y="21"/>
      <point x="342" y="29" type="curve" smooth="yes"/>
      <point x="502" y="206" type="line" smooth="yes"/>
      <point x="513" y="219"/>
      <point x="520" y="233"/>
      <point x="520" y="249" type="curve" smooth="yes"/>
      <point x="520" y="265"/>
      <point x="513" y="279"/>
      <point x="502" y="292" type="curve" smooth="yes"/>
      <point x="342" y="469" type="line" smooth="yes"/>
      <point x="335" y="477"/>
      <point x="325" y="479"/>
      <point x="313" y="479" type="curve" smooth="yes"/>
      <point x="291" y="479"/>
      <point x="274" y="463"/>
      <point x="274" y="440" type="curve" smooth="yes"/>
      <point x="274" y="431"/>
      <point x="277" y="422"/>
      <point x="283" y="414" type="curve"/>
      <point x="427" y="263" type="line" smooth="yes"/>
      <point x="435" y="254"/>
      <point x="435" y="244"/>
      <point x="427" y="235" type="curve" smooth="yes"/>
      <point x="283" y="84" type="line" smooth="yes"/>
      <point x="276" y="76"/>
      <point x="274" y="67"/>
      <point x="274" y="58" type="curve" smooth="yes"/>
      <point x="274" y="35"/>
      <point x="291" y="19"/>
    </contour>
    <contour>
      <point x="110" y="19" type="curve" smooth="yes"/>
      <point x="122" y="19"/>
      <point x="132" y="21"/>
      <point x="139" y="29" type="curve" smooth="yes"/>
      <point x="299" y="206" type="line" smooth="yes"/>
      <point x="310" y="219"/>
      <point x="316" y="233"/>
      <point x="316" y="249" type="curve" smooth="yes"/>
      <point x="316" y="265"/>
      <point x="310" y="279"/>
      <point x="299" y="292" type="curve" smooth="yes"/>
      <point x="139" y="469" type="line" smooth="yes"/>
      <point x="132" y="477"/>
      <point x="122" y="479"/>
      <point x="110" y="479" type="curve" smooth="yes"/>
      <point x="88" y="479"/>
      <point x="71" y="463"/>
      <point x="71" y="440" type="curve" smooth="yes"/>
      <point x="71" y="431"/>
      <point x="74" y="422"/>
      <point x="80" y="414" type="curve"/>
      <point x="224" y="263" type="line"/>
      <point x="231" y="254"/>
      <point x="231" y="244"/>
      <point x="224" y="235" type="curve"/>
      <point x="80" y="84" type="line" smooth="yes"/>
      <point x="73" y="76"/>
      <point x="71" y="67"/>
      <point x="71" y="58" type="curve" smooth="yes"/>
      <point x="71" y="35"/>
      <point x="88" y="19"/>
    </contour>
  </outline>
</glyph>
<glyph name="onequarter" format="2">
	<advance width="1000"/>
	<unicode hex="00BC"/>
	<note>
		onequarter
	</note>
	<outline>
		<contour>
			<point x="292" y="5" type="curve" smooth="yes"/>
			<point x="305" y="5"/>
			<point x="314" y="9"/>
			<point x="320" y="18" type="curve" smooth="yes"/>
			<point x="725" y="685" type="line"/>
			<point x="727" y="692"/>
			<point x="729" y="698"/>
			<point x="729" y="703" type="curve" smooth="yes"/>
			<point x="729" y="723"/>
			<point x="714" y="737"/>
			<point x="695" y="737" type="curve" smooth="yes"/>
			<point x="683" y="737"/>
			<point x="673" y="732"/>
			<point x="667" y="723" type="curve" smooth="yes"/>
			<point x="263" y="56" type="line" smooth="yes"/>
			<point x="260" y="50"/>
			<point x="258" y="44"/>
			<point x="258" y="39" type="curve" smooth="yes"/>
			<point x="258" y="18"/>
			<point x="273" y="5"/>
		</contour>
		<contour>
			<point x="144" y="331" type="curve" smooth="yes"/>
			<point x="314" y="331" type="line" smooth="yes"/>
			<point x="331" y="331"/>
			<point x="345" y="342"/>
			<point x="345" y="360" type="curve" smooth="yes"/>
			<point x="345" y="377"/>
			<point x="331" y="390"/>
			<point x="314" y="390" type="curve" smooth="yes"/>
			<point x="267" y="390" type="line"/>
			<point x="267" y="678" type="line" smooth="yes"/>
			<point x="267" y="702"/>
			<point x="249" y="721"/>
			<point x="224" y="721" type="curve" smooth="yes"/>
			<point x="217" y="721"/>
			<point x="211" y="719"/>
			<point x="204" y="717" type="curve"/>
			<point x="134" y="680" type="line"/>
			<point x="121" y="675"/>
			<point x="114" y="663"/>
			<point x="114" y="652" type="curve" smooth="yes"/>
			<point x="114" y="634"/>
			<point x="129" y="622"/>
			<point x="144" y="622" type="curve" smooth="yes"/>
			<point x="147" y="622"/>
			<point x="152" y="623"/>
			<point x="159" y="626" type="curve" smooth="yes"/>
			<point x="202" y="646" type="line"/>
			<point x="202" y="390" type="line"/>
			<point x="144" y="390" type="line" smooth="yes"/>
			<point x="127" y="390"/>
			<point x="115" y="377"/>
			<point x="115" y="360" type="curve" smooth="yes"/>
			<point x="115" y="342"/>
			<point x="128" y="331"/>
		</contour>
		<contour>
			<point x="790" y="23" type="curve" smooth="yes"/>
			<point x="809" y="23"/>
			<point x="822" y="39"/>
			<point x="822" y="55" type="curve" smooth="yes"/>
			<point x="822" y="122" type="line"/>
			<point x="856" y="122" type="line" smooth="yes"/>
			<point x="873" y="122"/>
			<point x="887" y="133"/>
			<point x="887" y="151" type="curve" smooth="yes"/>
			<point x="887" y="168"/>
			<point x="873" y="181"/>
			<point x="856" y="181" type="curve" smooth="yes"/>
			<point x="822" y="181" type="line"/>
			<point x="822" y="378" type="line" smooth="yes"/>
			<point x="822" y="400"/>
			<point x="805" y="420"/>
			<point x="780" y="420" type="curve" smooth="yes"/>
			<point x="772" y="420" type="line" smooth="yes"/>
			<point x="759" y="420"/>
			<point x="747" y="412"/>
			<point x="736" y="399" type="curve" smooth="yes"/>
			<point x="575" y="193" type="line" smooth="yes"/>
			<point x="568" y="184"/>
			<point x="564" y="175"/>
			<point x="564" y="164" type="curve" smooth="yes"/>
			<point x="564" y="141"/>
			<point x="584" y="122"/>
			<point x="606" y="122" type="curve" smooth="yes"/>
			<point x="758" y="122" type="line"/>
			<point x="758" y="55" type="line" smooth="yes"/>
			<point x="758" y="39"/>
			<point x="773" y="23"/>
		</contour>
		<contour>
			<point x="637" y="181" type="line"/>
			<point x="758" y="339" type="line"/>
			<point x="758" y="181" type="line"/>
		</contour>
	</outline>
</glyph>
<glyph name="onehalf" format="2">
	<advance width="1000"/>
	<unicode hex="00BD"/>
	<note>
		onehalf
	</note>
	<outline>
		<contour>
			<point x="282" y="5" type="curve" smooth="yes"/>
			<point x="295" y="5"/>
			<point x="304" y="9"/>
			<point x="310" y="18" type="curve" smooth="yes"/>
			<point x="715" y="685" type="line"/>
			<point x="717" y="692"/>
			<point x="719" y="698"/>
			<point x="719" y="703" type="curve" smooth="yes"/>
			<point x="719" y="723"/>
			<point x="704" y="737"/>
			<point x="685" y="737" type="curve" smooth="yes"/>
			<point x="673" y="737"/>
			<point x="663" y="732"/>
			<point x="657" y="723" type="curve" smooth="yes"/>
			<point x="253" y="56" type="line" smooth="yes"/>
			<point x="250" y="50"/>
			<point x="248" y="44"/>
			<point x="248" y="39" type="curve" smooth="yes"/>
			<point x="248" y="18"/>
			<point x="263" y="5"/>
		</contour>
		<contour>
			<point x="134" y="331" type="curve" smooth="yes"/>
			<point x="304" y="331" type="line" smooth="yes"/>
			<point x="321" y="331"/>
			<point x="335" y="342"/>
			<point x="335" y="360" type="curve" smooth="yes"/>
			<point x="335" y="377"/>
			<point x="321" y="390"/>
			<point x="304" y="390" type="curve" smooth="yes"/>
			<point x="257" y="390" type="line"/>
			<point x="257" y="678" type="line" smooth="yes"/>
			<point x="257" y="702"/>
			<point x="239" y="721"/>
			<point x="214" y="721" type="curve" smooth="yes"/>
			<point x="207" y="721"/>
			<point x="201" y="719"/>
			<point x="194" y="717" type="curve"/>
			<point x="124" y="680" type="line"/>
			<point x="111" y="675"/>
			<point x="104" y="663"/>
			<point x="104" y="652" type="curve" smooth="yes"/>
			<point x="104" y="634"/>
			<point x="119" y="622"/>
			<point x="134" y="622" type="curve" smooth="yes"/>
			<point x="137" y="622"/>
			<point x="142" y="623"/>
			<point x="149" y="626" type="curve" smooth="yes"/>
			<point x="192" y="646" type="line"/>
			<point x="192" y="390" type="line"/>
			<point x="134" y="390" type="line" smooth="yes"/>
			<point x="117" y="390"/>
			<point x="105" y="377"/>
			<point x="105" y="360" type="curve" smooth="yes"/>
			<point x="105" y="342"/>
			<point x="118" y="331"/>
		</contour>
		<contour>
			<point x="652" y="28" type="curve" smooth="yes"/>
			<point x="867" y="28" type="line" smooth="yes"/>
			<point x="883" y="28"/>
			<point x="897" y="40"/>
			<point x="897" y="57" type="curve" smooth="yes"/>
			<point x="897" y="74"/>
			<point x="883" y="88"/>
			<point x="867" y="88" type="curve" smooth="yes"/>
			<point x="683" y="88" type="line"/>
			<point x="695" y="102"/>
			<point x="717" y="117"/>
			<point x="756" y="142" type="curve" smooth="yes"/>
			<point x="813" y="180"/>
			<point x="846" y="203"/>
			<point x="874" y="242" type="curve" smooth="yes"/>
			<point x="886" y="260"/>
			<point x="893" y="282"/>
			<point x="893" y="304" type="curve" smooth="yes"/>
			<point x="893" y="371"/>
			<point x="837" y="420"/>
			<point x="762" y="420" type="curve" smooth="yes"/>
			<point x="715" y="420"/>
			<point x="672" y="409"/>
			<point x="635" y="387" type="curve" smooth="yes"/>
			<point x="626" y="382"/>
			<point x="621" y="373"/>
			<point x="621" y="362" type="curve" smooth="yes"/>
			<point x="621" y="344"/>
			<point x="633" y="334"/>
			<point x="649" y="334" type="curve" smooth="yes"/>
			<point x="653" y="334"/>
			<point x="658" y="335"/>
			<point x="662" y="337" type="curve" smooth="yes"/>
			<point x="688" y="351"/>
			<point x="717" y="358"/>
			<point x="755" y="358" type="curve" smooth="yes"/>
			<point x="803" y="358"/>
			<point x="830" y="337"/>
			<point x="830" y="300" type="curve" smooth="yes"/>
			<point x="830" y="285"/>
			<point x="823" y="270"/>
			<point x="807" y="258" type="curve" smooth="yes"/>
			<point x="792" y="244"/>
			<point x="767" y="226"/>
			<point x="735" y="206" type="curve" smooth="yes"/>
			<point x="656" y="155"/>
			<point x="613" y="123"/>
			<point x="613" y="68" type="curve" smooth="yes"/>
			<point x="613" y="48"/>
			<point x="630" y="28"/>
		</contour>
	</outline>
</glyph>
<glyph name="threequarters" format="2">
	<advance width="1000"/>
	<unicode hex="00BE"/>
	<note>
		threequarters
	</note>
	<outline>
		<contour>
			<point x="312" y="5" type="curve" smooth="yes"/>
			<point x="325" y="5"/>
			<point x="334" y="9"/>
			<point x="340" y="18" type="curve" smooth="yes"/>
			<point x="745" y="685" type="line"/>
			<point x="747" y="692"/>
			<point x="749" y="698"/>
			<point x="749" y="703" type="curve" smooth="yes"/>
			<point x="749" y="723"/>
			<point x="734" y="737"/>
			<point x="715" y="737" type="curve" smooth="yes"/>
			<point x="703" y="737"/>
			<point x="693" y="732"/>
			<point x="687" y="723" type="curve" smooth="yes"/>
			<point x="283" y="56" type="line" smooth="yes"/>
			<point x="280" y="50"/>
			<point x="278" y="44"/>
			<point x="278" y="39" type="curve" smooth="yes"/>
			<point x="278" y="18"/>
			<point x="293" y="5"/>
		</contour>
		<contour>
			<point x="231" y="325" type="curve" smooth="yes"/>
			<point x="329" y="325"/>
			<point x="374" y="373"/>
			<point x="374" y="435" type="curve" smooth="yes"/>
			<point x="374" y="481"/>
			<point x="349" y="515"/>
			<point x="302" y="530" type="curve"/>
			<point x="335" y="544"/>
			<point x="361" y="572"/>
			<point x="361" y="618" type="curve" smooth="yes"/>
			<point x="361" y="684"/>
			<point x="312" y="722"/>
			<point x="227" y="722" type="curve" smooth="yes"/>
			<point x="190" y="722"/>
			<point x="153" y="712"/>
			<point x="118" y="693" type="curve" smooth="yes"/>
			<point x="105" y="686"/>
			<point x="98" y="678"/>
			<point x="98" y="667" type="curve" smooth="yes"/>
			<point x="98" y="651"/>
			<point x="111" y="639"/>
			<point x="126" y="639" type="curve" smooth="yes"/>
			<point x="130" y="639"/>
			<point x="135" y="640"/>
			<point x="139" y="642" type="curve" smooth="yes"/>
			<point x="164" y="655"/>
			<point x="192" y="661"/>
			<point x="223" y="661" type="curve" smooth="yes"/>
			<point x="265" y="661"/>
			<point x="298" y="647"/>
			<point x="298" y="613" type="curve" smooth="yes"/>
			<point x="298" y="574"/>
			<point x="258" y="557"/>
			<point x="197" y="557" type="curve" smooth="yes"/>
			<point x="192" y="557" type="line" smooth="yes"/>
			<point x="175" y="557"/>
			<point x="162" y="544"/>
			<point x="162" y="527" type="curve" smooth="yes"/>
			<point x="162" y="510"/>
			<point x="175" y="497"/>
			<point x="192" y="497" type="curve" smooth="yes"/>
			<point x="203" y="497" type="line" smooth="yes"/>
			<point x="276" y="497"/>
			<point x="311" y="476"/>
			<point x="311" y="437" type="curve" smooth="yes"/>
			<point x="311" y="406"/>
			<point x="280" y="387"/>
			<point x="222" y="387" type="curve" smooth="yes"/>
			<point x="190" y="387"/>
			<point x="168" y="393"/>
			<point x="133" y="404" type="curve"/>
			<point x="132" y="404"/>
			<point x="131" y="405"/>
			<point x="129" y="405" type="curve" smooth="yes"/>
			<point x="126" y="405"/>
			<point x="124" y="406"/>
			<point x="122" y="406" type="curve" smooth="yes"/>
			<point x="108" y="406"/>
			<point x="93" y="393"/>
			<point x="93" y="377" type="curve" smooth="yes"/>
			<point x="93" y="365"/>
			<point x="101" y="354"/>
			<point x="111" y="349" type="curve" smooth="yes"/>
			<point x="140" y="333"/>
			<point x="180" y="325"/>
		</contour>
		<contour>
			<point x="810" y="23" type="curve" smooth="yes"/>
			<point x="829" y="23"/>
			<point x="842" y="39"/>
			<point x="842" y="55" type="curve" smooth="yes"/>
			<point x="842" y="122" type="line"/>
			<point x="876" y="122" type="line" smooth="yes"/>
			<point x="893" y="122"/>
			<point x="907" y="133"/>
			<point x="907" y="151" type="curve" smooth="yes"/>
			<point x="907" y="168"/>
			<point x="893" y="181"/>
			<point x="876" y="181" type="curve" smooth="yes"/>
			<point x="842" y="181" type="line"/>
			<point x="842" y="378" type="line" smooth="yes"/>
			<point x="842" y="400"/>
			<point x="825" y="420"/>
			<point x="800" y="420" type="curve" smooth="yes"/>
			<point x="792" y="420" type="line" smooth="yes"/>
			<point x="779" y="420"/>
			<point x="767" y="412"/>
			<point x="756" y="399" type="curve" smooth="yes"/>
			<point x="595" y="193" type="line" smooth="yes"/>
			<point x="588" y="184"/>
			<point x="584" y="175"/>
			<point x="584" y="164" type="curve" smooth="yes"/>
			<point x="584" y="141"/>
			<point x="604" y="122"/>
			<point x="626" y="122" type="curve" smooth="yes"/>
			<point x="778" y="122" type="line"/>
			<point x="778" y="55" type="line" smooth="yes"/>
			<point x="778" y="39"/>
			<point x="793" y="23"/>
		</contour>
		<contour>
			<point x="657" y="181" type="line"/>
			<point x="778" y="339" type="line"/>
			<point x="778" y="181" type="line"/>
		</contour>
	</outline>
</glyph>
<glyph name="questiondown" format="2">
	<advance width="477"/>
	<unicode hex="00BF"/>
	<note>
		questiondown
	</note>
	<outline>
		<contour>
			<point x="259" y="-165" type="curve" smooth="yes"/>
			<point x="325" y="-165"/>
			<point x="377" y="-153"/>
			<point x="432" y="-118" type="curve" smooth="yes"/>
			<point x="447" y="-109"/>
			<point x="456" y="-96"/>
			<point x="456" y="-80" type="curve" smooth="yes"/>
			<point x="456" y="-60"/>
			<point x="438" y="-40"/>
			<point x="416" y="-40" type="curve" smooth="yes"/>
			<point x="407" y="-40"/>
			<point x="399" y="-43"/>
			<point x="391" y="-48" type="curve" smooth="yes"/>
			<point x="357" y="-69"/>
			<point x="313" y="-80"/>
			<point x="267" y="-80" type="curve" smooth="yes"/>
			<point x="173" y="-80"/>
			<point x="128" y="-45"/>
			<point x="128" y="25" type="curve" smooth="yes"/>
			<point x="128" y="61"/>
			<point x="150" y="85"/>
			<point x="200" y="124" type="curve" smooth="yes"/>
			<point x="247" y="162"/>
			<point x="272" y="185"/>
			<point x="293" y="230" type="curve" smooth="yes"/>
			<point x="304" y="253"/>
			<point x="309" y="278"/>
			<point x="309" y="307" type="curve" smooth="yes"/>
			<point x="309" y="330"/>
			<point x="288" y="346"/>
			<point x="265" y="346" type="curve" smooth="yes"/>
			<point x="241" y="346"/>
			<point x="221" y="329"/>
			<point x="221" y="307" type="curve" smooth="yes"/>
			<point x="221" y="256"/>
			<point x="192" y="226"/>
			<point x="137" y="182" type="curve" smooth="yes"/>
			<point x="94" y="148"/>
			<point x="70" y="127"/>
			<point x="52" y="88" type="curve" smooth="yes"/>
			<point x="42" y="67"/>
			<point x="38" y="45"/>
			<point x="38" y="20" type="curve" smooth="yes"/>
			<point x="38" y="-93"/>
			<point x="125" y="-165"/>
		</contour>
		<contour>
			<point x="267" y="414" type="curve" smooth="yes"/>
			<point x="298" y="414"/>
			<point x="325" y="441"/>
			<point x="325" y="472" type="curve" smooth="yes"/>
			<point x="325" y="505"/>
			<point x="298" y="532"/>
			<point x="267" y="532" type="curve" smooth="yes"/>
			<point x="234" y="532"/>
			<point x="207" y="505"/>
			<point x="207" y="472" type="curve" smooth="yes"/>
			<point x="207" y="441"/>
			<point x="234" y="414"/>
		</contour>
	</outline>
</glyph>
<glyph name="Atilde" format="2">
	<advance width="729"/>
	<unicode hex="00C3"/>
	<anchor x="565" y="724" name="odot"/>
	<anchor x="636" y="68" name="ogonek"/>
	<anchor x="363" y="886" name="top"/>
	<note>
		Atilde
	</note>
	<outline>
		<contour>
			<point x="93" y="23" type="curve" smooth="yes"/>
			<point x="112" y="23"/>
			<point x="128" y="34"/>
			<point x="136" y="51" type="curve" smooth="yes"/>
			<point x="199" y="203" type="line"/>
			<point x="529" y="203" type="line"/>
			<point x="593" y="51" type="line" smooth="yes"/>
			<point x="601" y="34"/>
			<point x="616" y="23"/>
			<point x="636" y="23" type="curve" smooth="yes"/>
			<point x="662" y="23"/>
			<point x="681" y="44"/>
			<point x="681" y="68" type="curve" smooth="yes"/>
			<point x="681" y="73"/>
			<point x="679" y="80"/>
			<point x="676" y="88" type="curve" smooth="yes"/>
			<point x="427" y="675" type="line" smooth="yes"/>
			<point x="416" y="700"/>
			<point x="396" y="717"/>
			<point x="369" y="717" type="curve" smooth="yes"/>
			<point x="359" y="717" type="line" smooth="yes"/>
			<point x="332" y="717"/>
			<point x="313" y="700"/>
			<point x="302" y="675" type="curve" smooth="yes"/>
			<point x="53" y="88" type="line" smooth="yes"/>
			<point x="50" y="80"/>
			<point x="48" y="73"/>
			<point x="48" y="68" type="curve" smooth="yes"/>
			<point x="48" y="44"/>
			<point x="66" y="23"/>
		</contour>
		<contour>
			<point x="233" y="286" type="line"/>
			<point x="356" y="582" type="line" smooth="yes"/>
			<point x="359" y="591"/>
			<point x="368" y="592"/>
			<point x="372" y="582" type="curve" smooth="yes"/>
			<point x="495" y="286" type="line"/>
		</contour>
		<contour>
			<point x="229" y="754" type="curve" smooth="yes"/>
			<point x="241" y="754"/>
			<point x="249" y="760"/>
			<point x="253" y="772" type="curve" smooth="yes"/>
			<point x="262" y="793"/>
			<point x="274" y="802"/>
			<point x="290" y="802" type="curve" smooth="yes"/>
			<point x="313" y="802"/>
			<point x="330" y="795"/>
			<point x="360" y="780" type="curve" smooth="yes"/>
			<point x="395" y="764"/>
			<point x="414" y="756"/>
			<point x="440" y="756" type="curve" smooth="yes"/>
			<point x="488" y="756"/>
			<point x="523" y="803"/>
			<point x="523" y="849" type="curve" smooth="yes"/>
			<point x="522" y="862"/>
			<point x="513" y="872"/>
			<point x="500" y="872" type="curve" smooth="yes"/>
			<point x="488" y="872"/>
			<point x="479" y="864"/>
			<point x="475" y="850" type="curve"/>
			<point x="467" y="832"/>
			<point x="456" y="825"/>
			<point x="439" y="825" type="curve" smooth="yes"/>
			<point x="416" y="825"/>
			<point x="397" y="833"/>
			<point x="367" y="847" type="curve" smooth="yes"/>
			<point x="335" y="863"/>
			<point x="315" y="871"/>
			<point x="289" y="871" type="curve" smooth="yes"/>
			<point x="241" y="871"/>
			<point x="206" y="820"/>
			<point x="206" y="777" type="curve" smooth="yes"/>
			<point x="206" y="763"/>
			<point x="218" y="754"/>
		</contour>
	</outline>
</glyph>
<glyph name="Adieresis" format="2">
	<advance width="729"/>
	<unicode hex="00C4"/>
	<anchor x="362" y="29" name="bottom"/>
	<anchor x="566" y="724" name="odot"/>
	<anchor x="636" y="68" name="ogonek"/>
	<anchor x="363" y="886" name="top"/>
	<note>
		Adieresis
	</note>
	<outline>
		<contour>
			<point x="93" y="23" type="curve" smooth="yes"/>
			<point x="112" y="23"/>
			<point x="128" y="34"/>
			<point x="136" y="51" type="curve" smooth="yes"/>
			<point x="199" y="203" type="line"/>
			<point x="529" y="203" type="line"/>
			<point x="593" y="51" type="line" smooth="yes"/>
			<point x="601" y="34"/>
			<point x="616" y="23"/>
			<point x="636" y="23" type="curve" smooth="yes"/>
			<point x="662" y="23"/>
			<point x="681" y="44"/>
			<point x="681" y="68" type="curve" smooth="yes"/>
			<point x="681" y="73"/>
			<point x="679" y="80"/>
			<point x="676" y="88" type="curve" smooth="yes"/>
			<point x="427" y="675" type="line" smooth="yes"/>
			<point x="416" y="700"/>
			<point x="396" y="717"/>
			<point x="369" y="717" type="curve" smooth="yes"/>
			<point x="359" y="717" type="line" smooth="yes"/>
			<point x="332" y="717"/>
			<point x="313" y="700"/>
			<point x="302" y="675" type="curve" smooth="yes"/>
			<point x="53" y="88" type="line" smooth="yes"/>
			<point x="50" y="80"/>
			<point x="48" y="73"/>
			<point x="48" y="68" type="curve" smooth="yes"/>
			<point x="48" y="44"/>
			<point x="66" y="23"/>
		</contour>
		<contour>
			<point x="233" y="286" type="line"/>
			<point x="356" y="582" type="line" smooth="yes"/>
			<point x="359" y="591"/>
			<point x="368" y="592"/>
			<point x="372" y="582" type="curve" smooth="yes"/>
			<point x="495" y="286" type="line"/>
		</contour>
		<contour>
			<point x="282" y="758" type="curve" smooth="yes"/>
			<point x="310" y="758"/>
			<point x="333" y="781"/>
			<point x="333" y="808" type="curve" smooth="yes"/>
			<point x="333" y="836"/>
			<point x="310" y="859"/>
			<point x="282" y="859" type="curve" smooth="yes"/>
			<point x="255" y="859"/>
			<point x="231" y="836"/>
			<point x="231" y="808" type="curve" smooth="yes"/>
			<point x="231" y="781"/>
			<point x="255" y="758"/>
		</contour>
		<contour>
			<point x="446" y="758" type="curve" smooth="yes"/>
			<point x="474" y="758"/>
			<point x="497" y="781"/>
			<point x="497" y="808" type="curve" smooth="yes"/>
			<point x="497" y="836"/>
			<point x="474" y="859"/>
			<point x="446" y="859" type="curve" smooth="yes"/>
			<point x="419" y="859"/>
			<point x="396" y="836"/>
			<point x="396" y="808" type="curve" smooth="yes"/>
			<point x="396" y="781"/>
			<point x="419" y="758"/>
		</contour>
	</outline>
</glyph>
<glyph name="AE" format="2">
	<advance width="1016"/>
	<unicode hex="00C6"/>
	<anchor x="524" y="747" name="top"/>
	<note>
		AE
	</note>
	<outline>
		<contour>
			<point x="47" y="23" type="curve" smooth="yes"/>
			<point x="63" y="23"/>
			<point x="77" y="33"/>
			<point x="88" y="49" type="curve" smooth="yes"/>
			<point x="187" y="203" type="line"/>
			<point x="486" y="203" type="line"/>
			<point x="486" y="73" type="line" smooth="yes"/>
			<point x="486" y="49"/>
			<point x="507" y="28"/>
			<point x="531" y="28" type="curve" smooth="yes"/>
			<point x="923" y="28" type="line" smooth="yes"/>
			<point x="946" y="28"/>
			<point x="966" y="46"/>
			<point x="966" y="70" type="curve" smooth="yes"/>
			<point x="966" y="93"/>
			<point x="946" y="113"/>
			<point x="923" y="113" type="curve" smooth="yes"/>
			<point x="589" y="113" type="line" smooth="yes"/>
			<point x="581" y="113"/>
			<point x="577" y="117"/>
			<point x="577" y="125" type="curve" smooth="yes"/>
			<point x="577" y="328" type="line"/>
			<point x="888" y="328" type="line" smooth="yes"/>
			<point x="911" y="328"/>
			<point x="931" y="345"/>
			<point x="931" y="370" type="curve" smooth="yes"/>
			<point x="931" y="393"/>
			<point x="911" y="413"/>
			<point x="888" y="413" type="curve" smooth="yes"/>
			<point x="577" y="413" type="line"/>
			<point x="577" y="615" type="line" smooth="yes"/>
			<point x="577" y="623"/>
			<point x="581" y="627"/>
			<point x="589" y="627" type="curve" smooth="yes"/>
			<point x="923" y="627" type="line" smooth="yes"/>
			<point x="946" y="627"/>
			<point x="966" y="644"/>
			<point x="966" y="669" type="curve" smooth="yes"/>
			<point x="966" y="692"/>
			<point x="946" y="712"/>
			<point x="923" y="712" type="curve" smooth="yes"/>
			<point x="446" y="712" type="line" smooth="yes"/>
			<point x="428" y="712"/>
			<point x="412" y="702"/>
			<point x="400" y="687" type="curve"/>
			<point x="11" y="96" type="line" smooth="yes"/>
			<point x="5" y="87"/>
			<point x="1" y="78"/>
			<point x="1" y="68" type="curve" smooth="yes"/>
			<point x="1" y="43"/>
			<point x="22" y="23"/>
		</contour>
		<contour>
			<point x="241" y="286" type="line"/>
			<point x="458" y="619" type="line" smooth="yes"/>
			<point x="461" y="624"/>
			<point x="465" y="627"/>
			<point x="473" y="627" type="curve" smooth="yes"/>
			<point x="486" y="627" type="line"/>
			<point x="486" y="286" type="line"/>
		</contour>
	</outline>
</glyph>
<glyph name="Egrave" format="2">
	<advance width="623"/>
	<unicode hex="00C8"/>
	<anchor x="585" y="804" name="odot"/>
	<anchor x="334" y="886" name="top"/>
	<note>
		Egrave
	</note>
	<outline>
		<contour>
			<point x="139" y="28" type="curve" smooth="yes"/>
			<point x="530" y="28" type="line" smooth="yes"/>
			<point x="554" y="28"/>
			<point x="573" y="46"/>
			<point x="573" y="70" type="curve" smooth="yes"/>
			<point x="573" y="93"/>
			<point x="554" y="113"/>
			<point x="530" y="113" type="curve" smooth="yes"/>
			<point x="196" y="113" type="line" smooth="yes"/>
			<point x="188" y="113"/>
			<point x="185" y="117"/>
			<point x="185" y="125" type="curve" smooth="yes"/>
			<point x="185" y="328" type="line"/>
			<point x="495" y="328" type="line" smooth="yes"/>
			<point x="519" y="328"/>
			<point x="538" y="345"/>
			<point x="538" y="370" type="curve" smooth="yes"/>
			<point x="538" y="393"/>
			<point x="519" y="413"/>
			<point x="495" y="413" type="curve" smooth="yes"/>
			<point x="185" y="413" type="line"/>
			<point x="185" y="615" type="line" smooth="yes"/>
			<point x="185" y="623"/>
			<point x="188" y="627"/>
			<point x="196" y="627" type="curve" smooth="yes"/>
			<point x="530" y="627" type="line" smooth="yes"/>
			<point x="554" y="627"/>
			<point x="573" y="644"/>
			<point x="573" y="669" type="curve" smooth="yes"/>
			<point x="573" y="692"/>
			<point x="554" y="712"/>
			<point x="530" y="712" type="curve" smooth="yes"/>
			<point x="139" y="712" type="line" smooth="yes"/>
			<point x="113" y="712"/>
			<point x="94" y="690"/>
			<point x="94" y="666" type="curve" smooth="yes"/>
			<point x="94" y="73" type="line" smooth="yes"/>
			<point x="94" y="49"/>
			<point x="114" y="28"/>
		</contour>
		<contour>
			<point x="334" y="750" type="curve" smooth="yes"/>
			<point x="351" y="750"/>
			<point x="361" y="761"/>
			<point x="361" y="777" type="curve" smooth="yes"/>
			<point x="361" y="784"/>
			<point x="358" y="790"/>
			<point x="354" y="797" type="curve" smooth="yes"/>
			<point x="305" y="883" type="line" smooth="yes"/>
			<point x="298" y="897"/>
			<point x="286" y="903"/>
			<point x="271" y="903" type="curve" smooth="yes"/>
			<point x="249" y="903"/>
			<point x="234" y="889"/>
			<point x="234" y="866" type="curve" smooth="yes"/>
			<point x="234" y="857"/>
			<point x="237" y="847"/>
			<point x="244" y="841" type="curve"/>
			<point x="312" y="760" type="line" smooth="yes"/>
			<point x="317" y="754"/>
			<point x="325" y="750"/>
		</contour>
	</outline>
</glyph>
<glyph name="Eacute" format="2">
  <advance width="623"/>
  <unicode hex="00C9"/>
  <note>
Eacute
</note>
  <anchor x="585" y="775" name="odot"/>
  <anchor x="334" y="857" name="top"/>
  <outline>
    <contour>
      <point x="139" y="-1" type="curve" smooth="yes"/>
      <point x="530" y="-1" type="line" smooth="yes"/>
      <point x="554" y="-1"/>
      <point x="573" y="17"/>
      <point x="573" y="41" type="curve" smooth="yes"/>
      <point x="573" y="64"/>
      <point x="554" y="84"/>
      <point x="530" y="84" type="curve" smooth="yes"/>
      <point x="196" y="84" type="line" smooth="yes"/>
      <point x="188" y="84"/>
      <point x="185" y="88"/>
      <point x="185" y="96" type="curve" smooth="yes"/>
      <point x="185" y="299" type="line"/>
      <point x="495" y="299" type="line" smooth="yes"/>
      <point x="519" y="299"/>
      <point x="538" y="316"/>
      <point x="538" y="341" type="curve" smooth="yes"/>
      <point x="538" y="364"/>
      <point x="519" y="384"/>
      <point x="495" y="384" type="curve" smooth="yes"/>
      <point x="185" y="384" type="line"/>
      <point x="185" y="586" type="line" smooth="yes"/>
      <point x="185" y="594"/>
      <point x="188" y="598"/>
      <point x="196" y="598" type="curve" smooth="yes"/>
      <point x="530" y="598" type="line" smooth="yes"/>
      <point x="554" y="598"/>
      <point x="573" y="615"/>
      <point x="573" y="640" type="curve" smooth="yes"/>
      <point x="573" y="663"/>
      <point x="554" y="683"/>
      <point x="530" y="683" type="curve" smooth="yes"/>
      <point x="139" y="683" type="line" smooth="yes"/>
      <point x="113" y="683"/>
      <point x="94" y="661"/>
      <point x="94" y="637" type="curve" smooth="yes"/>
      <point x="94" y="44" type="line" smooth="yes"/>
      <point x="94" y="20"/>
      <point x="114" y="-1"/>
    </contour>
    <contour>
      <point x="334" y="721" type="curve" smooth="yes"/>
      <point x="343" y="721"/>
      <point x="351" y="725"/>
      <point x="356" y="731" type="curve" smooth="yes"/>
      <point x="424" y="812" type="line"/>
      <point x="431" y="818"/>
      <point x="434" y="828"/>
      <point x="434" y="837" type="curve" smooth="yes"/>
      <point x="434" y="859"/>
      <point x="417" y="874"/>
      <point x="396" y="874" type="curve" smooth="yes"/>
      <point x="382" y="874"/>
      <point x="370" y="868"/>
      <point x="363" y="854" type="curve" smooth="yes"/>
      <point x="313" y="768" type="line"/>
      <point x="310" y="761"/>
      <point x="307" y="755"/>
      <point x="307" y="748" type="curve" smooth="yes"/>
      <point x="307" y="731"/>
      <point x="318" y="721"/>
    </contour>
  </outline>
</glyph>
<glyph name="Igrave" format="2">
	<advance width="278"/>
	<unicode hex="00CC"/>
	<anchor x="275" y="721" name="odot"/>
	<anchor x="140" y="886" name="top"/>
	<note>
		Igrave
	</note>
	<outline>
		<contour>
			<point x="139" y="23" type="curve" smooth="yes"/>
			<point x="163" y="23"/>
			<point x="185" y="43"/>
			<point x="185" y="68" type="curve" smooth="yes"/>
			<point x="185" y="671" type="line" smooth="yes"/>
			<point x="185" y="695"/>
			<point x="163" y="717"/>
			<point x="139" y="717" type="curve" smooth="yes"/>
			<point x="113" y="717"/>
			<point x="94" y="695"/>
			<point x="94" y="671" type="curve" smooth="yes"/>
			<point x="94" y="68" type="line" smooth="yes"/>
			<point x="94" y="44"/>
			<point x="114" y="23"/>
		</contour>
		<contour>
			<point x="140" y="750" type="curve" smooth="yes"/>
			<point x="156" y="750"/>
			<point x="167" y="761"/>
			<point x="167" y="777" type="curve" smooth="yes"/>
			<point x="167" y="784"/>
			<point x="164" y="790"/>
			<point x="160" y="797" type="curve" smooth="yes"/>
			<point x="110" y="883" type="line"/>
			<point x="104" y="897"/>
			<point x="92" y="903"/>
			<point x="77" y="903" type="curve" smooth="yes"/>
			<point x="55" y="903"/>
			<point x="40" y="889"/>
			<point x="40" y="866" type="curve" smooth="yes"/>
			<point x="40" y="857"/>
			<point x="43" y="847"/>
			<point x="50" y="841" type="curve"/>
			<point x="117" y="760" type="line"/>
			<point x="123" y="754"/>
			<point x="131" y="750"/>
		</contour>
	</outline>
</glyph>
<glyph name="Icircumflex" format="2">
  <advance height="1000" width="278"/>
  <unicode hex="00CE"/>
  <note>
Icircumflex
</note>
  <anchor x="275" y="643" name="odot"/>
  <anchor x="140" y="857" name="top"/>
  <outline>
    <contour>
      <point x="139" y="-6" type="curve" smooth="yes"/>
      <point x="163" y="-6"/>
      <point x="185" y="14"/>
      <point x="185" y="39" type="curve" smooth="yes"/>
      <point x="185" y="642" type="line" smooth="yes"/>
      <point x="185" y="666"/>
      <point x="163" y="688"/>
      <point x="139" y="688" type="curve" smooth="yes"/>
      <point x="113" y="688"/>
      <point x="94" y="666"/>
      <point x="94" y="642" type="curve" smooth="yes"/>
      <point x="94" y="39" type="line" smooth="yes"/>
      <point x="94" y="15"/>
      <point x="114" y="-6"/>
    </contour>
    <contour>
      <point x="37" y="720" type="curve" smooth="yes"/>
      <point x="44" y="720"/>
      <point x="50" y="722"/>
      <point x="56" y="727" type="curve" smooth="yes"/>
      <point x="132" y="791" type="line" smooth="yes"/>
      <point x="137" y="796"/>
      <point x="143" y="796"/>
      <point x="147" y="791" type="curve"/>
      <point x="224" y="727" type="line" smooth="yes"/>
      <point x="229" y="722"/>
      <point x="235" y="720"/>
      <point x="242" y="720" type="curve" smooth="yes"/>
      <point x="259" y="720"/>
      <point x="273" y="735"/>
      <point x="272" y="750" type="curve" smooth="yes"/>
      <point x="272" y="758"/>
      <point x="269" y="765"/>
      <point x="265" y="770" type="curve" smooth="yes"/>
      <point x="198" y="838" type="line" smooth="yes"/>
      <point x="186" y="852"/>
      <point x="174" y="857"/>
      <point x="158" y="857" type="curve" smooth="yes"/>
      <point x="121" y="857" type="line" smooth="yes"/>
      <point x="105" y="857"/>
      <point x="94" y="852"/>
      <point x="81" y="838" type="curve" smooth="yes"/>
      <point x="15" y="770" type="line" smooth="yes"/>
      <point x="11" y="765"/>
      <point x="7" y="758"/>
      <point x="7" y="750" type="curve" smooth="yes"/>
      <point x="6" y="735"/>
      <point x="21" y="720"/>
    </contour>
  </outline>
</glyph>
<glyph name="Ntilde" format="2">
	<advance width="784"/>
	<unicode hex="00D1"/>
	<anchor x="385" y="887" name="top"/>
	<note>
		Ntilde
	</note>
	<outline>
		<contour>
			<point x="139" y="23" type="curve" smooth="yes"/>
			<point x="163" y="23"/>
			<point x="185" y="43"/>
			<point x="185" y="68" type="curve" smooth="yes"/>
			<point x="185" y="569" type="line" smooth="yes"/>
			<point x="185" y="580"/>
			<point x="192" y="583"/>
			<point x="198" y="573" type="curve" smooth="yes"/>
			<point x="561" y="50" type="line" smooth="yes"/>
			<point x="572" y="34"/>
			<point x="593" y="23"/>
			<point x="613" y="23" type="curve" smooth="yes"/>
			<point x="625" y="23" type="line" smooth="yes"/>
			<point x="660" y="23"/>
			<point x="690" y="51"/>
			<point x="690" y="88" type="curve" smooth="yes"/>
			<point x="690" y="671" type="line" smooth="yes"/>
			<point x="690" y="695"/>
			<point x="669" y="717"/>
			<point x="645" y="717" type="curve" smooth="yes"/>
			<point x="619" y="717"/>
			<point x="600" y="695"/>
			<point x="600" y="671" type="curve" smooth="yes"/>
			<point x="600" y="171" type="line" smooth="yes"/>
			<point x="600" y="160"/>
			<point x="592" y="157"/>
			<point x="586" y="167" type="curve" smooth="yes"/>
			<point x="226" y="687" type="line"/>
			<point x="211" y="706"/>
			<point x="192" y="717"/>
			<point x="171" y="717" type="curve" smooth="yes"/>
			<point x="158" y="717" type="line" smooth="yes"/>
			<point x="122" y="717"/>
			<point x="94" y="686"/>
			<point x="94" y="651" type="curve" smooth="yes"/>
			<point x="94" y="68" type="line" smooth="yes"/>
			<point x="94" y="44"/>
			<point x="114" y="23"/>
		</contour>
		<contour>
			<point x="258" y="754" type="curve" smooth="yes"/>
			<point x="270" y="754"/>
			<point x="277" y="760"/>
			<point x="281" y="772" type="curve" smooth="yes"/>
			<point x="290" y="793"/>
			<point x="303" y="802"/>
			<point x="318" y="802" type="curve" smooth="yes"/>
			<point x="341" y="802"/>
			<point x="358" y="795"/>
			<point x="389" y="780" type="curve" smooth="yes"/>
			<point x="423" y="764"/>
			<point x="442" y="756"/>
			<point x="469" y="756" type="curve" smooth="yes"/>
			<point x="517" y="756"/>
			<point x="552" y="803"/>
			<point x="552" y="849" type="curve" smooth="yes"/>
			<point x="551" y="862"/>
			<point x="541" y="872"/>
			<point x="528" y="872" type="curve" smooth="yes"/>
			<point x="517" y="872"/>
			<point x="508" y="864"/>
			<point x="503" y="850" type="curve" smooth="yes"/>
			<point x="495" y="832"/>
			<point x="484" y="825"/>
			<point x="468" y="825" type="curve" smooth="yes"/>
			<point x="444" y="825"/>
			<point x="426" y="833"/>
			<point x="396" y="847" type="curve" smooth="yes"/>
			<point x="363" y="863"/>
			<point x="344" y="871"/>
			<point x="317" y="871" type="curve" smooth="yes"/>
			<point x="270" y="871"/>
			<point x="234" y="820"/>
			<point x="234" y="777" type="curve" smooth="yes"/>
			<point x="234" y="763"/>
			<point x="246" y="754"/>
		</contour>
	</outline>
</glyph>
<glyph name="Ocircumflex" format="2">
  <advance width="793"/>
  <unicode hex="00D4"/>
  <note>
Ocircumflex
</note>
  <anchor x="727" y="702" name="odot"/>
  <anchor x="398" y="857" name="top"/>
  <outline>
    <contour>
      <point x="396" y="-11" type="curve" smooth="yes"/>
      <point x="533" y="-11"/>
      <point x="640" y="53"/>
      <point x="696" y="160" type="curve" smooth="yes"/>
      <point x="725" y="213"/>
      <point x="739" y="273"/>
      <point x="740" y="341" type="curve" smooth="yes"/>
      <point x="737" y="477"/>
      <point x="679" y="588"/>
      <point x="577" y="647" type="curve" smooth="yes"/>
      <point x="524" y="678"/>
      <point x="465" y="692"/>
      <point x="396" y="692" type="curve" smooth="yes"/>
      <point x="260" y="692"/>
      <point x="152" y="629"/>
      <point x="97" y="522" type="curve" smooth="yes"/>
      <point x="68" y="470"/>
      <point x="54" y="408"/>
      <point x="53" y="341" type="curve" smooth="yes"/>
      <point x="56" y="204"/>
      <point x="113" y="94"/>
      <point x="216" y="34" type="curve" smooth="yes"/>
      <point x="269" y="4"/>
      <point x="328" y="-11"/>
    </contour>
    <contour>
      <point x="396" y="74" type="curve" smooth="yes"/>
      <point x="294" y="74"/>
      <point x="215" y="121"/>
      <point x="174" y="204" type="curve" smooth="yes"/>
      <point x="154" y="243"/>
      <point x="144" y="289"/>
      <point x="144" y="341" type="curve" smooth="yes"/>
      <point x="144" y="443"/>
      <point x="187" y="526"/>
      <point x="262" y="572" type="curve" smooth="yes"/>
      <point x="299" y="596"/>
      <point x="344" y="607"/>
      <point x="396" y="607" type="curve" smooth="yes"/>
      <point x="498" y="607"/>
      <point x="578" y="560"/>
      <point x="619" y="478" type="curve" smooth="yes"/>
      <point x="639" y="438"/>
      <point x="649" y="393"/>
      <point x="649" y="341" type="curve" smooth="yes"/>
      <point x="649" y="237"/>
      <point x="606" y="155"/>
      <point x="531" y="109" type="curve" smooth="yes"/>
      <point x="494" y="86"/>
      <point x="449" y="74"/>
    </contour>
    <contour>
      <point x="294" y="720" type="curve" smooth="yes"/>
      <point x="301" y="720"/>
      <point x="307" y="722"/>
      <point x="313" y="727" type="curve" smooth="yes"/>
      <point x="389" y="791" type="line" smooth="yes"/>
      <point x="394" y="796"/>
      <point x="399" y="796"/>
      <point x="404" y="791" type="curve" smooth="yes"/>
      <point x="480" y="727" type="line" smooth="yes"/>
      <point x="486" y="722"/>
      <point x="492" y="720"/>
      <point x="499" y="720" type="curve" smooth="yes"/>
      <point x="516" y="720"/>
      <point x="530" y="735"/>
      <point x="529" y="750" type="curve" smooth="yes"/>
      <point x="529" y="758"/>
      <point x="525" y="765"/>
      <point x="521" y="770" type="curve" smooth="yes"/>
      <point x="455" y="838" type="line" smooth="yes"/>
      <point x="442" y="852"/>
      <point x="431" y="857"/>
      <point x="415" y="857" type="curve" smooth="yes"/>
      <point x="378" y="857" type="line" smooth="yes"/>
      <point x="362" y="857"/>
      <point x="351" y="852"/>
      <point x="338" y="838" type="curve" smooth="yes"/>
      <point x="271" y="770" type="line"/>
      <point x="268" y="765"/>
      <point x="264" y="758"/>
      <point x="264" y="750" type="curve" smooth="yes"/>
      <point x="263" y="735"/>
      <point x="277" y="720"/>
    </contour>
  </outline>
</glyph>
<glyph name="Oslash" format="2">
  <advance width="793"/>
  <unicode hex="00D8"/>
  <note>
Oslash
</note>
  <anchor x="727" y="702" name="odot"/>
  <anchor x="398" y="691" name="top"/>
  <outline>
    <contour>
      <point x="154" y="-30" type="curve" smooth="yes"/>
      <point x="163" y="-30"/>
      <point x="170" y="-27"/>
      <point x="176" y="-21" type="curve"/>
      <point x="214" y="35" type="line"/>
      <point x="268" y="4"/>
      <point x="329" y="-11"/>
      <point x="396" y="-11" type="curve" smooth="yes"/>
      <point x="533" y="-11"/>
      <point x="640" y="53"/>
      <point x="696" y="160" type="curve" smooth="yes"/>
      <point x="725" y="213"/>
      <point x="739" y="273"/>
      <point x="740" y="341" type="curve" smooth="yes"/>
      <point x="737" y="455"/>
      <point x="695" y="553"/>
      <point x="621" y="615" type="curve"/>
      <point x="659" y="669" type="line" smooth="yes"/>
      <point x="663" y="676"/>
      <point x="665" y="682"/>
      <point x="665" y="687" type="curve" smooth="yes"/>
      <point x="665" y="699"/>
      <point x="654" y="711"/>
      <point x="640" y="711" type="curve" smooth="yes"/>
      <point x="631" y="711"/>
      <point x="624" y="708"/>
      <point x="618" y="701" type="curve"/>
      <point x="580" y="645" type="line"/>
      <point x="525" y="677"/>
      <point x="465" y="692"/>
      <point x="396" y="692" type="curve" smooth="yes"/>
      <point x="260" y="692"/>
      <point x="152" y="629"/>
      <point x="97" y="522" type="curve" smooth="yes"/>
      <point x="68" y="470"/>
      <point x="54" y="408"/>
      <point x="53" y="341" type="curve" smooth="yes"/>
      <point x="54" y="228"/>
      <point x="96" y="128"/>
      <point x="173" y="64" type="curve"/>
      <point x="135" y="12" type="line"/>
      <point x="131" y="5"/>
      <point x="129" y="-1"/>
      <point x="129" y="-6" type="curve" smooth="yes"/>
      <point x="129" y="-19"/>
      <point x="140" y="-30"/>
    </contour>
    <contour>
      <point x="224" y="138" type="line"/>
      <point x="172" y="185"/>
      <point x="144" y="257"/>
      <point x="144" y="341" type="curve" smooth="yes"/>
      <point x="144" y="443"/>
      <point x="187" y="526"/>
      <point x="262" y="572" type="curve" smooth="yes"/>
      <point x="299" y="596"/>
      <point x="344" y="607"/>
      <point x="396" y="607" type="curve" smooth="yes"/>
      <point x="446" y="607"/>
      <point x="490" y="596"/>
      <point x="529" y="574" type="curve"/>
    </contour>
    <contour>
      <point x="396" y="74" type="curve" smooth="yes"/>
      <point x="345" y="74"/>
      <point x="301" y="85"/>
      <point x="264" y="106" type="curve"/>
      <point x="570" y="543" type="line"/>
      <point x="620" y="497"/>
      <point x="649" y="424"/>
      <point x="649" y="341" type="curve" smooth="yes"/>
      <point x="649" y="237"/>
      <point x="606" y="155"/>
      <point x="531" y="109" type="curve" smooth="yes"/>
      <point x="494" y="86"/>
      <point x="449" y="74"/>
    </contour>
  </outline>
</glyph>
<glyph name="Uacute" format="2">
	<advance width="740"/>
	<unicode hex="00DA"/>
	<anchor x="724" y="769" name="odot"/>
	<anchor x="370" y="886" name="top"/>
	<note>
		Uacute
	</note>
	<outline>
		<contour>
			<point x="370" y="18" type="curve" smooth="yes"/>
			<point x="463" y="18"/>
			<point x="556" y="57"/>
			<point x="610" y="137" type="curve" smooth="yes"/>
			<point x="638" y="178"/>
			<point x="651" y="228"/>
			<point x="651" y="285" type="curve" smooth="yes"/>
			<point x="651" y="671" type="line" smooth="yes"/>
			<point x="651" y="695"/>
			<point x="630" y="717"/>
			<point x="605" y="717" type="curve" smooth="yes"/>
			<point x="580" y="717"/>
			<point x="561" y="695"/>
			<point x="561" y="671" type="curve" smooth="yes"/>
			<point x="561" y="282" type="line" smooth="yes"/>
			<point x="561" y="208"/>
			<point x="525" y="150"/>
			<point x="464" y="122" type="curve" smooth="yes"/>
			<point x="435" y="108"/>
			<point x="404" y="101"/>
			<point x="370" y="101" type="curve" smooth="yes"/>
			<point x="304" y="101"/>
			<point x="242" y="129"/>
			<point x="207" y="183" type="curve" smooth="yes"/>
			<point x="189" y="209"/>
			<point x="180" y="242"/>
			<point x="180" y="282" type="curve" smooth="yes"/>
			<point x="180" y="671" type="line" smooth="yes"/>
			<point x="180" y="695"/>
			<point x="158" y="717"/>
			<point x="134" y="717" type="curve" smooth="yes"/>
			<point x="108" y="717"/>
			<point x="89" y="695"/>
			<point x="89" y="671" type="curve" smooth="yes"/>
			<point x="89" y="285" type="line" smooth="yes"/>
			<point x="89" y="169"/>
			<point x="149" y="87"/>
			<point x="236" y="48" type="curve" smooth="yes"/>
			<point x="278" y="28"/>
			<point x="323" y="18"/>
		</contour>
		<contour>
			<point x="370" y="750" type="curve" smooth="yes"/>
			<point x="379" y="750"/>
			<point x="387" y="754"/>
			<point x="393" y="760" type="curve"/>
			<point x="460" y="841" type="line"/>
			<point x="467" y="847"/>
			<point x="470" y="857"/>
			<point x="470" y="866" type="curve" smooth="yes"/>
			<point x="470" y="888"/>
			<point x="453" y="903"/>
			<point x="433" y="903" type="curve" smooth="yes"/>
			<point x="418" y="903"/>
			<point x="406" y="897"/>
			<point x="399" y="883" type="curve" smooth="yes"/>
			<point x="350" y="797" type="line" smooth="yes"/>
			<point x="346" y="790"/>
			<point x="343" y="784"/>
			<point x="343" y="777" type="curve" smooth="yes"/>
			<point x="343" y="760"/>
			<point x="354" y="750"/>
		</contour>
	</outline>
</glyph>
